<svg width="1039" height="131" viewBox="0 0 1039 131" fill="none" xmlns="http://www.w3.org/2000/svg">
<path d="M31.572 14.495V128H0.0160003V14.495H31.572ZM108.629 36.874C119.041 36.874 127.305 40.3623 133.423 47.339C139.541 54.2083 142.6 63.5463 142.6 75.353V128H111.044V79.539C111.044 74.387 109.703 70.362 107.019 67.464C104.336 64.4587 100.74 62.956 96.2324 62.956C91.5097 62.956 87.8067 64.4587 85.1234 67.464C82.44 70.362 81.0984 74.387 81.0984 79.539V128H49.5424V37.679H81.0984V50.559C83.889 46.4803 87.6457 43.2067 92.3684 40.738C97.091 38.162 102.511 36.874 108.629 36.874ZM208.698 63.922H194.53V128H162.813V63.922H152.992V37.679H162.813V36.874C162.813 25.282 166.194 16.427 172.956 10.309C179.826 4.08366 189.647 0.970994 202.419 0.970994C204.995 0.970994 206.981 1.02466 208.376 1.13199V28.019C207.518 27.9117 206.337 27.858 204.834 27.858C201.4 27.858 198.877 28.663 197.267 30.273C195.657 31.7757 194.745 34.2443 194.53 37.679H208.698V63.922ZM261.997 129.127C252.981 129.127 244.877 127.249 237.686 123.492C230.602 119.735 225.021 114.369 220.942 107.392C216.863 100.415 214.824 92.2043 214.824 82.759C214.824 73.421 216.863 65.2637 220.942 58.287C225.128 51.3103 230.763 45.9437 237.847 42.187C245.038 38.4303 253.142 36.552 262.158 36.552C271.174 36.552 279.224 38.4303 286.308 42.187C293.499 45.9437 299.134 51.3103 303.213 58.287C307.399 65.2637 309.492 73.421 309.492 82.759C309.492 92.097 307.399 100.308 303.213 107.392C299.134 114.369 293.499 119.735 286.308 123.492C279.117 127.249 271.013 129.127 261.997 129.127ZM261.997 101.757C266.398 101.757 270.047 100.147 272.945 96.927C275.95 93.5997 277.453 88.877 277.453 82.759C277.453 76.641 275.95 71.972 272.945 68.752C270.047 65.532 266.451 63.922 262.158 63.922C257.865 63.922 254.269 65.532 251.371 68.752C248.473 71.972 247.024 76.641 247.024 82.759C247.024 88.9843 248.419 93.707 251.21 96.927C254.001 100.147 257.596 101.757 261.997 101.757ZM353.886 53.618C357.428 48.466 361.722 44.3873 366.766 41.382C371.811 38.3767 377.231 36.874 383.027 36.874V70.523H374.172C367.303 70.523 362.205 71.8647 358.877 74.548C355.55 77.2313 353.886 81.9003 353.886 88.555V128H322.33V37.679H353.886V53.618ZM512.353 36.874C523.731 36.874 532.639 40.3087 539.079 47.178C545.627 54.0473 548.9 63.439 548.9 75.353V128H517.344V79.539C517.344 74.709 516.003 70.9523 513.319 68.269C510.636 65.5857 506.987 64.244 502.371 64.244C497.756 64.244 494.107 65.5857 491.423 68.269C488.74 70.9523 487.398 74.709 487.398 79.539V128H455.842V79.539C455.842 74.709 454.501 70.9523 451.817 68.269C449.241 65.5857 445.646 64.244 441.03 64.244C436.308 64.244 432.605 65.5857 429.921 68.269C427.238 70.9523 425.896 74.709 425.896 79.539V128H394.34V37.679H425.896V49.593C428.687 45.729 432.283 42.67 436.683 40.416C441.191 38.0547 446.343 36.874 452.139 36.874C458.794 36.874 464.697 38.323 469.849 41.221C475.109 44.119 479.241 48.1977 482.246 53.457C485.466 48.5197 489.706 44.5483 494.965 41.543C500.225 38.4303 506.021 36.874 512.353 36.874ZM561.037 82.759C561.037 73.421 562.701 65.2637 566.028 58.287C569.463 51.3103 574.078 45.9437 579.874 42.187C585.777 38.4303 592.325 36.552 599.516 36.552C605.741 36.552 611.108 37.7863 615.616 40.255C620.124 42.7237 623.612 46.051 626.081 50.237V37.679H657.637V128H626.081V115.442C623.612 119.628 620.07 122.955 615.455 125.424C610.947 127.893 605.634 129.127 599.516 129.127C592.325 129.127 585.777 127.249 579.874 123.492C574.078 119.735 569.463 114.369 566.028 107.392C562.701 100.308 561.037 92.097 561.037 82.759ZM626.081 82.759C626.081 76.963 624.471 72.4013 621.251 69.074C618.138 65.7467 614.274 64.083 609.659 64.083C604.936 64.083 601.019 65.7467 597.906 69.074C594.793 72.294 593.237 76.8557 593.237 82.759C593.237 88.555 594.793 93.1703 597.906 96.605C601.019 99.9323 604.936 101.596 609.659 101.596C614.274 101.596 618.138 99.9323 621.251 96.605C624.471 93.2777 626.081 88.6623 626.081 82.759ZM707.175 8.86V128H675.619V8.86H707.175ZM872.096 54.262V103.367C872.096 106.694 872.848 109.109 874.35 110.612C875.96 112.007 878.644 112.705 882.4 112.705H893.67V128H879.18C870.916 128 864.583 126.068 860.182 122.204C855.782 118.34 853.581 112.061 853.581 103.367V54.262H843.116V39.289H853.581V17.232H872.096V39.289H893.67V54.262H872.096ZM904.469 83.242C904.469 74.3333 906.293 66.4443 909.943 59.575C913.699 52.7057 918.744 47.3927 925.077 43.636C931.517 39.772 938.601 37.84 946.329 37.84C953.305 37.84 959.37 39.2353 964.522 42.026C969.781 44.7093 973.967 48.0903 977.08 52.169V39.289H995.595V128H977.08V114.798C973.967 118.984 969.727 122.472 964.361 125.263C958.994 128.054 952.876 129.449 946.007 129.449C938.386 129.449 931.409 127.517 925.077 123.653C918.744 119.682 913.699 114.208 909.943 107.231C906.293 100.147 904.469 92.1507 904.469 83.242ZM977.08 83.564C977.08 77.446 975.792 72.133 973.216 67.625C970.747 63.117 967.473 59.6823 963.395 57.321C959.316 54.9597 954.915 53.779 950.193 53.779C945.47 53.779 941.069 54.9597 936.991 57.321C932.912 59.575 929.585 62.956 927.009 67.464C924.54 71.8647 923.306 77.124 923.306 83.242C923.306 89.36 924.54 94.7267 927.009 99.342C929.585 103.957 932.912 107.499 936.991 109.968C941.177 112.329 945.577 113.51 950.193 113.51C954.915 113.51 959.316 112.329 963.395 109.968C967.473 107.607 970.747 104.172 973.216 99.664C975.792 95.0487 977.08 89.682 977.08 83.564ZM1038.06 8.86V128H1019.7V8.86H1038.06Z" fill="#595DD9"/>
<path d="M814.661 128L800.815 114.154C795.448 119.521 789.599 123.546 783.266 126.229C776.933 128.805 769.849 130.093 762.014 130.093C754.071 130.093 747.041 128.698 740.923 125.907C734.805 123.116 730.082 119.145 726.755 113.993C723.428 108.734 721.764 102.669 721.764 95.8C721.764 88.072 723.964 81.2027 728.365 75.192C732.766 69.074 739.313 64.244 748.007 60.702C744.894 56.9453 742.694 53.457 741.406 50.237C740.118 46.9097 739.474 43.2603 739.474 39.289C739.474 34.3517 740.708 29.951 743.177 26.087C745.753 22.223 749.402 19.164 754.125 16.91C758.848 14.656 764.322 13.529 770.547 13.529C776.88 13.529 782.246 14.7633 786.647 17.232C791.155 19.5933 794.482 22.867 796.629 27.053C798.883 31.239 799.795 35.908 799.366 41.06H781.012C781.119 37.0887 780.153 34.0297 778.114 31.883C776.075 29.629 773.284 28.502 769.742 28.502C766.2 28.502 763.302 29.5753 761.048 31.722C758.901 33.7613 757.828 36.2837 757.828 39.289C757.828 42.187 758.633 45.085 760.243 47.983C761.96 50.7737 764.912 54.423 769.098 58.931L798.722 88.394L810.153 69.557H829.956L815.466 94.351L811.441 100.952L838.65 128H814.661ZM762.014 114.476C772.103 114.476 781.012 110.344 788.74 102.079L759.116 72.294C746.451 77.3387 740.118 84.9593 740.118 95.156C740.118 100.63 742.157 105.245 746.236 109.002C750.315 112.651 755.574 114.476 762.014 114.476Z" fill="#7AD1FF"/>
</svg>
