<svg width="184" height="68" viewBox="0 0 184 68" fill="none" xmlns="http://www.w3.org/2000/svg">
<g filter="url(#filter0_d)">
<mask id="path-1-outside-1" maskUnits="userSpaceOnUse" x="20" y="12.2086" width="144" height="28" fill="black">
<rect fill="white" x="20" y="12.2086" width="144" height="28"/>
<path d="M25 34.0362H27.9897V18.922H25V34.0362ZM39.2296 34.0362H42.2193V26.9991C42.2193 23.6863 40.2546 21.8676 37.4998 21.8676C35.9836 21.8676 34.7022 22.5171 33.9334 23.5349V22.0409H30.9437V34.0362H33.9334V27.4105C33.9334 25.4835 34.9798 24.4441 36.6028 24.4441C38.183 24.4441 39.2296 25.4833 39.2296 27.4105V34.0362ZM45.3828 34.0362H48.4149V24.5309H50.4864V22.0409H48.4149V21.5419C48.4149 20.1994 48.907 19.7232 50.3582 19.7664V17.2125C47.0272 17.1259 45.3828 18.4899 45.3828 21.4346V22.0407H44.0373V24.5309H45.3828V34.0362ZM63.8492 28.0386C63.8492 24.2495 61.1798 21.8461 57.763 21.8461C54.3462 21.8461 51.6768 24.2495 51.6768 28.0386C51.6768 31.8059 54.2608 34.231 57.6776 34.231C61.1158 34.231 63.8492 31.8059 63.8492 28.0386ZM54.7091 28.0386C54.7091 25.6352 56.14 24.4877 57.7202 24.4877C59.3004 24.4877 60.7741 25.6352 60.7741 28.0386C60.7741 30.4203 59.2579 31.5894 57.6776 31.5894C56.0753 31.5894 54.7091 30.4205 54.7091 28.0386ZM69.032 28.0603C69.032 25.7434 70.0998 25.0507 71.8724 25.0507H72.6626V21.8676C71.9337 21.8492 71.2131 22.0281 70.575 22.3858C69.937 22.7435 69.4044 23.2671 69.0322 23.9028V22.0409H66.0425V34.0362H69.0322L69.032 28.0603ZM91.227 34.0362H94.2167V26.9991C94.2167 23.6863 92.2094 21.8676 89.369 21.8676C88.5542 21.8593 87.7514 22.0667 87.0398 22.4692C86.3283 22.8717 85.7326 23.4554 85.3115 24.1627C84.5001 22.6688 82.9839 21.8676 81.1473 21.8676C79.6738 21.8676 78.4137 22.4954 77.6663 23.4915V22.0409H74.6766V34.0362H77.6659V27.4105C77.6659 25.505 78.7122 24.5092 80.3352 24.5092C81.9155 24.5092 82.9621 25.5052 82.9621 27.4105V34.0362H85.9518V27.4105C85.9518 25.505 86.9981 24.5092 88.5998 24.5092C90.18 24.5092 91.2266 25.5052 91.2266 27.4105L91.227 34.0362ZM96.285 27.9952C96.285 31.7411 98.6769 34.231 101.667 34.231C103.546 34.231 104.891 33.3216 105.596 32.2824V34.0362H108.607V22.0409H105.596V23.7514C104.891 22.7554 103.589 21.8459 101.688 21.8459C98.6769 21.8459 96.285 24.2493 96.285 27.9952ZM105.596 28.0386C105.596 30.312 104.101 31.5679 102.457 31.5679C100.855 31.5679 99.3387 30.2688 99.3387 27.9954C99.3387 25.722 100.855 24.5094 102.457 24.5094C104.101 24.5092 105.596 25.7651 105.596 28.0386ZM111.527 34.0362H114.517V18.0137H111.527L111.527 34.0362ZM133.728 30.312C133.728 33.0619 135.245 34.0362 137.508 34.0362H139.388V31.4812H138C137.06 31.4812 136.74 31.134 136.74 30.3337V24.5309H139.388V22.0409H136.738V19.0739H133.728V22.0409H132.319V24.5309H133.728V30.312ZM140.768 27.9952C140.768 31.7411 143.16 34.231 146.15 34.231C148.029 34.231 149.375 33.3216 150.079 32.2824V34.0362H153.09V22.0409H150.08V23.7514C149.375 22.7554 148.073 21.8459 146.172 21.8459C143.161 21.8459 140.768 24.2493 140.768 27.9952ZM150.079 28.0386C150.079 30.312 148.584 31.5679 146.94 31.5679C145.338 31.5679 143.822 30.2688 143.822 27.9954C143.822 25.722 145.338 24.5094 146.94 24.5094C148.585 24.5092 150.079 25.7651 150.079 28.0386ZM156.01 34.0362H159V18.0137H156.011L156.01 34.0362Z"/>
</mask>
<path d="M25 34.0362H27.9897V18.922H25V34.0362ZM39.2296 34.0362H42.2193V26.9991C42.2193 23.6863 40.2546 21.8676 37.4998 21.8676C35.9836 21.8676 34.7022 22.5171 33.9334 23.5349V22.0409H30.9437V34.0362H33.9334V27.4105C33.9334 25.4835 34.9798 24.4441 36.6028 24.4441C38.183 24.4441 39.2296 25.4833 39.2296 27.4105V34.0362ZM45.3828 34.0362H48.4149V24.5309H50.4864V22.0409H48.4149V21.5419C48.4149 20.1994 48.907 19.7232 50.3582 19.7664V17.2125C47.0272 17.1259 45.3828 18.4899 45.3828 21.4346V22.0407H44.0373V24.5309H45.3828V34.0362ZM63.8492 28.0386C63.8492 24.2495 61.1798 21.8461 57.763 21.8461C54.3462 21.8461 51.6768 24.2495 51.6768 28.0386C51.6768 31.8059 54.2608 34.231 57.6776 34.231C61.1158 34.231 63.8492 31.8059 63.8492 28.0386ZM54.7091 28.0386C54.7091 25.6352 56.14 24.4877 57.7202 24.4877C59.3004 24.4877 60.7741 25.6352 60.7741 28.0386C60.7741 30.4203 59.2579 31.5894 57.6776 31.5894C56.0753 31.5894 54.7091 30.4205 54.7091 28.0386ZM69.032 28.0603C69.032 25.7434 70.0998 25.0507 71.8724 25.0507H72.6626V21.8676C71.9337 21.8492 71.2131 22.0281 70.575 22.3858C69.937 22.7435 69.4044 23.2671 69.0322 23.9028V22.0409H66.0425V34.0362H69.0322L69.032 28.0603ZM91.227 34.0362H94.2167V26.9991C94.2167 23.6863 92.2094 21.8676 89.369 21.8676C88.5542 21.8593 87.7514 22.0667 87.0398 22.4692C86.3283 22.8717 85.7326 23.4554 85.3115 24.1627C84.5001 22.6688 82.9839 21.8676 81.1473 21.8676C79.6738 21.8676 78.4137 22.4954 77.6663 23.4915V22.0409H74.6766V34.0362H77.6659V27.4105C77.6659 25.505 78.7122 24.5092 80.3352 24.5092C81.9155 24.5092 82.9621 25.5052 82.9621 27.4105V34.0362H85.9518V27.4105C85.9518 25.505 86.9981 24.5092 88.5998 24.5092C90.18 24.5092 91.2266 25.5052 91.2266 27.4105L91.227 34.0362ZM96.285 27.9952C96.285 31.7411 98.6769 34.231 101.667 34.231C103.546 34.231 104.891 33.3216 105.596 32.2824V34.0362H108.607V22.0409H105.596V23.7514C104.891 22.7554 103.589 21.8459 101.688 21.8459C98.6769 21.8459 96.285 24.2493 96.285 27.9952ZM105.596 28.0386C105.596 30.312 104.101 31.5679 102.457 31.5679C100.855 31.5679 99.3387 30.2688 99.3387 27.9954C99.3387 25.722 100.855 24.5094 102.457 24.5094C104.101 24.5092 105.596 25.7651 105.596 28.0386ZM111.527 34.0362H114.517V18.0137H111.527L111.527 34.0362ZM133.728 30.312C133.728 33.0619 135.245 34.0362 137.508 34.0362H139.388V31.4812H138C137.06 31.4812 136.74 31.134 136.74 30.3337V24.5309H139.388V22.0409H136.738V19.0739H133.728V22.0409H132.319V24.5309H133.728V30.312ZM140.768 27.9952C140.768 31.7411 143.16 34.231 146.15 34.231C148.029 34.231 149.375 33.3216 150.079 32.2824V34.0362H153.09V22.0409H150.08V23.7514C149.375 22.7554 148.073 21.8459 146.172 21.8459C143.161 21.8459 140.768 24.2493 140.768 27.9952ZM150.079 28.0386C150.079 30.312 148.584 31.5679 146.94 31.5679C145.338 31.5679 143.822 30.2688 143.822 27.9954C143.822 25.722 145.338 24.5094 146.94 24.5094C148.585 24.5092 150.079 25.7651 150.079 28.0386ZM156.01 34.0362H159V18.0137H156.011L156.01 34.0362Z" fill="#595DD9"/>
<path d="M25 34.0362H27.9897V18.922H25V34.0362ZM39.2296 34.0362H42.2193V26.9991C42.2193 23.6863 40.2546 21.8676 37.4998 21.8676C35.9836 21.8676 34.7022 22.5171 33.9334 23.5349V22.0409H30.9437V34.0362H33.9334V27.4105C33.9334 25.4835 34.9798 24.4441 36.6028 24.4441C38.183 24.4441 39.2296 25.4833 39.2296 27.4105V34.0362ZM45.3828 34.0362H48.4149V24.5309H50.4864V22.0409H48.4149V21.5419C48.4149 20.1994 48.907 19.7232 50.3582 19.7664V17.2125C47.0272 17.1259 45.3828 18.4899 45.3828 21.4346V22.0407H44.0373V24.5309H45.3828V34.0362ZM63.8492 28.0386C63.8492 24.2495 61.1798 21.8461 57.763 21.8461C54.3462 21.8461 51.6768 24.2495 51.6768 28.0386C51.6768 31.8059 54.2608 34.231 57.6776 34.231C61.1158 34.231 63.8492 31.8059 63.8492 28.0386ZM54.7091 28.0386C54.7091 25.6352 56.14 24.4877 57.7202 24.4877C59.3004 24.4877 60.7741 25.6352 60.7741 28.0386C60.7741 30.4203 59.2579 31.5894 57.6776 31.5894C56.0753 31.5894 54.7091 30.4205 54.7091 28.0386ZM69.032 28.0603C69.032 25.7434 70.0998 25.0507 71.8724 25.0507H72.6626V21.8676C71.9337 21.8492 71.2131 22.0281 70.575 22.3858C69.937 22.7435 69.4044 23.2671 69.0322 23.9028V22.0409H66.0425V34.0362H69.0322L69.032 28.0603ZM91.227 34.0362H94.2167V26.9991C94.2167 23.6863 92.2094 21.8676 89.369 21.8676C88.5542 21.8593 87.7514 22.0667 87.0398 22.4692C86.3283 22.8717 85.7326 23.4554 85.3115 24.1627C84.5001 22.6688 82.9839 21.8676 81.1473 21.8676C79.6738 21.8676 78.4137 22.4954 77.6663 23.4915V22.0409H74.6766V34.0362H77.6659V27.4105C77.6659 25.505 78.7122 24.5092 80.3352 24.5092C81.9155 24.5092 82.9621 25.5052 82.9621 27.4105V34.0362H85.9518V27.4105C85.9518 25.505 86.9981 24.5092 88.5998 24.5092C90.18 24.5092 91.2266 25.5052 91.2266 27.4105L91.227 34.0362ZM96.285 27.9952C96.285 31.7411 98.6769 34.231 101.667 34.231C103.546 34.231 104.891 33.3216 105.596 32.2824V34.0362H108.607V22.0409H105.596V23.7514C104.891 22.7554 103.589 21.8459 101.688 21.8459C98.6769 21.8459 96.285 24.2493 96.285 27.9952ZM105.596 28.0386C105.596 30.312 104.101 31.5679 102.457 31.5679C100.855 31.5679 99.3387 30.2688 99.3387 27.9954C99.3387 25.722 100.855 24.5094 102.457 24.5094C104.101 24.5092 105.596 25.7651 105.596 28.0386ZM111.527 34.0362H114.517V18.0137H111.527L111.527 34.0362ZM133.728 30.312C133.728 33.0619 135.245 34.0362 137.508 34.0362H139.388V31.4812H138C137.06 31.4812 136.74 31.134 136.74 30.3337V24.5309H139.388V22.0409H136.738V19.0739H133.728V22.0409H132.319V24.5309H133.728V30.312ZM140.768 27.9952C140.768 31.7411 143.16 34.231 146.15 34.231C148.029 34.231 149.375 33.3216 150.079 32.2824V34.0362H153.09V22.0409H150.08V23.7514C149.375 22.7554 148.073 21.8459 146.172 21.8459C143.161 21.8459 140.768 24.2493 140.768 27.9952ZM150.079 28.0386C150.079 30.312 148.584 31.5679 146.94 31.5679C145.338 31.5679 143.822 30.2688 143.822 27.9954C143.822 25.722 145.338 24.5094 146.94 24.5094C148.585 24.5092 150.079 25.7651 150.079 28.0386ZM156.01 34.0362H159V18.0137H156.011L156.01 34.0362Z" stroke="#FAFAFC" stroke-width="10" stroke-linejoin="round" mask="url(#path-1-outside-1)"/>
<path d="M128.54 35.2861L128.172 34.909L127.081 33.7903C126.543 34.2226 125.955 34.5905 125.328 34.8854L125.305 34.8964L125.281 34.9065C124.242 35.344 123.126 35.562 122 35.547C120.881 35.5648 119.771 35.3346 118.75 34.8729L118.741 34.8688L118.741 34.8688C117.773 34.422 116.953 33.706 116.376 32.8071L116.366 32.7907L116.356 32.774C115.801 31.8484 115.518 30.784 115.537 29.7043C115.52 28.4446 115.911 27.212 116.654 26.1967L116.658 26.1916L116.658 26.1916C117.135 25.5463 117.737 25.0075 118.442 24.5653C118.346 24.3941 118.257 24.2191 118.174 24.0406L118.165 24.0214L118.157 24.0019C117.888 23.3692 117.753 22.6877 117.758 22.0004C117.749 21.1651 117.976 20.3434 118.414 19.6323L118.42 19.6232L118.426 19.6141C118.893 18.8846 119.557 18.3031 120.342 17.9405L128.54 35.2861ZM128.54 35.2861H129.067H131.609H134.599L132.499 33.1581L129.852 30.4752C129.974 30.2765 130.089 30.0805 130.198 29.8873L131.947 26.8165L133.011 24.9478H130.86H128.769H128.054L127.691 25.564L126.699 27.2509M128.54 35.2861L126.699 27.2509M126.699 27.2509L123.382 23.8713L123.38 23.8701C123 23.4835 122.658 23.0591 122.361 22.6031C122.258 22.4175 122.202 22.207 122.201 21.9915L122.201 21.9743L122.2 21.9571C122.199 21.9042 122.208 21.8521 122.228 21.8044M126.699 27.2509L120.343 17.9403C121.156 17.5648 122.042 17.3771 122.936 17.3912C123.83 17.3744 124.713 17.5775 125.511 17.9823L125.517 17.9854L125.517 17.9854C126.296 18.3858 126.93 19.0193 127.335 19.796C127.729 20.5491 127.91 21.3963 127.86 22.2451L127.791 23.4217H126.612H124.669H123.311L123.423 22.068C123.43 21.9913 123.419 21.9144 123.394 21.8427C123.37 21.7747 123.333 21.7137 123.286 21.6629C123.234 21.6135 123.174 21.5755 123.11 21.5503C123.043 21.5238 122.971 21.5117 122.9 21.5144L122.849 21.5163L122.799 21.5141C122.622 21.5065 122.446 21.5671 122.307 21.6881C122.274 21.7199 122.247 21.7593 122.228 21.8044M122.228 21.8044L121.074 21.3242L122.228 21.8044ZM121.191 27.7906L124.053 30.7058C123.882 30.8267 123.703 30.9352 123.516 31.0306C123.047 31.254 122.535 31.3655 122.018 31.3572L121.982 31.3566L121.946 31.3581C121.407 31.3808 120.878 31.1952 120.465 30.8346C120.31 30.69 120.186 30.5129 120.102 30.3141C120.017 30.1116 119.975 29.8921 119.98 29.6707L119.981 29.6557V29.6407C119.981 29.1446 120.121 28.7659 120.383 28.4437C120.562 28.2242 120.822 28.0017 121.191 27.7906Z" fill="#7AD1FF" stroke="#FAFAFC" stroke-width="2.5"/>
</g>
<defs>
<filter id="filter0_d" x="0" y="0.208649" width="184" height="67.0224" filterUnits="userSpaceOnUse" color-interpolation-filters="sRGB">
<feFlood flood-opacity="0" result="BackgroundImageFix"/>
<feColorMatrix in="SourceAlpha" type="matrix" values="0 0 0 0 0 0 0 0 0 0 0 0 0 0 0 0 0 0 127 0"/>
<feOffset dy="8"/>
<feGaussianBlur stdDeviation="10"/>
<feColorMatrix type="matrix" values="0 0 0 0 0 0 0 0 0 0 0 0 0 0 0 0 0 0 0.05 0"/>
<feBlend mode="normal" in2="BackgroundImageFix" result="effect1_dropShadow"/>
<feBlend mode="normal" in="SourceGraphic" in2="effect1_dropShadow" result="shape"/>
</filter>
</defs>
</svg>
