<svg width="291" height="289" viewBox="0 0 291 289" fill="none" xmlns="http://www.w3.org/2000/svg">
<g style="mix-blend-mode:multiply" opacity="0.1">
<path d="M248.477 178.427C293.191 134.236 243.546 93.3008 213.134 78.3568C192.458 52.2203 142.927 4.25261 110.215 21.4739C77.5025 38.6953 116.383 89.1468 139.912 112.22C105.864 113.536 36.0185 126.07 29.0131 165.674C22.0078 205.277 109.149 225.572 153.596 230.768C166.592 231.734 203.763 222.618 248.477 178.427Z" fill="#595DD9"/>
<path d="M248.477 178.427C293.191 134.236 243.546 93.3008 213.134 78.3568C192.458 52.2203 142.927 4.25261 110.215 21.4739C77.5025 38.6953 116.383 89.1468 139.912 112.22C105.864 113.536 36.0185 126.07 29.0131 165.674C22.0078 205.277 109.149 225.572 153.596 230.768C166.592 231.734 203.763 222.618 248.477 178.427Z" stroke="#E5E5F1"/>
</g>
<path fill-rule="evenodd" clip-rule="evenodd" d="M105.866 53.1465C105.629 57.0299 105.392 60.913 105.154 64.7963C106.681 64.3561 116.396 61.4953 115.796 64.396C115.366 66.4764 112.634 68.727 111.243 70.1754C109.962 71.5091 108.643 72.8077 107.291 74.0686C109.777 73.1164 112.283 72.2145 114.807 71.3708C116.717 70.7325 118.642 70.1093 120.599 69.6309C121.325 69.4531 123.287 68.728 123.974 69.2225C125.777 70.5215 115.991 80.0898 114.651 81.4385C116.546 80.5563 118.487 79.7549 120.461 79.0672C121.886 78.5707 126.289 76.6732 127.551 78.2935C128.901 80.0271 125.556 84.0082 124.629 85.2704C123.3 87.079 121.86 88.814 120.349 90.4731C126.629 96.1188 134.009 101.144 141.864 104.267C147.623 106.557 153.28 107.14 159.357 105.883C165.6 104.592 171.587 102.116 177.279 99.2848C180.621 97.6219 183.92 95.8228 187.062 93.8015C185.767 92.2243 184.509 90.6145 183.287 88.9799C181.543 86.6461 179.399 84.096 178.405 81.3178C177.431 78.5987 181.083 79.1295 182.834 79.2772C185.371 79.491 187.9 79.9449 190.386 80.4877C188.628 79.2643 186.903 77.9919 185.212 76.6782C183.008 74.9662 180.068 73.0303 178.625 70.5673C177.357 68.4015 180.141 68.9485 181.428 69.2323C184.498 69.9091 187.484 71.0622 190.411 72.1869C192.555 73.0107 194.686 73.8733 196.796 74.7818C195.486 73.6423 194.221 72.4483 193.004 71.2102C191.369 69.5462 189.164 67.514 188.43 65.2226C186.938 60.556 196.981 64.0761 198.695 64.7963C198.378 59.9621 198.062 55.128 197.746 50.2938C184.447 53.8352 171.149 57.3771 157.85 60.9189C156.413 61.3018 154.615 62.1353 153.116 62.1798C151.758 62.2204 150.118 61.6087 148.795 61.3556L124.73 56.7538C118.442 55.5514 112.154 54.349 105.866 53.1465Z" fill="#9AB3F5"/>
<path fill-rule="evenodd" clip-rule="evenodd" d="M248.796 219.42C247.36 220.242 245.678 220.877 244.083 221.303C243.146 221.553 241.599 222.326 240.776 221.618C240.381 221.277 240.29 220.505 240.057 220.057C239.688 219.349 239.164 218.737 238.672 218.11C237.482 216.592 236.243 215.128 234.946 213.7C234.332 213.023 233.21 211.443 232.127 211.547C230.778 211.677 230.81 213.546 231.148 214.501C232.225 217.541 235.484 220.191 237.613 222.482C237.071 223.316 234.099 223.216 233.274 223.021C232.013 222.723 231.886 221.825 231.311 220.798C229.965 218.397 227.236 217.054 224.993 215.643C224.175 215.127 222.437 213.701 221.371 214.06C220.361 214.4 220.404 215.692 220.726 216.535C221.212 217.81 222.595 218.694 223.617 219.499C224.98 220.573 226.227 221.741 227.363 223.056C225.725 223.19 224.094 223.421 222.46 223.555C220.485 223.718 218.839 222.634 217.02 222.019C215.33 221.447 213.646 220.964 211.985 220.306C210.119 219.566 208.165 219.309 206.283 218.66C198.898 216.114 191.662 212.913 184.545 209.685C181.154 208.147 177.832 206.608 174.299 205.405C171.724 204.527 167.677 202.779 167.061 199.709C166.736 198.087 167.92 196.343 168.095 194.722C168.3 192.815 168.138 190.718 167.558 188.888C167.047 187.277 166.199 185.785 165.531 184.237C164.753 182.434 165.449 182.463 166.961 182.258C168.771 182.013 170.883 180.993 172.583 180.329C174.543 179.564 176.485 178.495 178.28 177.396C179.903 176.401 181.315 175.12 182.607 173.728C183.922 172.312 184.773 170.634 186.044 169.184C190.734 174.957 195.192 180.817 200.176 186.341C202.528 188.948 205.086 191.104 207.984 193.086C209.195 193.915 210.396 194.86 211.714 195.514C213.363 196.334 215.207 196.842 216.902 197.589C223.401 200.455 229.603 203.588 235.666 207.286C238.599 209.074 241.06 211.125 243.643 213.369C244.447 214.068 251.032 218.139 248.796 219.42ZM172.561 172.125C171.511 172.601 170.509 173.22 169.389 173.525C169.707 171.591 171.51 168.673 173.822 168.994C174.706 169.117 175.372 169.803 174.984 170.75C174.631 171.61 173.309 171.786 172.561 172.125ZM99.4598 119.66C98.269 120.318 97.1597 120.701 96.4616 119.289C96.9787 119.185 99.3277 118.872 99.4598 119.66ZM97.4773 115.668C96.5574 115.389 97.2932 115.095 97.6097 114.758C97.8564 114.496 98.673 113.576 98.9588 113.424C100.221 112.755 101.196 115.245 101.8 116.053C100.371 115.926 98.8683 116.09 97.4773 115.668ZM107.315 124.288C105.571 124.584 105.765 122.4 105.817 121.294C106.185 121.744 108.675 124.058 107.315 124.288ZM113.094 120.517C110.968 120.876 109.563 117.199 109.945 115.591C110.28 114.174 111.928 113.384 113.239 113.175C114.511 112.972 116.281 113.248 116.659 114.716C116.992 116.013 114.511 120.277 113.094 120.517ZM163.423 176.016C161.895 176.486 160.398 176.545 158.862 177.006C157.12 177.53 155.507 177.483 153.761 177.839C153.051 177.984 151.135 179.02 150.442 178.788C149.756 178.559 148.762 176.428 148.368 175.873C151.457 174.588 154.092 172.929 156.128 170.221C157.747 168.068 159.483 164.842 158.465 162.063C157.316 158.93 153.356 158.249 150.716 159.558C149.467 160.177 148.229 160.946 147.199 161.89C146.022 162.968 145.559 164.145 144.796 165.475C144.025 166.82 143.484 166.072 142.713 164.93C142.054 163.953 142.14 162.967 141.317 162.004C140.897 161.513 140.247 161.038 140.028 160.404C139.889 160.001 140.181 159.288 139.918 158.97C139.547 158.525 139.097 159.049 138.786 158.651C138.561 158.362 138.634 157.704 138.401 157.343C138.199 157.137 137.975 156.962 137.726 156.816C137.425 156.667 137.37 156.481 137.561 156.257C137.321 155.813 137.552 155.663 137.039 155.123C136.239 154.281 135.509 153.474 134.94 152.48C134.679 152.025 134.705 151.35 134.382 150.956C133.938 150.416 133.199 150.497 132.817 149.828C132.477 149.231 132.705 148.188 132.144 147.647C131.849 147.563 131.553 147.48 131.257 147.398C131.035 147.182 130.905 146.919 130.868 146.61C130.557 146.13 130.495 145.567 130.102 145.06C129.349 144.091 128.338 143.195 127.673 142.174C126.975 141.099 127.345 140.919 128.558 140.534C129.653 140.187 130.652 139.865 131.666 139.274C136.356 136.543 140.802 129.298 133.358 127.084C130.596 126.263 128.327 124.054 125.264 124.922C123.936 125.298 122.677 126.1 121.686 127.051C121.002 127.708 120.368 129.467 119.527 129.804C118.017 130.409 118.655 128.896 118.227 128.201C118.022 127.869 117.198 127.487 116.892 127.185C116.534 126.831 116.187 126.384 115.938 125.947C115.477 125.134 115.194 124.681 114.528 124.019C114.276 123.769 113.022 122.479 114.153 122.647C113.695 121.25 114.364 121.04 115.288 120.02C116.372 118.821 117.493 117.155 117.499 115.476C117.511 112.251 113.694 110.807 111.296 112.721C110.808 113.11 107.923 116.87 108.513 114.472C108.831 113.179 111.779 109.803 113.145 110.677C111.614 108.443 108.096 113.867 107.275 114.977C106.576 113.688 106.526 112.68 105.37 111.683C104.428 113.195 104.925 111.543 104.718 111.207C104.269 110.482 104.515 111.311 104.272 111.053C103.969 110.733 103.492 110.48 103.17 110.055C102.618 110.804 102.838 109.998 102.669 109.718C102.274 109.063 102.427 108.683 101.749 108.114C101.256 107.7 100.284 107.057 99.6202 106.998C98.8546 106.931 98.6426 107.224 97.8627 107.007C96.8704 106.731 95.6217 106.307 96.1021 107.967C96.4508 109.174 97.8686 109.86 98.1792 111.094C98.492 112.335 97.2656 113.586 96.6706 114.604C95.9064 115.91 95.2817 115.803 93.8974 116.097C93.0127 116.285 91.8321 116.688 92.5906 117.762C93.1325 118.529 94.4023 118.368 95.1175 118.822C96.1203 119.46 96.1063 121.031 97.3865 121.304C98.7963 121.605 99.6041 120.034 100.793 119.655C101.638 119.385 104.256 119.415 104.922 120.05C105.828 120.916 105.045 122.569 105.273 123.645C105.612 125.239 106.69 125.336 108.053 125.387C109.731 125.45 110.321 127.063 111.224 128.342C113.338 131.338 115.175 134.532 117.34 137.488C118.298 138.797 119.7 139.961 120.485 141.382C121.454 143.136 120.109 144.148 118.948 145.407C117.431 147.052 116.298 148.925 114.982 150.723C113.813 152.321 112.36 151.924 110.491 151.924C110.907 151.064 111.409 150.529 112.433 150.633C111.362 149.324 110.505 150.821 109.81 151.651C108.805 152.85 107.494 153.14 106.203 153.929C105.746 154.207 103.257 156.016 104.013 156.634C104.099 156.704 108.218 153.992 108.688 153.743C108.688 154.745 108.469 155.785 108.609 156.78C108.712 157.51 109.225 158.272 109.115 159.031C108.908 160.464 107.058 161.592 106.264 162.709C105.666 163.549 105.81 164.212 105.506 165.114C105.229 165.937 105.374 165.688 104.683 165.942C103.275 166.459 100.905 166.18 99.6303 165.444C98.8389 164.987 98.232 164.265 97.5891 163.629C97.1049 163.149 95.8869 162.33 95.7523 161.659C95.5214 160.503 97.8138 158.356 98.2677 157.164C99.5489 153.8 97.3515 151.185 93.9323 150.994C94.9861 150.18 96.2925 150.793 97.4032 151.104C95.5043 148.47 92.2612 150.637 90.6504 152.427C89.5498 149.642 89.0191 146.705 88.3469 143.801C87.8888 141.824 86.1456 138.295 86.9231 136.259C87.299 135.275 88.3601 134.727 89.0942 134.044C89.9282 133.269 90.6424 132.342 91.2521 131.382C92.6888 129.12 93.5183 126.266 91.5403 124.038C92.1413 123.939 92.7426 123.84 93.3436 123.741C92.366 122.822 90.8237 123.27 89.5551 122.997C88.7501 122.824 86.4339 122.936 85.8965 122.48C85.2501 121.932 85.6645 119.41 85.6876 118.663C85.7407 116.919 85.8864 115.241 86.0789 113.507C86.2613 111.869 86.2246 110.099 86.5628 108.49C86.8375 107.184 87.7148 106.786 88.7273 106.016C91.1473 104.176 93.1193 101.937 92.2929 98.7658C92.5857 98.7192 92.8785 98.6727 93.1713 98.6262C92.2245 97.9409 90.9991 98.1901 89.946 97.8279C90.9132 95.1034 93.0522 90.3141 96.5252 90.0562C96.6447 91.2741 96.5629 92.7226 97.384 93.7308C98.3187 94.8784 99.9594 94.9942 101.226 94.387C102.374 93.8355 103.453 92.6669 103.983 91.5124C104.341 90.7309 104.276 89.4094 104.905 88.79C105.749 87.9592 111.563 88.4603 111.385 89.8627C111.28 90.6872 109.725 92.073 109.291 92.8038C108.496 94.141 107.859 95.5874 107.567 97.1234C107.123 99.4556 107.38 102.535 109.747 103.761C112.438 105.156 115.718 103.382 117.925 101.85C119.138 101.009 120.312 100.08 121.419 99.1053C122.009 98.5866 122.601 98.0519 123.121 97.4618C123.505 97.0261 123.811 96.3237 124.284 95.9976C125.4 95.2269 126.494 96.5344 127.438 97.1948C128.977 98.2706 130.507 99.2921 132.159 100.187C135.509 102.004 138.573 104.41 141.536 106.8C144.516 109.203 147.588 111.676 150.002 114.67C148.54 115.57 148.801 115.804 148.15 117.41C147.689 118.549 147.053 119.519 146.98 120.785C146.853 122.97 148.254 124.832 150.381 125.316C151.571 125.586 152.705 125.37 153.807 124.883C154.663 124.504 155.517 123.573 156.412 123.342C158.075 122.912 159.406 126.058 160.339 127.166C164.48 132.086 168.858 136.812 172.757 141.933C173.189 142.501 174.472 143.609 174.576 144.36C174.726 145.438 173.031 146.466 172.328 147.084C171.959 147.409 168.043 151.095 169.358 151.681C169.733 151.848 170.83 149.586 171.104 149.393C172.131 148.669 171.354 150.088 171.293 150.805C171.14 152.589 172.364 153.561 174.085 153.335C175.921 153.094 177.555 151.643 178.691 150.273C180.115 151.923 182.341 154.418 182.752 156.623C183.015 158.032 181.798 161.479 184.071 161.766C184.418 161.81 185.674 160.877 185.908 161.407C186.103 161.849 184.746 162.604 184.55 162.75C183.713 163.375 183.208 164.045 182.533 164.802C181.74 165.69 180.656 166.439 179.764 167.29C178.824 168.187 176.966 170.623 175.726 169.446C175.102 168.855 175.266 168.081 174.268 167.734C173.359 167.418 172.207 167.819 171.362 168.17C170.411 168.564 167.279 170.004 166.931 171.19C166.452 172.825 169.041 170.859 169.501 170.572C168.976 171.906 168.686 173.836 167.349 174.614C166.238 175.261 164.641 175.641 163.423 176.016ZM145.667 165.929C146.556 163.069 151.798 157.97 155.112 159.565C151.25 160.375 148.186 163.02 145.667 165.929ZM147.627 174.117C146.335 173.397 146.405 171.303 145.954 170.079C145.695 169.376 145.177 168.863 145.329 168.083C145.508 167.169 146.673 166.152 147.293 165.493C149.244 163.418 152.679 160.582 155.82 161.058C159.819 161.663 157.108 167.036 155.747 168.886C154.586 170.463 150.115 175.505 147.627 174.117ZM138.3 170.62C133.975 170.331 129.666 169.944 125.401 169.15C123.889 168.868 122.622 168.91 123.487 167.17C123.773 166.596 125.495 162.996 125.884 163.099C126.115 163.161 126.062 165.635 126.13 165.918C126.435 167.192 127.292 168.378 128.738 168.297C131.103 168.165 132.627 165.105 133.873 163.462C134.87 164.805 135.592 166.296 136.595 167.616C137.075 168.247 138.743 169.715 138.3 170.62ZM112.948 153.632C112.223 155.298 110.764 156.883 109.749 158.392C109.175 157.177 108.772 154.387 110.133 153.488C110.648 153.148 113.407 152.579 112.948 153.632ZM127.945 158.594C128.145 157.952 128.366 157.316 128.613 156.691C129.036 158.024 129.252 158.063 127.945 158.594ZM131.647 159.958C132.172 160.849 133.047 161.724 132.909 162.842C132.805 163.69 132.04 164.558 131.494 165.148C130.589 166.125 128.586 168 127.276 166.703C126.181 165.619 126.562 162.641 127.071 161.422C127.798 159.68 130.396 157.837 131.647 159.958ZM129.079 158.134C129.38 158.014 128.748 156.071 129.334 155.877C129.846 157.045 130.328 157.361 129.079 158.134ZM120.816 131.98C120.621 131.263 120.175 131.293 120.336 130.407C120.441 129.825 120.902 129.205 121.252 128.744C121.948 127.826 122.868 127.07 123.862 126.497C125.96 125.288 128.842 124.786 130.721 126.678C128.964 126.956 123.58 128.691 123.546 131.096C125.499 130.719 127.035 128.755 128.994 128.137C130.602 127.629 132.345 127.664 133.945 128.201C138.324 129.669 136.503 133.456 134.032 135.916C132.565 137.377 130.805 138.468 128.882 139.22C127.992 139.568 127.446 139.607 126.571 139.432C126.407 139.399 126.216 139.095 126.02 139.03C125.532 138.868 125.673 139.416 125.271 139.17C124.92 138.955 124.172 137.569 123.933 137.172C123.553 136.541 123.376 135.927 122.91 135.351C122.443 134.774 122.216 134.001 121.784 133.479C121.577 133.228 121.009 133.238 120.856 132.993C120.627 132.625 120.919 132.357 120.816 131.98ZM114.092 160.228C115.087 158.497 116.79 157.028 118.107 155.516C118.188 158.002 116.407 159.704 114.092 160.228ZM115.437 161.027C117.492 160.303 118.624 158.572 118.834 156.472C119.1 153.813 120.768 152.417 121.773 150.028C122.158 149.113 122.607 146.1 124.1 146.962C124.612 147.258 124.916 148.37 125.182 148.873C125.828 150.089 126.562 151.267 127.247 152.461C127.805 153.433 128.64 154.41 128.394 155.581C128.18 156.601 127.49 157.688 127.085 158.65C126.131 160.922 124.877 163.015 123.829 165.237C123.406 166.134 122.906 168.256 121.615 168.246C120.593 168.237 120.708 167.119 120.035 166.736C119.186 166.252 118.221 167.173 117.523 167.554C118.326 166.197 119.73 165.428 121.309 165.684C119.419 163.8 118.142 166.342 116.52 166.908C114.984 167.444 112.257 164.915 110.963 164.198C111.458 163.359 111.906 162.333 112.757 161.781C113.564 161.257 114.555 161.338 115.437 161.027ZM98.7278 178.24C98.9528 177.155 99.5887 176.514 99.9919 175.529C100.459 176.724 99.3648 177.428 98.7278 178.24ZM131.38 184.895C131.27 188.547 130.972 192.19 130.864 195.843C130.815 197.528 130.517 199.135 130.319 200.8C130.152 202.208 130.237 203.591 129.351 204.794C127.955 206.691 125.24 207.236 123.132 207.939C121.584 208.455 120.018 208.923 118.49 209.497C117.115 210.012 116.006 210.794 114.698 211.407C113.528 211.956 112.265 212.281 111.101 212.865C109.896 213.47 108.944 214.207 107.707 214.745C106.226 215.389 105.005 216.536 103.688 217.446C102.529 218.247 101.302 218.865 100.304 219.873C99.3689 220.818 98.1848 221.232 97.1248 222.072C96.0039 222.96 94.8306 223.537 93.5924 224.233C91.0557 225.66 87.6334 228.096 84.5807 226.71C85.4538 225.594 87.2407 224.522 87.3766 222.984C87.5534 220.981 85.8113 221.718 84.8026 222.358C83.2746 223.326 82.4295 224.496 81.2663 225.787C79.9065 227.297 78.1888 226.281 76.525 225.857C77.6626 224.832 78.7912 223.797 79.9267 222.77C80.8855 221.904 82.3522 220.967 82.9361 219.768C83.3533 218.911 83.333 217.737 82.326 217.292C81.1996 216.795 79.9257 217.844 79.0913 218.468C76.8765 220.127 75.4177 222.23 73.9635 224.538C73.19 225.765 72.8336 225.671 71.4105 225.426C69.9025 225.166 68.3941 224.889 66.8736 224.706C68.8878 222.636 71.139 220.393 72.7298 217.971C73.2452 217.186 73.9174 215.117 72.3472 214.927C71.7001 214.848 70.4119 216.172 69.9126 216.529C67.7313 218.09 65.6342 220.058 64.1884 222.336C63.7112 223.088 63.5613 223.925 62.6371 223.987C61.4289 224.069 59.1837 222.915 58.0181 222.558C60.2458 219.748 62.4579 216.917 65.0605 214.438C67.4518 212.161 69.8372 210.506 72.6337 208.759C75.6312 206.887 78.4233 204.731 81.1751 202.519C83.8092 200.402 86.5611 198.404 88.9859 196.04C93.8293 191.317 98.1433 185.886 101.716 180.142C102.552 178.799 103.338 177.42 104.019 175.99C104.657 174.647 104.952 173.041 105.814 171.819C106.112 171.397 106.532 171.084 106.797 170.644C107.048 170.229 106.963 169.728 107.345 169.361C108.228 168.512 109.837 169.024 110.662 169.619C111.99 170.575 113.064 171.736 114.523 172.537C115.991 173.342 117.579 173.928 119.204 174.323C123.002 175.248 126.767 176.006 130.637 176.568C130.239 178.046 131.217 178.278 131.54 179.608C131.934 181.222 131.43 183.251 131.38 184.895ZM94.8072 160.25C93.9459 158.969 93.1776 157.63 92.331 156.342C91.8157 155.557 91.1766 154.713 91.6172 153.754C92.3593 152.135 94.9774 151.847 96.398 152.552C99.6279 154.157 96.6276 158.743 94.8072 160.25ZM86.2582 130.963C85.9608 128.46 86.9171 126.684 89.1795 125.372C90.7919 124.436 92.0903 125.715 91.8702 127.42C91.5351 130.017 88.7616 132.907 86.6449 134.262C86.5066 133.164 86.3892 132.062 86.2582 130.963ZM85.9133 123.801C86.5806 123.271 88.3678 123.948 89.141 123.994C88.0778 124.924 87.0142 125.854 85.9507 126.783C85.8811 126.145 85.2977 124.291 85.9133 123.801ZM89.5016 99.6295C94.8827 98.9292 88.6882 104.709 87.1288 105.615C87.3825 104.385 88.0058 99.8244 89.5016 99.6295ZM103.827 89.5109C103.104 92.4731 97.4871 95.7046 97.4284 90.8524C97.4067 89.0444 98.4214 89.1907 99.9025 89.0171C100.747 88.9184 104.24 87.8175 103.827 89.5109ZM84.4245 94.0983C83.7938 95.7547 83.2883 97.4541 82.6702 99.1126C82.3963 99.8468 82.0741 100.351 81.564 100.933C81.137 101.42 80.629 101.543 80.6458 102.312C81.1807 102.208 81.5993 101.889 82.0315 101.582C81.9267 103.106 81.3882 104.747 81.1276 106.266C80.8152 108.089 80.5553 109.912 80.4588 111.759C80.2496 115.777 80.2478 119.781 80.3359 123.801C80.3809 125.85 80.4012 127.9 80.5116 129.946C80.5668 130.964 80.629 131.986 80.7548 132.998C80.8058 133.407 81.1021 134.276 80.919 134.659C80.2003 136.162 77.0166 132.034 75.634 132.64C75.8328 131.496 75.3741 131.746 74.6078 131.184C74.2368 130.911 73.9953 130.448 73.6082 130.205C73.4912 130.078 73.3622 129.966 73.2218 129.867C73.0617 129.649 72.893 129.672 72.7155 129.937C71.1579 129.005 70.7554 127.019 69.9193 125.683C69.4892 124.996 69.0737 124.889 69.0003 123.939C68.9368 123.111 69.0611 122.268 69.0276 121.437C68.9895 120.499 68.9347 119.465 68.6719 118.557C68.3669 117.503 67.9473 117.589 67.13 117.028C67.3819 116.917 67.5479 116.732 67.6283 116.472C67.3673 116.519 66.5741 116.843 66.3771 116.61C65.9896 116.153 66.904 116.092 67.1443 115.91C66.1189 115.454 66.3397 115.079 66.7097 114.244C66.8145 114.008 66.9144 113.655 67.0035 113.456C67.1982 113.021 67.31 113.296 67.3743 112.756C67.4354 112.24 66.9787 111.226 66.8442 110.677C66.6185 109.756 66.4938 108.96 66.6964 108C66.8606 107.222 67.3023 106.519 67.333 105.719C67.3418 105.495 67 105.42 66.9955 105.204C66.9889 104.887 67.2841 104.748 67.361 104.455C67.557 103.706 67.4686 102.914 67.804 102.204C68.1059 101.565 68.7156 100.739 69.1471 100.182C69.4462 99.7961 70.1799 99.3611 70.2603 98.8515C70.3134 98.5138 69.7882 98.5527 69.8116 98.2982C69.8434 97.9539 70.132 97.8422 70.2114 97.5864C70.4297 96.884 70.4846 96.2089 71.0489 95.6707C71.7595 94.9932 72.0684 95.277 72.0978 94.1595C72.1121 93.6143 71.6764 93.5303 71.9098 92.9018C72.0366 92.5605 72.4108 92.359 72.6502 92.1171C73.3608 91.3997 73.8399 90.7624 74.3458 89.876C74.7934 89.0927 75.5072 88.6371 75.9656 87.9606C76.5627 87.079 75.67 86.6419 76.8817 86.3931C76.7095 85.8457 76.5264 85.4034 76.9795 84.94C77.2654 84.6478 77.9907 84.8266 78.2437 84.4886C78.5337 84.1005 78.105 83.1807 78.542 82.9288C78.8974 82.7244 79.4295 83.355 79.9879 83.0429C80.4134 82.8049 81.056 81.4908 80.919 81.0078C82.0193 81.6273 81.745 81.2006 82.2715 80.4059C82.3896 80.2277 82.7474 80.1882 82.8491 80.0083C83.0524 79.6489 83.006 79.2825 83.2988 78.9903C83.7869 78.5038 84.5852 78.6287 85.1223 78.2812C85.566 77.9942 85.5426 77.6849 85.8965 77.414C86.1991 77.1827 86.6959 77.1382 86.9901 76.8985C87.5663 76.4288 87.5719 75.933 88.2927 75.5284C89.1463 75.0496 89.9024 74.6423 90.6787 74.0074C91.185 73.5938 91.6654 72.8602 92.2577 72.5873C93.0766 72.2097 93.7146 72.1831 94.5158 71.6445C95.0948 71.255 95.6423 70.6124 96.2107 70.2841C96.6395 70.0371 96.9403 70.0903 97.4808 69.937C98.4535 69.6609 98.6904 68.7436 99.4839 68.3702C100.029 68.1137 100.822 68.3485 101.42 68.2137C103.282 67.7955 105.12 66.8933 106.988 66.3936C109.268 65.7839 111.565 65.2499 113.862 64.7109C111.751 67.5751 109.062 70.1592 106.334 72.434C105.439 73.1808 100.533 76.5849 103.177 78.0387C104.239 78.6221 106.545 76.7375 107.402 76.277C109.128 75.3492 110.915 74.6066 112.723 73.8562C115.645 72.6429 119.452 70.485 122.7 70.6586C120.722 73.0863 118.254 75.0353 115.993 77.1799C113.915 79.1509 110.783 80.9994 111.763 84.2254C108.844 83.4821 106.222 82.6037 103.188 82.7982C101.828 82.8854 100.468 82.7216 99.1146 82.9123C97.6429 83.1206 96.2572 83.6133 94.8432 84.0459C93.7244 84.3878 92.4883 84.4147 91.4589 84.9834C90.9614 85.2585 90.3465 85.6512 89.8996 85.9924C89.3039 86.4473 89.1683 86.7487 88.7004 87.3482C87.0314 89.4871 85.4165 91.4924 84.4245 94.0983ZM75.2947 134.583C75.2036 134.213 75.1208 133.875 75.0163 133.452C75.9453 134.025 75.9453 134.025 75.2947 134.583ZM68.2736 122.792C68.159 122.951 67.6779 123.001 67.5381 122.864C67.3641 122.694 67.8215 122.032 67.8949 121.892C68.0762 122.031 68.4934 122.487 68.2736 122.792ZM66.2845 118.501C66.4075 118.049 66.5308 117.597 66.6538 117.145C66.8047 117.564 67.4857 118.027 67.5007 118.426C67.5102 118.691 66.419 118.559 66.2845 118.501ZM66.6793 119.121C67.7453 119.823 67.8568 120.652 67.8886 121.864C66.6129 121.442 66.796 120.205 66.6793 119.121ZM85.2176 71.2809C85.11 71.5724 84.6534 72.4805 84.3186 71.8453C84.2117 71.642 84.9951 71.3645 85.2176 71.2809ZM84.9116 70.2908C85.175 70.0532 85.7061 70.3489 86.0041 70.1568C86.2131 70.022 86.1439 69.8855 86.2421 69.8057C86.2616 69.7896 86.5457 69.2143 86.6621 69.0838C86.8675 68.8542 87.3158 68.7111 87.5656 68.5039C88.2637 67.9247 88.6578 67.1631 89.097 66.3887C89.6211 65.4637 89.7881 65.3566 90.6333 64.9332C91.2161 64.6413 91.6679 64.284 92.142 63.7877C92.6885 63.2162 92.6483 62.8071 93.0969 62.1824C93.3184 61.8741 93.6374 61.836 93.8956 61.5875C94.2052 61.29 94.3624 60.8739 94.6486 60.5736C94.7723 60.4438 95.1692 60.4441 95.244 60.3329C95.3393 60.1922 95.4138 59.6294 95.5032 59.5258C95.6741 59.7568 95.8453 59.9878 96.0158 60.2188C96.6894 59.0331 97.181 58.0535 98.3075 57.2644C99.4905 56.4356 100.512 55.2234 101.735 54.4814C102.009 54.3148 102.569 54.2445 102.779 53.9988C103.134 53.5831 102.827 53.2131 103.086 52.86C103.38 52.4597 103.949 52.7837 104.322 52.6112C104.795 52.3928 104.93 51.7548 105.539 51.8252C103.538 54.1948 103.563 57.8817 103.457 60.8414C103.41 62.1166 104.213 62.7595 103.028 63.6953C102.021 64.4915 100.6 64.2553 99.4081 64.7792C97.912 65.4371 96.3117 65.7871 94.7852 66.3607C93.2063 66.9535 91.9366 67.9919 90.417 68.6789C89.0771 69.2843 88.162 70.1452 86.9363 70.8927C86.4807 71.1706 85.7749 71.5741 85.2316 71.242C84.8913 71.0338 84.4675 70.6919 84.9116 70.2908ZM107.514 50.4222C107.601 50.0855 109.31 49.2008 109.73 48.9121C110.361 48.4781 111.294 47.4184 111.998 47.8394C112.242 46.8616 113.194 45.7736 114.035 45.5664C114.968 45.3361 116.568 44.5354 117.486 43.8365C117.754 43.6325 117.843 43.334 118.158 43.1425C118.707 42.809 119.252 42.991 119.781 42.5364C119.863 42.4671 120.595 41.2573 120.624 41.2688C120.661 41.3986 120.695 41.5299 120.725 41.6618C121.28 41.3535 121.775 41.1082 122.121 40.7148C122.2 40.6256 121.691 40.3935 121.852 40.2168C122.048 40.0005 122.488 40.2423 122.686 40.0369C122.068 43.1096 122.528 47.0646 125.643 48.6223C121.939 49.023 118.321 47.9084 114.572 48.5929C112.777 48.9208 110.952 49.4587 109.319 50.285C108.319 50.7914 107.04 52.6049 106.044 51.7244C106.439 51.197 107.042 50.8694 107.514 50.4222ZM125.487 41.5824C126.872 39.8868 128.973 39.2159 131.089 39.8231C133.566 40.5342 132.521 42.2666 132.147 44.19C131.432 43.1411 129.884 42.1007 128.565 42.0692C126.696 42.0247 127.402 43.5835 128.525 44.142C129.545 44.6495 131.296 44.7909 132.026 45.7137C132.737 46.6117 132.465 48.0802 132.579 49.1392C132.026 49.0569 131.474 48.9747 130.921 48.8925C131.385 46.421 129.343 46.3013 127.439 45.6045C125.515 44.9007 123.911 43.5121 125.487 41.5824ZM131.691 35.4965V37.7901C130.921 37.3506 130.151 36.9114 129.38 36.4718C130.151 36.1467 130.921 35.8216 131.691 35.4965ZM137.882 53.8238C140.454 54.5213 143.008 55.2594 145.481 56.2218C146.379 56.5714 147.362 56.695 148.242 57.0897C149.08 57.4652 149.206 57.426 148.908 58.161C148.073 60.2198 146.095 59.8643 144.363 59.5493C141.651 59.0562 138.995 58.3727 136.317 57.7295C133.699 57.1013 131.026 56.6894 128.448 55.9019C125.802 55.0942 123.224 54.3292 120.503 53.7958C119.708 53.6401 113.426 53.0634 113.474 52.4061C117.43 51.8917 121.504 52.3984 125.478 52.452C129.609 52.5076 133.876 52.7368 137.882 53.8238ZM134.391 45.8597C134.44 44.444 134.46 43.0239 134.636 41.6167C135.813 43.0708 136.875 43.5061 138.359 42.143C139.78 40.8383 140.097 40.158 141.898 41.3846C143.459 42.4485 144.937 42.3995 146.595 41.4683C147.606 40.9003 149.232 38.5793 150.295 39.057C150.802 39.2848 151.173 40.2028 151.685 40.5405C152.326 40.9636 153.314 41.2573 154.062 41.4214C155.828 41.8088 156.881 40.6714 157.99 39.4549C159.598 37.6907 159.551 38.7154 161.043 39.9386C162.706 41.3031 164.096 40.6364 165.602 39.4721C166.52 42.1623 166.863 45.1002 167.122 47.9206C167.209 48.8729 167.536 50.2251 166.681 50.8985C166.079 51.3734 164.801 51.3919 164.075 51.6544C161.482 52.5927 158.991 53.9236 156.823 55.6276C155.978 56.2914 155.241 57.1044 154.087 56.9532C152.987 56.809 151.918 55.8872 151.033 55.2786C150.073 54.6186 149.101 53.869 147.979 53.5012C147.321 53.2856 146.269 53.3636 145.693 52.9685C144.624 52.2339 145.883 50.307 145.616 49.0135C145.415 48.0315 144.85 45.9839 143.499 46.5596C141.487 47.416 142.658 50.7592 143.764 51.8028C141.501 51.4007 138.997 50.8134 136.815 50.0673C135.129 49.4909 134.331 47.5864 134.391 45.8597ZM172.335 52.7547C176.979 51.4497 181.325 50.5695 186.158 50.3319C188.297 50.2265 190.369 50.293 192.484 50.3123C193.702 50.3235 194.63 49.3404 193.657 48.2097C192.311 46.6439 188.203 47.2399 186.383 47.1696C181.505 46.9809 177.032 47.536 172.412 49.1455C172.9 48.2447 174.074 48.1278 174.878 47.662C175.865 47.0901 176.536 46.1484 176.958 45.103C178.054 42.3845 176.95 39.8227 175.803 37.3394C178.057 37.9462 180.388 39.275 182.654 39.6124C183.129 39.6831 183.434 39.6376 183.854 39.8108C184.112 39.9169 184.194 40.284 184.513 40.3641C184.668 40.403 185.039 40.0537 185.214 40.1031C185.904 40.2983 185.358 40.3501 185.794 40.6329C186.14 40.8572 186.113 41.146 186.748 41.0399C187.029 40.9934 187.335 40.5573 187.483 40.5454C187.672 40.53 187.629 40.2997 187.918 40.3669C188.444 40.4894 188.398 41.168 188.573 41.5019C188.76 41.8574 188.494 42.3302 189.062 42.5248C189.487 42.6704 189.593 42.2218 189.954 42.254C190.173 42.2736 190.628 42.5896 190.822 42.7821C191.445 43.4022 192.299 44.0871 193.138 44.4906C193.055 44.4076 193.533 44.2078 193.419 44.1609C193.342 44.1298 193.844 44.2509 193.836 44.2491C194.32 44.3594 194.576 45.1034 194.821 45.3746C195.271 45.8719 195.97 46.3969 196.6 46.6163C197.691 46.996 197.658 46.5421 198.056 47.8391C198.831 46.6191 199.128 48.6622 200.09 48.8872C200.588 49.0038 200.53 48.7903 200.982 49.051C201.293 49.2298 201.5 49.7775 201.734 50.0418C201.835 49.6606 201.935 49.2792 202.035 48.8984C202.728 50.2115 204.223 52.2938 205.862 51.9172C205.862 52.2756 205.714 52.7039 205.992 53.0098C206.185 53.2236 206.498 52.9808 206.65 53.105C206.782 53.2135 207.098 53.6454 207.2 53.7164C207.399 53.8564 207.762 53.9586 207.935 54.0982C208.088 54.2211 208.163 54.8079 208.332 55.02C208.651 55.4186 209.201 55.4977 209.461 55.9758C209.521 55.5044 209.58 55.0326 209.639 54.5612C210.156 54.9605 210.2 55.2706 210.327 55.8547C210.507 56.6866 210.268 56.4916 210.841 56.8426C211.404 57.1881 211.698 57.1492 212.215 57.7484C212.721 58.3356 212.725 58.6975 213.456 58.0857C213.592 58.5382 213.636 59.1237 213.998 59.4705C214.272 59.7327 215.407 59.7439 215.515 60.363C213.384 58.5631 214.786 61.2967 215.516 60.3675C215.67 61.3621 216.398 61.6834 217.228 62.3917C218.003 63.0517 218.13 63.0038 218.394 64.1128C218.388 64.0883 218.783 64.3337 218.812 64.3827C218.057 64.4905 219.227 65.3346 219.425 65.4889C219.569 65.6016 219.757 65.3325 219.997 65.5148C220.271 65.7234 220.495 66.1976 220.718 66.4835C221.323 67.2587 221.77 67.9247 222.407 68.555C223.094 69.2353 223.428 70.0952 224.088 70.8903C224.819 71.7733 225.215 72.7885 225.827 73.7471C226.409 74.6587 227.181 75.3905 227.855 76.2252C228.928 77.5536 229.294 80.4794 231.295 80.5564C231.178 80.6778 231.341 81.5846 231.36 81.7518C231.455 82.5753 231.392 83.3676 231.879 84.1134C231.99 83.2626 232.435 83.5906 232.821 84.0375C233.464 84.7811 232.9 84.5939 232.934 85.3474C232.975 86.2608 233.079 85.5542 233.426 86.3518C233.698 86.9765 233.848 87.3817 233.994 88.075C232.863 88.1646 232.345 87.24 231.927 86.3441C231.753 85.9693 231.692 85.3533 231.383 85.0604C231.054 84.7486 230.602 84.7241 230.263 84.3762C229.614 83.7078 229.333 82.6656 228.568 82.015C227.703 81.2801 227.512 80.9329 226.797 80.0542C226.007 79.0823 224.916 78.3999 224.086 77.4599C223.256 76.5181 223.323 77.0322 222.28 76.6913C221.171 76.3284 219.377 72.8375 217.979 74.1821C218.035 73.3026 216.718 72.4753 216.053 72.1565C215.766 72.0189 215.431 72.1435 215.143 71.937C214.831 71.7131 214.809 71.2812 214.494 71.0124C214.494 71.0128 214.011 71.1297 213.913 71.0803C213.714 70.9792 213.713 70.6215 213.536 70.5039C213.049 70.1781 212.469 69.8365 211.952 69.559C210.695 68.8846 209.585 68.0542 208.373 67.2422C207.334 66.5465 206.077 65.2901 204.877 64.9234C203.828 64.6031 203.169 64.7662 202.31 64.1247C201.842 63.7755 201.98 63.6582 201.229 63.4409C200.513 63.2341 200.111 63.3405 199.732 62.581C199.069 61.2522 199.487 58.6586 199.359 57.1685C199.223 55.587 199.061 53.9663 198.649 52.4285C198.162 50.6111 197.518 49.661 195.57 50.089C191.711 50.938 187.898 51.7457 184.021 52.4912C176.296 53.9764 168.703 56.4003 161.147 58.5522C160.572 58.7164 157.361 59.452 158.017 57.7904C158.319 57.0239 160.351 56.7384 161.032 56.4976C164.766 55.1747 168.518 53.827 172.335 52.7547ZM171.037 49.3726C170.472 49.5878 169.909 49.8031 169.344 50.0187V48.4484C169.909 48.7563 170.472 49.0643 171.037 49.3726ZM168.692 41.0697C169.182 41.4707 170.179 40.5055 170.596 40.3099C171.308 39.976 172.215 39.6894 173.01 39.758C174.477 39.885 175.55 41.3307 175.282 42.7964C174.827 45.2763 171.296 46.449 169.35 47.4184C169.287 46.5396 169.003 45.4831 169.619 44.723C170.153 44.0629 171.19 44.1109 171.683 43.4088C172.925 41.6443 169.561 41.4844 168.809 42.8874C168.512 41.9908 168.215 41.0942 167.919 40.1976C168.635 40.0789 168.32 40.7659 168.692 41.0697ZM172.164 36.2156C171.464 36.6688 170.763 37.1221 170.063 37.5753C169.716 36.0064 170.899 35.7999 172.164 36.2156ZM235.99 90.8216C235.073 91.2597 234.844 90.2133 234.184 90.1682C234.963 89.6887 234.963 89.6887 235.99 90.8216ZM239.721 113.669C239.835 115.173 239.746 116.694 239.946 118.192C240.098 119.331 240.56 120.392 240.609 121.544C240.716 124.068 239.865 126.638 238.145 128.488C236.518 130.239 234.191 131.745 231.995 132.481C231.005 132.812 229.972 133.546 229.011 133.818C227.948 134.119 226.938 133.465 226.061 134.638C225.476 129.606 225.903 124.348 225.857 119.284C225.811 114.21 225.866 109.134 225.008 104.114C224.244 99.6428 222.738 94.6141 219.963 90.9566C218.835 89.4714 217.447 88.2549 215.983 87.1161C215.223 86.5254 214.463 85.8937 213.617 85.4272C212.315 84.7091 211.206 84.8084 209.79 84.6037C207.763 84.3108 205.879 84.0634 203.845 84.6345C201.951 85.1665 199.866 85.7722 198.17 86.6962C196.48 87.6169 194.518 87.9963 192.764 88.8208C191.57 89.3818 189.092 91.2559 187.768 90.9185C186.486 90.5916 184.59 88.4148 183.771 87.4398C182.725 86.1936 181.86 84.7493 180.933 83.4086C180.607 82.9379 179.943 82.2103 179.858 81.6059C179.711 80.5567 180.131 80.8997 181.133 81.0169C183.708 81.3193 186.129 81.7973 188.597 82.6086C189.825 83.0121 192.227 84.645 193.455 83.6665C195.33 82.1725 192.481 79.6048 191.437 78.7421C189.659 77.2723 187.592 76.1807 185.696 74.8747C183.682 73.4867 181.02 72.0091 179.724 69.8719C183.508 70.99 187.289 72.2706 190.963 73.7121C192.643 74.3714 194.305 75.0682 195.883 75.9452C196.77 76.4376 198.562 77.7696 199.63 77.1316C201.951 75.7447 196.62 71.7169 195.85 70.8938C194.655 69.6147 193.484 68.3478 192.17 67.1873C191.284 66.4044 189.891 65.8539 189.479 64.699C190.95 65.232 192.14 66.276 193.517 66.9854C194.238 67.357 194.896 67.5709 195.693 67.6846C196.542 67.8064 196.643 67.9418 197.312 68.2795C197.833 68.5431 198.369 68.8951 198.954 69.0743C199.37 69.2021 200.099 69.2241 200.463 69.4607C200.649 69.7267 200.841 69.9881 201.04 70.2449C201.262 70.3104 201.481 70.3856 201.697 70.4714C202.02 70.7598 202.211 71.1573 202.526 71.4548C204.807 73.6141 207.859 75.1595 210.417 76.9685C212.837 78.6798 215.405 80.2281 217.729 82.0959C220.404 84.2457 223.18 86.5562 225.455 89.134C226.741 90.5909 227.797 92.2428 228.877 93.8537C229.659 95.0201 230.797 95.9878 231.472 97.1906C232.946 99.8129 234.169 102.648 235.756 105.228C237.372 107.857 239.478 110.469 239.721 113.669ZM217.979 128.884C218.42 127.064 220.907 124.939 222.496 124.137C221.695 126.119 219.561 127.472 217.979 128.884ZM222.08 135.232C220.724 138.047 214.765 138.369 215.573 134.204C215.969 132.163 217.651 130.911 219.094 129.575C219.762 128.958 221.396 126.751 222.429 127.106C222.38 128.694 222.287 130.288 222.291 131.875C222.293 132.935 222.559 134.236 222.08 135.232ZM220.357 102.794C220.907 104.03 221.455 105.059 220.435 106.165C219.974 106.664 218.474 107.756 217.796 107.514C215.617 106.736 219.77 103.35 220.357 102.794ZM207.181 91.7959C207.706 91.7672 208.215 91.8452 208.734 91.8134C209.25 91.7812 209.305 91.6895 209.783 91.7549C209.834 91.8284 209.884 91.9019 209.935 91.9754C210 92.4685 210.259 92.522 210.711 92.1364C211.339 92.2764 211.748 92.3698 212.349 92.7096C210.727 93.8803 208.753 95.2413 206.764 95.6343C203.621 96.2551 204.489 91.9443 207.181 91.7959ZM158.994 118.121C158.668 118.777 157.73 117.138 157.498 116.832C157.931 116.831 159.323 117.459 158.994 118.121ZM184.25 100.847C186.692 99.4209 189.592 98.1684 192.215 97.1066C192.676 99.3306 190.427 102.202 189.042 103.723C187.921 104.954 186.571 106.231 185.052 106.939C183.41 107.705 181.615 107.368 181.694 105.22C181.724 104.434 181.902 103.171 182.222 102.453C182.634 101.528 183.412 101.336 184.25 100.847ZM151.237 60.3924C151.601 60.371 155.549 59.8601 155.528 60.3518C155.466 61.8297 151.634 60.6692 151.237 60.3924ZM123.316 88.9286C125.401 86.3532 128.768 83.5734 128.817 79.974C128.89 74.6776 123.017 77.3202 120.064 77.5403C121.626 76.005 129.471 69.5639 124.831 67.2762C123.497 66.6186 121.601 67.2611 120.262 67.6055C117.887 68.2169 115.679 69.2755 113.346 70.0122C115.013 68.2361 117.894 66.2175 117.799 63.5277C117.684 60.2534 114.999 61.045 112.676 61.5255C111.784 61.7103 107.798 63.2974 107.049 62.2199C106.775 61.8251 107.219 61.3236 107.313 60.9722C107.478 60.3504 107.427 60.1334 107.433 59.4982C107.444 58.2166 108.295 56.5711 107.601 55.3791C107.442 55.65 107.307 55.9317 107.194 56.2246C106.965 55.531 107.119 54.7953 106.89 54.1017C112.687 55.5856 118.584 56.3978 124.418 57.6644C127.371 58.3055 130.151 59.4096 133.144 59.9066C136.163 60.4074 139.13 61.1742 142.155 61.6519C144.915 62.0876 147.559 62.8131 150.292 63.3695C152.956 63.912 155.688 62.7231 158.288 62.1212C164.112 60.7731 169.934 59.3921 175.766 58.084C182.496 56.5739 189.496 55.2828 195.938 52.7645C196.063 56.121 196.331 59.4712 196.741 62.8047C193.896 61.4587 189.674 59.7036 186.798 62.1121C185.647 63.0755 185.293 64.7393 185.748 66.1542C186.243 67.6944 187.76 68.4097 188.76 69.5692C185.715 68.7877 177.858 63.2782 176.459 68.8472C175.471 72.7805 180.289 75.3212 182.645 77.5351C180.306 77.0766 177.173 75.2047 175.799 78.2133C174.612 80.8143 176.042 83.6445 177.507 85.7897C178.3 86.952 179.193 88.046 180.037 89.1722C180.483 89.7678 180.919 90.3718 181.388 90.95C181.858 91.5299 182.745 92.1371 183.075 92.7611C183.738 94.0196 182.399 94.0965 181.358 94.5512C180.058 95.1188 178.941 96.0721 177.752 96.8319C175.03 98.5716 172.651 100.187 169.433 100.743C166.121 101.316 162.932 101.913 159.663 102.712C156.405 103.507 153.745 104.272 150.414 103.244C148.895 102.775 147.659 102.358 146.048 102.446C144.356 102.539 143.367 102.451 141.976 101.402C135.99 96.8903 129.493 93.188 123.316 88.9286ZM112.525 84.399C114.838 83.2374 117.167 82.07 119.556 81.0719C121.534 80.2452 124.538 79.2825 126.703 79.6447C126.093 81.2139 124.979 82.5015 123.784 83.6571C122.728 84.679 121.408 86.2213 120.129 86.9345C118.968 87.5819 117.617 86.5565 116.472 86.1268C115.214 85.655 113.483 85.4349 112.525 84.399ZM113.106 90.2595C114.259 89.7801 116.736 91.3889 117.785 91.8071C119.845 92.6295 121.917 93.4883 123.733 94.7856C121.516 97.3502 119.005 99.695 116.021 101.342C114.058 102.426 110.749 103.669 108.897 101.701C106.57 99.2284 109.367 94.1896 111.014 92.0706C111.069 92.4332 111.124 92.7954 111.179 93.1579C111.704 92.3159 112.105 90.676 113.106 90.2595ZM155.427 112.209C153.989 112.512 153.5 112.239 152.551 111.135C151.909 110.389 151.278 109.614 150.555 108.943C149.816 108.259 147.992 106.608 150.316 107.558C152.434 108.425 154.249 108.858 156.579 108.518C159.243 108.131 161.728 107.003 164.355 106.432C162.915 107.693 161.485 108.967 160.042 110.225C158.517 111.554 157.364 111.801 155.427 112.209ZM155.756 122.354C152.604 124.727 146.259 124.47 148.395 119.248C148.719 118.454 149.173 117.708 149.698 117.032C149.873 116.806 150.185 116.339 150.434 116.187C151.132 115.764 150.938 115.713 151.608 116.418C152.187 117.027 156.705 122 155.756 122.354ZM154.822 113.278C155.11 113.184 156.327 112.479 156.604 112.869C156.884 113.265 154.499 114.633 154.822 113.278ZM177.766 149.481C177.057 151.178 171.386 153.635 172.442 150.214C172.91 148.699 173.351 147.551 175.117 147.436C176.136 147.37 178.39 147.987 177.766 149.481ZM187.939 126.484C188.873 125.123 191.956 123.283 193.272 125.312C193.907 126.29 192.367 126.791 191.437 126.539C190.937 126.404 190.528 126.105 189.985 126.083C189.286 126.054 188.604 126.602 187.939 126.484ZM190.414 127.834C189.779 128.478 185.95 131.702 185.33 131.205C186.581 129.416 188.016 127.418 190.414 127.834ZM184.161 160.466C182.831 160.541 183.495 158.535 183.624 157.734C183.946 158.292 185.638 160.382 184.161 160.466ZM187.539 156.871C187.109 156.105 185.95 154.965 186.212 153.98C186.413 153.226 188.221 152.213 188.979 152.645C189.985 153.22 188.527 156.998 187.539 156.871ZM219.088 148.839C218.519 150.8 217.93 150.294 216.146 150.674C214.357 151.055 213.12 152.576 211.545 153.391C212.092 152.234 212.432 150.823 213.348 149.884C213.559 149.667 214.858 149.238 214.118 148.736C213.471 148.297 212.542 149.722 212.264 150.11C210.9 152.022 209.946 154.357 209.158 156.557C208.77 157.637 208.46 158.738 208.277 159.872C208.113 160.883 208.29 161.941 208.123 162.926C207.855 164.512 205.702 164.52 204.408 164.929C203.236 165.299 202.069 165.701 200.853 165.9C199.798 166.073 198.704 165.758 197.682 165.966C196.576 166.191 196.078 166.848 194.821 166.699C193.795 166.579 192.836 166.107 191.796 166.059C190.823 166.016 189.853 166.352 188.886 166.078C187.911 165.801 187.958 165.694 188.18 164.735C188.318 164.994 188.457 165.253 188.596 165.511C188.985 165.206 189.254 164.276 189.493 163.839C189.862 163.162 190.163 162.928 190.026 162.084C189.825 160.839 188.703 159.954 188.449 158.769C188.183 157.534 189.096 156.523 189.636 155.491C190.373 154.079 190.363 153.032 189.745 151.572C190.211 151.695 190.677 151.818 191.144 151.942C190.505 150.553 188.338 151.116 187.251 151.527C186.705 151.734 185.84 152.546 185.252 152.525C184.445 152.497 184.023 151.435 183.677 150.85C182.672 149.157 181.526 147.485 180.338 145.913C180.011 145.481 179.583 145.203 179.696 144.71C179.792 144.293 180.729 143.7 181.033 143.442C182.172 142.478 183.622 141.944 184.692 140.929C186.31 139.395 188.175 138.296 189.828 136.793C191.551 135.227 193.326 133.788 195.121 132.308C196.939 130.809 198.514 129.043 200.319 127.529C200.787 128.377 201.693 131.414 202.73 131.65C203.938 131.923 203.902 130.493 203.842 129.632C203.756 128.405 203.075 127.213 203 126.042C202.918 124.789 204.122 124.229 205.031 123.505C206.435 122.386 209.541 119.837 207.871 117.739C206.433 115.931 201.755 119.396 200.466 120.438C199.37 121.324 198.523 122.124 197.29 122.823C196.422 123.313 194.967 125.201 193.939 125.027C192.715 124.82 192.237 123.483 190.741 123.527C189.279 123.57 188.037 124.624 187.13 125.682C185.08 128.074 184.376 131.275 182.508 133.768C181.587 134.998 180.393 136.013 179.394 137.176C178.297 138.453 178.063 139.924 176.982 141.173C173.886 137.045 170.513 133.137 167.249 129.145C165.619 127.152 164.022 125.135 162.427 123.113C161.829 122.356 161.155 121.645 160.607 120.849C159.857 119.759 159.992 118.884 159.698 117.669C159.567 117.13 158.956 116.485 159.12 115.97C159.34 115.278 160.885 114.735 161.443 114.452C163.718 113.296 165.782 111.851 167.904 110.438C171.834 107.823 175.809 105.37 179.988 103.137C179.916 104.099 179.291 105.096 179.711 106.062C179.907 105.506 180.216 103.032 180.958 102.925C180.816 102.946 180.932 106.099 181.047 106.549C181.389 107.893 182.381 108.811 183.801 108.802C186.505 108.785 188.929 105.841 190.43 103.89C191.446 102.57 192.422 101.034 192.78 99.3817C193.102 97.8979 192.748 96.8658 194.289 96.1124C197.452 94.5666 200.639 93.307 204.021 92.4874C203.87 93.9461 203.447 95.7417 204.772 96.7909C206.234 97.949 208.147 96.9169 209.524 96.1508C210.888 95.3921 212.99 93.3077 214.592 93.9132C216.167 94.5088 217.264 96.4861 218.146 97.7992C218.923 98.9565 219.769 99.7912 218.869 101.081C217.86 102.527 217.203 103.938 216.395 105.508C216.085 106.112 215.788 106.506 216.008 107.124C216.079 107.325 216.889 108.52 217.109 108.691C218.512 109.784 220.407 107.705 221.408 106.916C221.762 110.314 221.841 113.697 221.983 117.106C222.088 119.603 223.053 122.061 221.006 123.886C218.96 125.71 217.252 127.583 216.004 130.053C215.338 131.373 214.74 132.728 214.02 134.02C213.538 134.883 212.522 136.15 213.144 137.166C213.8 136.543 213.995 135.596 214.542 134.894C214.869 136.351 215.199 137.968 216.739 138.586C218.511 139.297 220.273 138.067 221.843 137.382C221.28 141.279 220.182 145.066 219.088 148.839ZM217.276 153.318C216.06 155.92 214.961 159.058 212.715 160.974C212.221 161.394 210.126 163.037 209.328 162.762C208.651 162.528 209.024 161.159 209.142 160.572C209.74 157.594 210.775 155.721 213.188 153.821C214.187 153.035 215.469 152.03 216.756 151.836C218.142 151.627 217.743 152.318 217.276 153.318ZM251.588 215.082C248.434 210.79 243.977 207.454 239.764 204.229C237.856 202.768 235.753 201.673 233.825 200.212C231.646 198.56 229.432 196.967 226.991 195.722C222.362 193.361 217.312 191.716 212.944 188.924C210.814 187.563 208.483 186.248 206.481 184.719C205.601 184.048 204.824 183.189 204.029 182.42C203.29 181.706 201.704 180.668 201.411 179.623C202.64 179.421 203.339 178.228 204.436 178.106C204.797 178.066 207.062 178.665 206.752 177.566C207.574 177.545 207.669 177.533 208.358 177.353C208.643 177.279 208.981 177.395 209.269 177.293C209.71 177.137 210.01 176.687 210.455 176.515C210.772 176.392 211.948 176.529 212.126 176.376C212.613 175.96 212.095 175.997 211.805 175.477C212.751 175.453 213.4 175.932 214.349 175.423C214.637 175.268 214.882 174.911 215.161 174.726C215.658 174.398 215.837 174.907 216.177 174.226C216.495 175.166 216.486 174.905 217.253 174.629C218.016 174.354 218.567 174.155 219.437 174.086C221.514 173.921 223.599 174.174 225.667 174.026C226.423 173.972 227.07 173.8 227.821 173.899C228.483 173.986 228.283 174.447 228.834 173.826C228.962 173.682 228.548 173.287 228.746 173.08C228.834 172.988 229.118 173.053 229.226 173.006C230.193 172.583 230.197 173.174 230.369 173.942C230.936 173.809 231.514 173.689 232.007 173.356C231.758 173.134 231.342 172.889 231.582 172.483C232.4 172.793 232.934 172.65 232.525 173.548C233.348 173.82 233.502 173.465 234.241 173.388C234.678 173.342 235.288 173.613 235.652 173.264C236.05 172.883 235.423 172.468 236.153 172.14C236.303 172.217 236.414 172.332 236.486 172.485C236.881 172.605 236.81 172.76 236.273 172.952C237.71 173.697 237.372 172.864 237.975 171.983C238.115 171.78 238.739 171.149 239.023 171.453C239.454 171.915 238.574 172.062 238.763 172.522C239.09 173.318 240.231 172.298 240.581 171.894C240.846 171.589 240.954 171.005 241.24 170.777C241.636 170.461 242.207 170.949 242.704 170.862C244.973 170.464 247.117 167.41 245.407 165.366C244.948 164.816 244.559 164.926 244.011 164.579C243.47 164.236 243.166 163.643 242.732 163.154C241.74 162.036 240.526 161.199 239.14 160.664C235.924 159.422 232.459 158.517 229.082 157.85C227.518 157.542 225.853 157.069 224.252 157.073C223.309 157.075 221.888 157.809 221.006 157.457C219.292 156.773 221.809 153.273 222.224 152.142C223.444 148.821 224.365 145.279 224.969 141.792C225.087 141.11 225.041 140.226 225.287 139.575C225.569 138.828 225.629 138.934 226.233 138.873C227.323 138.762 228.515 139.335 229.65 139.137C230.908 138.918 232.268 139.02 233.538 138.63C234.122 138.451 234.663 138.257 235.048 137.764C235.169 137.609 235.034 137.474 235.111 137.366C235.134 137.332 235.569 136.863 235.583 136.836C235.579 136.594 235.599 136.353 235.646 136.115C236.086 136.48 235.869 137.247 236.611 137.265C236.743 136.447 236.745 136.283 237.281 135.822C237.24 135.858 237.685 135.479 237.628 135.52C237.655 135.374 237.708 135.238 237.788 135.112C238.039 134.991 238.304 134.926 238.583 134.919C239.162 134.322 238.922 134.004 238.922 133.201C239.389 133.444 239.857 133.688 240.325 133.931C240.438 131.551 241.886 130.248 242.848 128.32C243.258 127.498 243.675 126.856 243.773 125.865C243.83 125.293 243.682 124.789 243.919 124.25C244.133 123.761 244.613 123.498 244.814 122.965C245.209 121.917 244.914 120.579 244.936 119.49C244.966 117.981 245.116 116.477 245.166 114.968C245.262 112.006 244.965 108.962 244.522 106.035C244.31 104.635 243.956 103.276 243.678 101.891C243.449 100.752 242.902 99.6838 242.706 98.6244C242.624 98.1842 242.75 97.789 242.617 97.3022C242.443 96.6621 242.151 96.0329 241.933 95.4044C241.426 93.9363 240.924 92.4703 240.354 91.0249C239.248 88.2238 237.953 85.5066 236.723 82.7594C235.54 80.1175 234.561 77.3937 233.028 74.9268C231.519 72.497 229.894 70.1081 228.23 67.7822C226.498 65.3601 224.307 63.2789 222.627 60.8344C219.472 56.2446 215.071 52.4625 210.467 49.3394C200.966 42.8944 190.7 36.4596 179.308 34.2499C177.591 33.9171 175.852 33.6861 174.102 33.643C173.016 33.6161 171.217 34.1414 170.189 33.7736C169.038 33.3617 169.143 32.0675 168.855 31.0522C168.485 29.7472 167.649 28.8922 166.699 27.9697C165.7 26.9986 164.793 25.8643 163.547 25.204C162.284 24.5352 160.794 24.2849 159.394 24.0827C158.145 23.9017 156.278 24.0708 155.137 23.5259C154.097 23.0293 154.61 22.5124 155.584 22.9376C155.655 22.5078 155.713 22.2303 155.988 21.8982C156.126 21.7312 156.779 21.4971 156.795 21.3414C156.813 21.159 156.266 20.6397 156.187 20.4045C156.019 19.8981 156.115 19.1968 156.314 18.7215C157.296 19.5947 157.58 19.9814 158.676 19.1467C159.139 18.7943 159.281 18.6389 159.817 18.4612C159.962 18.4129 160.288 18.5619 160.415 18.4783C160.899 18.1591 160.454 18.2344 160.684 17.8571C160.626 17.9523 161.033 16.9496 161.014 17.1593C161.063 16.6252 161.221 16.7894 160.899 16.1332C160.268 14.8495 158.661 14.797 159.48 13.332C159.802 12.7557 160.086 12.813 160.176 11.9773C160.225 11.528 160.165 11.0128 160.162 10.5558C160.159 9.62101 160.334 8.96657 159.459 8.49062C158.618 8.03286 157.842 8.53506 157.501 7.39977C157.143 6.20849 157.503 4.68123 156.214 3.86546C155.272 3.26947 153.911 3.77902 152.87 3.4875C151.826 3.19563 150.867 2.12718 149.808 2.9475C149.056 3.53054 148.656 4.96401 147.239 4.18883C146.599 3.83921 146.247 2.66543 145.843 2.00714C145.201 0.957943 144.685 0.57893 143.696 1.60083C143.086 2.23112 141.801 3.76537 141.722 4.63784C141.636 5.60094 142.475 6.00341 141.421 6.57315C140.373 7.1401 139.784 6.72434 138.933 7.87502C138.089 9.01661 138.742 9.64725 137.764 10.7395C136.542 12.1047 135.891 12.6941 135.908 14.5335C135.92 15.7951 134.806 16.8849 135.456 18.0818C136.184 19.4232 138.309 19.9811 139.598 20.527C139.168 21.3225 138.578 21.8324 139.08 22.6513C139.535 23.3929 140.82 23.5469 141.617 23.4121C142.153 23.3218 142.173 23.403 142.595 23.0258C142.871 22.7787 142.492 22.4704 143.061 22.3335C143.667 22.1872 144.634 23.3757 145.028 23.6728C144.149 24.8148 141.734 25.0283 140.457 25.6071C139.678 25.9602 138.963 26.4824 138.17 26.798C137.451 27.0843 136.576 27.0178 135.924 27.4609C134.798 28.2259 134.329 30.1213 133.639 31.2356C132.858 32.4969 132.1 33.0827 130.601 33.3445C128.731 33.671 127.225 33.8023 125.482 34.6173C123.352 35.6126 121.253 36.6636 119.161 37.7366C115.787 39.4672 112.654 41.2436 109.521 43.3368C106.244 45.5268 103.056 47.8128 99.8937 50.1012C96.7659 52.3645 94.1399 55.1488 91.4229 57.8859C89.2266 60.0984 87.2994 62.4866 85.1114 64.6983C82.5287 67.3101 80.629 70.6065 78.2342 73.3771C76.924 74.8929 75.6704 76.3834 74.8482 78.1689C74.1819 79.6163 73.0233 81.0365 72.2497 82.555C71.2613 84.4966 70.326 86.4071 69.2163 88.2843C68.761 89.0546 68.2198 89.7157 67.7394 90.451C67.1237 91.3927 67.1601 92.3023 66.9945 93.3879C66.8215 93.1229 66.6489 92.858 66.476 92.5934C66.1625 93.2787 65.7834 93.9527 65.512 94.6544C65.3387 95.102 65.3659 95.7375 65.1919 96.1292C64.9735 96.6208 64.7076 96.5554 64.4355 96.9649C64.1444 97.4027 64.0508 97.991 63.744 98.4606C62.418 100.49 61.9079 103.066 61.2266 105.382C60.3126 108.49 60.4569 112.061 60.5065 115.265C60.5592 118.649 60.7441 122.033 61.2525 125.382C61.713 128.414 62.6976 131.323 64.2391 133.982C65.5822 136.299 67.4343 137.649 69.8068 138.836C70.8962 139.38 71.9073 139.212 73.0509 139.299C74.3035 139.394 75.1578 139.735 76.483 139.435C77.119 139.292 77.4198 138.828 77.925 138.674C78.2377 138.578 78.4061 138.734 78.7063 138.698C79.1357 138.646 80.0287 138.435 80.4945 138.486C81.9434 138.644 81.7003 140.837 81.8428 141.956C82.0622 143.68 82.223 145.423 82.5189 147.137C83.1412 150.741 84.4846 154.107 85.2784 157.649C81.5986 158.098 78.4421 158.786 74.9932 160.18C71.5331 161.578 68.035 162.052 64.3935 162.747C60.9869 163.398 57.7103 164.613 54.9836 166.814C53.7055 167.845 52.3778 169.052 53.3162 170.751C53.9165 171.837 54.9982 172.113 55.9322 172.744C56.1208 172.505 55.5751 171.999 55.4752 171.859C56.2603 172.02 56.2362 172.387 56.8095 172.706C57.3105 172.985 57.7207 172.975 58.2693 173.172C59.6085 173.654 60.2665 174.855 61.5903 175.192C62.0068 175.299 62.5515 175.552 62.9774 175.624C63.4889 175.711 63.8719 175.487 64.3904 175.582C64.6703 175.766 64.9728 175.898 65.2981 175.977C65.5113 175.878 65.7219 175.773 65.9295 175.663C66.6744 175.741 67.1346 176.209 67.7397 176.595C67.7803 176.109 67.7219 175.605 68.181 175.288C68.3603 175.76 68.0706 176.059 68.5598 176.384C69.1796 176.796 69.9937 176.282 70.5485 176.022C70.7054 177.59 74.335 177.498 75.4855 177.476C77.0788 177.445 78.6703 176.812 80.2775 177.165C81.0975 177.345 81.9728 177.533 82.789 177.767C83.7718 178.048 84.9601 178.299 85.9276 178.654C86.3123 178.795 86.7836 179.246 87.1931 179.216C87.5191 179.192 87.6065 178.71 87.9859 178.724C88.4153 178.74 88.5596 179.218 88.9314 179.363C89.4876 179.578 89.9992 179.168 90.5278 179.375C90.7179 179.449 90.9754 179.768 91.2185 179.872C91.5879 180.03 92.3185 180.032 92.7293 180.108C93.3118 180.216 93.8334 180.143 94.3324 180.179C94.7349 180.208 94.7262 180.479 94.9187 180.496C95.1395 180.516 95.5242 179.756 95.8208 179.645C96.253 179.482 97.0374 179.869 97.478 179.937C94.2852 184.268 90.4356 188.097 86.2627 191.449C81.7614 195.065 77.1521 198.676 72.3252 201.848C67.9427 204.728 63.7003 207.219 60.3024 211.284C57.4374 214.712 52.8767 218.379 53.5797 223.348C54.2823 228.312 59.6683 230.332 63.984 231.28C69.4119 232.472 74.9995 231.992 80.4421 232.663C82.7631 232.948 85.342 232.796 87.6785 232.552C90.438 232.265 92.8031 230.462 95.1755 229.159C99.4427 226.815 103.091 223.678 107.294 221.26C112.557 218.233 117.764 215.026 123.534 212.998C126.218 212.055 128.981 210.979 131.147 209.039C131.469 208.75 131.709 208.314 132.073 208.076C132.692 207.672 132.858 208.082 133.217 207.959C133.493 207.865 133.761 207.566 134 207.477C134.605 207.25 134.875 207.344 135.553 207.344C134.972 207.008 134.439 206.142 135.043 205.437C136.077 204.229 136.255 206.16 136.643 206.607C136.973 206.183 136.846 205.806 136.762 205.325C137.04 205.509 137.319 205.693 137.597 205.877C137.405 204.946 137.588 204.088 138.081 203.276C138.535 202.528 138.648 202.634 138.773 201.597C140.185 202.887 140.461 199.756 140.588 198.614C140.711 197.507 140.59 196.713 141.317 195.745C142.098 194.705 143.285 194.048 144.277 193.241C145.843 191.965 147.566 190.354 149.731 191.577C151.441 192.543 152.371 194.912 153.975 196.128C154.948 196.867 155.975 196.941 156.595 198.086C157.096 199.012 157.259 200.119 157.732 201.069C158.879 203.372 160.53 206.008 162.413 207.775C164.166 209.419 166.417 209.411 168.468 210.431C170.499 211.441 172.609 212.535 174.758 213.266C177.106 214.066 179.638 214.405 181.924 215.374C183.099 215.872 184.151 216.622 185.337 217.099C186.616 217.613 187.964 217.976 189.26 218.447C194.396 220.314 199.422 222.603 204.817 223.638C207.21 224.097 209.426 225.344 211.836 225.606C212.87 225.719 213.714 225.862 214.725 226.121C216.313 226.527 215.977 226.742 216.561 228.067C217.523 230.248 219.873 228.956 221.684 229.011C224.582 229.098 227.437 228.63 230.331 228.607C235.392 228.568 240.266 227.997 245.162 226.334C250.077 224.665 255.673 220.641 251.588 215.082Z" fill="#404044"/>
<path fill-rule="evenodd" clip-rule="evenodd" d="M193.083 44.7029C193.153 44.7729 193.317 44.8153 193.083 44.7029V44.7029Z" fill="#404044"/>
<path fill-rule="evenodd" clip-rule="evenodd" d="M103.93 137.58C105.03 136.466 109.707 136.691 110.06 138.685C110.454 140.912 106.275 144.274 104.746 145.217C102.778 146.43 100.375 146.657 100.724 143.611C100.988 141.31 102.365 139.168 103.93 137.58ZM107.793 135.285C107.936 135.902 106.884 135.692 106.595 135.546C106.459 135.266 107.65 134.666 107.793 135.285ZM99.7274 139.368C100.66 139.452 101.729 137.954 102.433 137.444C102.744 137.925 100.693 140.57 100.467 141.174C99.9034 142.682 99.5899 144.587 100.358 146.091C102.604 150.487 108.351 144.21 109.789 142.017C110.794 140.484 111.491 138.582 110.07 137.079C109.564 136.544 108.729 136.396 108.259 135.887C107.64 135.218 108.127 134.354 106.884 134.5C106.026 134.601 104.996 135.376 104.162 135.656C103.156 135.994 102.252 136.344 101.375 136.969C101.177 137.111 98.5749 139.264 99.7274 139.368Z" fill="#404044"/>
<path fill-rule="evenodd" clip-rule="evenodd" d="M165.66 140.843C165.073 143.863 162.083 146.961 158.937 147.082C155.804 147.201 154.789 143.916 155.342 141.297C155.814 139.064 157.743 135.184 160.494 135.611C162.658 135.947 166.162 138.254 165.66 140.843ZM163.664 135.796C161.678 134.257 158.933 133.545 156.631 134.766C155.876 135.166 152.862 136.931 153.779 138.126C155.016 137.168 156.083 135.837 157.69 135.518C157.419 136.764 155.876 137.886 155.333 139.1C154.697 140.518 154.349 142.141 154.453 143.699C154.639 146.473 156.495 148.629 159.369 148.247C162 147.898 164.3 145.88 165.556 143.611C167.231 140.581 166.287 137.827 163.664 135.796Z" fill="#404044"/>
<path fill-rule="evenodd" clip-rule="evenodd" d="M145.216 147.708C143.801 149.804 141.645 151.776 139.151 152.424C135.923 153.261 136.83 150.591 137.794 148.675C138.647 146.981 140.111 144.067 142.339 144.082C143.095 144.087 144.504 144.453 145.167 144.858C146.473 145.656 145.961 146.605 145.216 147.708ZM142.203 143.102C142.711 142.536 144.958 140.11 145.26 142.001C145.905 141.252 145.396 140.63 144.569 140.551C143.573 140.456 142.483 141.567 141.763 142.119C140.283 143.254 139.143 144.417 138.162 146.009C137.08 147.764 134.322 151.731 136.736 153.473C139.345 155.356 143.143 151.879 144.776 150.086C145.821 148.939 147.205 147.255 146.808 145.573C146.32 143.507 143.919 143.29 142.203 143.102Z" fill="#404044"/>
<path fill-rule="evenodd" clip-rule="evenodd" d="M131.07 109.321C129.61 110.988 126.644 113.417 124.201 113.131C121.972 112.87 122.842 110.366 123.631 109.154C124.816 107.333 126.403 105.623 128.697 105.524C129.687 105.481 130.97 105.501 131.737 106.252C132.785 107.277 131.842 108.44 131.07 109.321ZM130.915 104.689C129.205 104.097 128.533 103.872 126.871 104.812C125.536 105.567 124.352 106.634 123.436 107.846C122.065 109.66 120.683 113.74 124.203 114.25C128.064 114.81 137.248 106.88 130.915 104.689Z" fill="#404044"/>
<path fill-rule="evenodd" clip-rule="evenodd" d="M136.178 115.098C135.067 116.234 133.68 117.161 132.098 117.477C132.767 115.982 134.262 112.714 136.035 112.259C136.852 112.049 137.783 112.324 137.716 113.256C137.667 113.929 136.616 114.65 136.178 115.098ZM137.608 111.146C136.688 110.684 136.978 110.369 135.908 110.731C135.065 111.016 134.001 111.511 133.299 112.081C132.916 112.392 131.723 113.494 131.869 114.056C132.134 115.075 133.023 113.513 133.257 113.212C133.658 113.539 131.608 116.475 131.486 116.958C131.032 118.757 132.443 118.947 133.826 118.358C135.69 117.565 141.212 112.953 137.608 111.146Z" fill="#404044"/>
<path fill-rule="evenodd" clip-rule="evenodd" d="M164.944 159.549C165.082 158.356 165.277 157.095 166.371 156.425C167.357 155.822 168.377 155.909 168.523 157.147C168.659 158.297 167.533 160.339 166.623 160.966C165.355 161.84 165.11 160.751 164.944 159.549ZM166.573 162.262C169.176 160.738 170.816 153.747 166.018 155.707C163.292 156.82 164.295 163.597 166.573 162.262Z" fill="#404044"/>
<path fill-rule="evenodd" clip-rule="evenodd" d="M144.345 133.275C144.756 132.433 145.225 132.154 146.057 131.786C145.503 132.31 144.935 132.794 144.345 133.275ZM144.946 131.2C144.356 131.792 143.005 132.695 143.194 133.712C143.367 134.64 144.075 134.587 144.718 134.297C146.065 133.691 146.815 131.038 148.224 130.789C146.661 129.798 146.296 129.844 144.946 131.2Z" fill="#404044"/>
<path fill-rule="evenodd" clip-rule="evenodd" d="M145.153 78.5038C145.227 81.3295 145.294 84.1549 145.356 86.9807C145.378 87.9739 145.141 89.3896 145.439 90.3408C145.57 90.7598 146.759 92.5763 147.181 92.6938C148.657 93.105 148.13 89.4011 148.14 88.4891C148.176 85.4122 148.131 82.3318 148.119 79.2546C148.112 77.669 148.559 64.3729 146.503 64.4377C146.149 64.4491 145.277 65.9694 145.145 66.274C144.732 67.2312 144.884 68.65 144.894 69.6701C144.922 72.6134 145.074 75.5609 145.153 78.5038Z" fill="#404044"/>
<path fill-rule="evenodd" clip-rule="evenodd" d="M157.6 86.7409C157.716 87.5221 157.655 88.825 158.533 89.23C159.298 89.5822 159.591 89.1632 159.877 88.5086C160.535 87.0025 160.297 84.7001 160.285 83.143C160.261 80.057 159.914 76.984 159.674 73.9096C159.568 72.5607 159.787 71.2057 159.619 69.7942C159.545 69.1748 159.471 66.6829 158.324 66.7989C157.287 66.9037 157.38 69.5154 157.324 70.1883C156.853 75.7898 156.772 81.1493 157.6 86.7409Z" fill="#404044"/>
<path fill-rule="evenodd" clip-rule="evenodd" d="M206.564 151.065C206.125 153.315 198.951 161.149 197.145 156.768C196.073 154.168 198.396 151.338 200.207 149.833C201.329 148.902 202.729 147.988 204.257 148.27C205.554 148.51 206.843 149.637 206.564 151.065ZM202.86 147.03C202.353 147.15 198.118 150.126 198.079 150.087C197.712 149.718 200.383 145.733 200.658 145.384C202.922 142.513 204.425 144.687 205.841 146.944C205.54 145.596 204.71 143.639 203.323 143.069C201.573 142.349 200.207 144.126 199.365 145.403C198.175 147.208 197.518 149.169 196.857 151.206C196.542 152.177 196.182 153.058 195.648 153.934C195.121 154.799 194.198 155.752 194.335 156.845C195.084 156.428 195.482 155.612 195.955 154.939C196.481 155.153 196.3 156.834 196.407 157.262C196.676 158.338 197.41 159.179 198.546 159.364C200.662 159.709 202.946 157.749 204.361 156.418C205.852 155.016 207.457 153.094 207.444 150.935C207.43 148.681 205.214 146.472 202.86 147.03Z" fill="#404044"/>
<path fill-rule="evenodd" clip-rule="evenodd" d="M208.597 110.881C207.396 112.72 205.289 114.925 203.06 115.352C201.424 115.666 200.345 114.452 201.002 112.814C201.557 111.429 203.449 110.554 204.689 109.945C205.673 109.462 210.258 108.336 208.597 110.881ZM207.714 107.873C205.254 107.78 203.271 109.56 201.437 110.98C201.851 109.349 202.788 107.574 204.107 106.512C205.902 105.066 207.604 105.964 209.494 106.687C209.028 105.214 206.935 104.684 205.601 104.892C203.915 105.156 202.703 106.596 201.851 107.989C200.834 109.652 200.486 111.611 199.289 113.17C198.741 113.884 195.348 116.554 196.116 117.646C197.384 116.299 198.651 114.953 199.919 113.606C200.247 115.198 200.61 117.01 202.64 116.855C204.261 116.731 206.111 115.352 207.296 114.297C208.827 112.936 211.841 108.029 207.714 107.873Z" fill="#404044"/>
<path fill-rule="evenodd" clip-rule="evenodd" d="M173.262 123.576C172.22 124.056 169.927 124.707 169.345 123.267C168.535 121.266 171.139 117.757 172.378 116.424C173.141 115.604 173.658 115.18 174.721 115.71C175.569 116.134 176.816 117.339 177.142 118.265C177.841 120.253 174.892 122.826 173.262 123.576ZM175.653 113.968C176.501 114.159 176.605 115.238 175.544 114.823C174.749 114.513 174.564 113.722 175.653 113.968ZM176.718 115.487C176.401 114.519 177.045 113.002 175.485 112.932C174.601 112.893 172.981 113.792 172.21 114.158C171.14 114.665 170.133 115.438 169.574 116.528C169.057 117.537 169.426 117.803 170.215 116.965C170.311 117.031 168.431 121.885 168.415 122.372C168.341 124.594 169.913 126.058 172.121 125.664C174.15 125.302 175.979 123.641 177.096 121.965C177.661 121.116 178.125 120.145 178.167 119.106C178.232 117.512 177.171 116.871 176.718 115.487Z" fill="#404044"/>
<path fill-rule="evenodd" clip-rule="evenodd" d="M186.451 114.672C185.595 113.021 187.579 110.244 189.355 111.056C193.054 112.748 187.575 116.835 186.451 114.672ZM189.774 112.517C189.377 112.533 186.868 113.503 187.237 114.161C187.744 115.063 189.575 112.88 189.774 112.517Z" fill="#404044"/>
<path fill-rule="evenodd" clip-rule="evenodd" d="M68.46 109.467C68.3608 108.764 66.7865 109.784 66.7957 110.237C67.056 109.716 68.6666 110.932 68.46 109.467Z" fill="#404044"/>
<path fill-rule="evenodd" clip-rule="evenodd" d="M154.552 56.3548C156.556 56.2074 154.002 46.0872 152.541 46.9822C150.958 47.9522 152.712 56.4899 154.552 56.3548Z" fill="#404044"/>
<path fill-rule="evenodd" clip-rule="evenodd" d="M158.294 51.6293C160.172 51.8984 159.873 47.583 158.863 46.8107C156.999 45.385 156.014 51.3024 158.294 51.6293Z" fill="#404044"/>
</svg>
