<svg width="231" height="154" viewBox="0 0 231 154" fill="none" xmlns="http://www.w3.org/2000/svg">
<path opacity="0.1" d="M70.5 151.5C16.1 144.7 0 139.5 0 99.9998C2.5 23.5 77.6667 5.33312 99 9.49978C109.5 11.4998 143.8 21.1998 197 43.9998C250.2 66.7998 228.833 111.5 211.5 131C187.167 140.666 124.9 158.3 70.5 151.5Z" fill="#595DD9"/>
<path fill-rule="evenodd" clip-rule="evenodd" d="M194.746 140.749C195.874 141.33 196.928 141.33 198.038 141.782C199.139 142.231 199.426 144.091 200.368 144.313C196.002 144.773 191.703 145.747 187.284 145.263C187.667 143.702 186.98 142.105 187.9 140.641C190.361 138.311 191.961 139.315 194.746 140.749ZM176.311 33.5069C176.368 34.604 176.449 35.04 177.227 35.7477C177.837 36.3022 178.18 35.4755 178.238 36.5585C178.271 37.1832 177.623 37.4968 177.372 38.0017C176.12 40.5174 176.984 43.7665 177.599 46.2724C178.846 51.3537 181.892 56.8784 179.746 62.0431C179.529 62.5639 179.356 63.6929 178.938 64.0917C178.386 63.8001 177.984 63.9276 177.73 64.4738C177.578 64.6451 177.426 64.8164 177.273 64.9875C176.309 65.8802 175.282 66.212 174.002 65.7375C171.42 64.7812 170.994 61.7806 170.98 59.4185C170.965 56.815 171.519 54.0884 172.111 51.5521C172.397 50.3308 172.836 48.9131 172.018 47.761C171.246 46.6728 170.292 47.2863 169.532 46.8005C168.722 46.2835 169.888 42.4834 169.09 41.4757C167.698 39.7163 167.213 44.0204 167.191 44.8995C167.166 45.8624 167.219 46.9859 167.672 47.8588C168.028 48.5445 169.188 49.1463 169.387 49.8387C169.573 50.4856 168.757 52.1662 168.631 52.8605C168.437 53.9303 168.369 55.0232 168.313 56.1075C168.125 59.7704 168.699 63.6253 171.219 66.4677C172.323 67.7143 174.195 69.1298 175.947 68.9027C177.493 68.7024 179.046 67.8669 180.488 67.2992C181.458 71.0273 182.914 74.6378 184.466 78.1584C185.815 81.2188 187.083 84.3532 188.5 87.3762C191.486 93.7479 196.333 99.1757 200.12 105.067C203.776 110.755 205.827 117.282 206.319 123.996C206.435 125.584 205.971 127.757 206.341 129.241C206.688 130.633 206.992 131.238 206.765 132.756C206.513 134.442 206.024 135.998 206.234 137.714C206.42 139.237 207.145 141.506 206.353 142.916C205.401 141.901 204.451 141.423 203.874 140.069C203.287 138.695 203.518 137.566 202.189 136.962C201.054 136.446 200.24 136.559 199.238 135.714C198.021 134.688 197.192 133.434 196.592 131.966C195.569 129.459 195.421 126.742 196.286 124.168C196.98 122.104 199.006 118.241 201.846 119.624C201.424 118.757 201.144 117.814 200.339 117.25C199.638 116.759 198.589 116.599 197.807 116.041C196.931 115.417 195.941 114.752 194.964 114.295C194.584 114.118 194.226 114.029 193.834 113.908C193.364 113.763 192.472 113.867 192.414 113.858C190.736 113.604 188.865 112.796 187.841 111.578C187.07 110.661 186.388 109.805 185.799 108.756C185.035 107.394 184.741 107.476 183.274 107.153C181.143 106.683 179.791 106.363 178.086 104.78C176.195 103.025 174.812 100.838 173.428 98.6849C172.618 97.4231 171.905 97.346 170.584 96.8422C169.816 96.5495 168.753 95.2384 168.053 95.1411C167.852 95.1129 166.885 95.5533 166.558 95.606C165.974 95.7006 165.466 95.6837 164.881 95.6223C163.537 95.4811 162.35 95.125 161.447 94.0729C158.665 90.833 157.817 83.1956 161.625 80.4393C162.351 79.9143 163.362 79.6726 163.79 78.8003C164.281 77.7995 164.057 75.9141 164.018 74.8589C163.973 73.6546 163.917 72.3439 163.737 71.1568C163.654 70.6111 163.593 70.3816 163.37 69.8353C162.929 68.7519 162.8 68.9096 161.891 68.6491C160.594 68.2778 160.008 68.4238 159.213 67.192C158.579 66.2094 158.282 64.9716 158.224 63.8098C158.171 62.726 158.659 61.7243 158.251 60.7426C157.654 59.306 156.547 58.2186 156.061 56.6463C155.652 55.3222 154.596 52.3668 155.637 51.1451C156.104 50.5977 156.933 50.5176 157.395 49.7849C158.202 48.5093 158.527 47.8117 159.724 46.8062C160.606 46.0644 161.454 44.9589 162.518 44.5053C163.565 44.0592 164.552 44.7772 165.402 44.5804C166.328 44.3655 166.084 42.216 166.341 41.248C166.688 39.9429 167.431 38.5822 168.331 37.5638C168.631 37.2235 169.006 37.1581 169.24 36.7058C169.557 36.0934 169.431 35.2208 169.679 34.5511C169.974 33.7509 170.69 32.3733 171.49 31.9346C173.83 30.653 174.532 33.9555 176.311 33.5069ZM170.838 128.277C171.168 129.167 170.985 130.598 171.365 131.364C171.668 131.974 172.882 132.361 173.478 133.089C174.753 134.647 175.239 137.15 174.776 139.074C173.216 138.689 172.172 138.442 170.585 138.645C170.425 135.158 170.575 131.764 170.838 128.277ZM151.549 130.906C152.611 132.091 153.138 133.488 152.985 135.072C152.93 135.636 152.758 136.426 152.592 136.968C152.409 137.562 151.503 138.676 151.855 138.994C150.864 138.935 149.7 139.05 148.986 138.409C148.346 137.834 147.897 136.351 147.637 135.565C148.138 134.566 148.638 133.567 149.138 132.568C149.464 133.085 150.42 134.435 151.21 134.003C151.804 133.678 151.324 131.563 151.549 130.906ZM188.817 121.669C190.032 122.799 190.448 124.836 190.386 126.418C190.406 128.598 189.652 132.961 186.82 133.107C184.545 133.225 182.118 129.963 181.862 127.947C181.581 125.737 182.312 120.452 185.207 119.997C186.272 119.83 188.049 120.954 188.817 121.669ZM168.478 124.487C168.526 125.916 168.55 127.291 168.437 128.715C168.342 129.906 168.657 131.312 168.391 132.452C166.708 130.567 164.49 128.514 164.557 125.743C164.621 123.124 166.789 123.347 168.478 124.487ZM151.512 92.9966L152.921 94.5425C152.961 96.7143 152.918 98.8618 153.579 100.956C154.274 103.16 155.439 105.283 156.592 107.276C158.834 111.148 159.369 114.801 159.639 119.229C155.423 117.339 153.123 110.878 151.732 106.837C150.996 104.698 150.232 102.557 149.537 100.404C148.852 98.2809 147.641 95.507 148.438 93.2705C149.97 94.3976 150.632 94.9785 151.512 92.9966ZM177.786 108.24C179.845 109.879 180.001 112.387 180.74 114.679C180.314 115.019 179.846 115.319 179.461 115.708C179.223 115.948 178.663 116.93 178.48 117.031C177.751 117.434 177.114 116.916 176.401 116.265C174.998 114.983 174.122 112.262 174.188 110.38C174.265 108.182 175.818 106.673 177.786 108.24ZM206.593 98.6105C209.269 100.145 208.571 104.39 208.237 106.785C208.028 108.285 208.492 109.812 208.46 111.24C208.424 112.852 207.588 112.518 207.054 113.518C206.59 112.305 205.739 110.845 205.545 109.573L205.238 108.768C205.498 108.664 205.636 108.482 205.653 108.223C205.762 107.606 205.76 106.978 205.795 106.349C205.936 103.752 206.133 101.172 206.593 98.6105ZM165.82 101.477C165.524 102.608 165.307 104.735 163.643 104.079C162.33 103.562 162.013 101.473 162.01 100.309C162.008 99.3531 162.165 97.5972 163.501 97.5399C165.14 97.4694 165.726 100.374 165.82 101.477ZM153.153 70.0091C152.046 71.7835 151.278 74.4046 151.801 76.5056C152.35 78.7119 154.058 79.2459 155.576 77.6225C156.83 79.5975 154.26 83.1149 151.963 81.237C151.466 80.8313 151.133 80.0547 150.519 79.8017C150.015 79.5944 149.569 79.8761 149.055 79.7592C147.474 79.3996 146.877 77.8454 146.256 76.5409C146.427 75.4775 146.607 74.4234 146.837 73.3706C146.959 72.8108 147.087 72.2519 147.211 71.6924C147.421 70.7417 147.356 70.8604 148.044 70.3892C149.861 69.1472 151.11 69.0858 153.153 70.0091ZM154.091 70.9669L155.42 73.9238C154.696 73.7492 153.907 75.9232 153.434 76.3469C153.213 74.5377 153.743 72.7263 154.091 70.9669ZM153.355 60.8674C154.556 61.3739 154.795 63.5689 154.837 64.6307C154.507 65.7485 154.199 67.1785 152.803 66.3913C151.871 65.8656 151.472 64.135 151.44 63.1897C151.4 62.0043 151.845 60.2306 153.355 60.8674Z" fill="#9AB3F5"/>
<path fill-rule="evenodd" clip-rule="evenodd" d="M144.356 35.1897C143.861 35.4123 144.806 37.076 144.952 37.3812C145.336 38.1779 145.804 39.8242 146.712 39.371C145.926 37.9773 145.141 36.5834 144.356 35.1897ZM28.1773 131.716C27.5155 131.422 26.6303 133.949 26.5124 134.462C26.1834 135.892 26.4587 136.853 27.6026 137.778C27.1291 135.734 27.6963 133.698 28.1773 131.716ZM180.952 23.5096C180.129 22.4403 178.94 20.4549 177.277 21.5059C176.62 21.9212 176.115 23.2524 175.71 23.9027C175.074 24.9235 174.458 25.9063 173.974 27.0053C174.796 26.6671 175.281 25.9316 176.016 25.5295C176.519 25.2549 176.977 25.2285 177.46 25.0283C178.53 24.5862 179.996 24.1526 180.952 23.5096ZM46.7572 128.867C47.2026 130.611 47.6144 132.351 47.959 134.118C48.192 135.313 48.9751 137.003 48.5665 138.173C49.625 138.03 50.6835 137.888 51.742 137.745C50.9568 135.957 50.5436 134.048 50.3104 132.116C50.1676 130.934 50.3506 130.597 49.4604 129.939C48.7711 129.429 47.5575 129.184 46.7572 128.867ZM40.9025 62.096C42.9377 64.1349 44.7176 66.4589 46.8804 68.3586C48.0043 69.3458 49.1564 70.3052 50.3097 71.2574C51.2877 72.0647 52.843 73.8444 54.1159 74.0914C54.2732 73.4412 54.6452 72.3756 54.5456 71.7086C54.917 71.3241 54.8017 71.0434 54.1997 70.8659C53.8314 70.5825 53.4672 70.2944 53.1066 70.0011C51.6919 68.8193 50.3531 67.5355 49.0125 66.2713C47.6798 65.0148 46.447 63.7002 45.2901 62.2805C44.6807 61.5329 44.3242 60.7833 43.3247 60.5636C42.1372 60.3026 41.7421 61.2292 40.9025 62.096ZM81.5779 137.8C81.5204 138.908 84.2428 139.587 85.0698 139.653C87.3057 139.833 88.7576 138.851 89.527 136.916C91.1288 132.889 93.6934 129.34 94.766 125.104C95.0841 123.848 95.3596 123.276 94.2258 122.636C93.7605 122.373 92.5488 121.787 92.043 122.122C91.5614 122.44 91.1669 123.872 90.8573 124.392C90.3655 125.219 89.8065 126.005 89.2727 126.804C86.7754 130.546 84.2591 134.189 81.5779 137.8ZM49.2697 82.3302L59.7216 88.3117C60.1574 86.8057 60.3579 85.2356 60.7665 83.7177C61.0573 82.6389 61.8056 81.1151 61.7583 80.168C61.6877 78.7541 60.5935 76.877 60.1165 75.5292C59.522 73.8497 58.9275 72.1697 58.333 70.49C57.528 71.2605 56.601 71.7987 56.5911 72.8026C56.5856 73.3764 56.9678 73.7345 56.7462 74.3845C56.5907 74.8406 55.9293 75.4462 55.6098 75.785C54.6767 76.776 54.706 76.8255 53.7253 75.8989C52.2402 78.0428 50.7548 80.1865 49.2697 82.3302ZM60.7684 110.375C60.9181 108.934 61.1101 107.552 61.434 106.138C61.6331 105.27 62.474 103.486 62.1975 102.668C61.9942 102.066 60.7858 101.543 60.3152 101.216C58.9537 100.269 57.6241 99.2733 56.2763 98.3072C55.0943 97.4601 53.8947 96.6332 52.735 95.7557C51.6609 94.9431 50.8501 93.9324 49.5502 93.584C48.4129 93.2791 46.9698 93.4781 45.7918 93.4389C44.2109 93.3863 42.6056 93.3689 41.0263 93.4462C35.7262 93.7058 29.7887 93.3348 24.6897 94.8143C22.2798 95.5135 20.7262 95.925 19.3791 98.2097C17.8211 100.852 16.4899 103.597 15.3566 106.452C15.1912 106.868 14.8171 107.47 14.831 107.925C14.8587 108.795 15.1696 108.594 16.0028 109.09C16.9032 109.626 17.7857 110.262 18.6457 110.865C20.1205 111.9 21.9515 112.98 23.4816 113.787C25.3225 114.757 27.1771 115.628 29.0497 116.605C30.2362 117.225 31.4644 117.731 32.6283 118.412C33.8919 119.151 35.3066 119.362 36.6688 119.939C40.8866 121.726 44.9687 123.378 49.1077 125.417C53.1478 127.407 57.2342 129.089 61.3678 130.845C66.7101 133.114 71.9997 135.212 77.5713 136.781C77.9792 136.896 78.8368 137.301 79.2397 137.283C80.1011 137.243 80.2962 136.613 80.8137 135.903C81.8307 134.508 82.8102 133.086 83.7829 131.66C85.8927 128.566 87.9559 125.438 90.2274 122.459C83.7906 120.662 77.8223 117.345 72.164 113.942C71.9231 114.619 71.7312 116.12 70.959 116.347C70.0041 116.627 69.3103 115.303 68.8824 114.694C68.4773 115.704 67.7843 119.109 66.4879 119.034C64.6967 118.931 65.0129 116.11 64.7898 114.99C63.8023 116.304 62.658 117.814 61.3161 115.794C60.386 114.394 60.4892 111.936 60.7684 110.375ZM135.347 94.2841C134.517 94.0245 133.692 93.7937 132.88 93.5028C132.667 93.0496 132.312 92.9122 131.817 93.0906C131.411 93.1269 131.017 93.0767 130.633 92.9395C128.938 92.6495 127.059 92.2729 125.439 91.7836C123.996 91.3479 122.635 90.9629 121.169 90.6355C120.299 90.4413 116.421 89.3431 115.848 89.9894C115.672 90.1882 115.975 92.5986 115.932 93.0282C115.856 93.7921 115.819 95.0497 115.335 95.6857C115.15 95.9297 114.444 96.2001 114.188 96.3901C113.359 97.0074 112.593 97.7743 111.768 98.4142C109.967 99.8114 108.213 101.261 106.375 102.613C105.076 103.568 103.589 104.04 102.147 104.734C103.173 104.918 105.182 103.93 106.218 103.623C107.56 103.226 108.876 102.784 110.249 102.42C113.063 101.675 115.946 100.833 118.806 100.039C120.563 99.5512 122.418 99.0432 124.121 98.3975C124.876 98.111 125.469 97.4451 125.968 98.1229C126.366 98.664 125.885 99.3759 125.578 99.7769C123.793 102.115 118.944 102.684 116.349 103.655C113.42 104.749 110.53 105.902 107.514 106.671C103.992 107.57 100.169 108.257 96.887 109.834C94.164 111.143 91.0793 111.65 88.1842 112.418C85.4654 113.139 82.2412 113.284 79.6716 114.508C80.7816 115.385 82.4239 115.843 83.7176 116.433C85.3013 117.155 86.9015 117.813 88.4678 118.579C89.1345 118.904 89.8322 119.388 90.5068 119.659C91.3631 120.003 91.2533 119.822 92.1378 119.752C93.5145 119.643 95.3719 119.396 96.4903 120.399C97.8392 121.609 96.9844 122.935 97.1825 124.415C97.3184 125.43 97.3875 125.267 98.5136 125.422C99.5501 125.565 100.586 125.731 101.608 125.953C102.87 126.227 104.162 126.686 105.392 127.082C107.298 127.696 107.505 128.419 109.493 127.626C115.152 125.368 121.006 123.513 126.702 121.377C129.325 120.393 131.96 118.495 134.429 117.069C137.598 115.239 140.463 113.261 142.608 110.215C143.585 108.826 144.605 106.481 144.4 104.758C144.216 103.217 143.077 101.504 142.342 100.178C141.404 98.486 140.578 97.8294 139.143 96.7052C138.146 95.9239 136.605 94.2737 135.347 94.2841ZM72.3165 107.382C72.4043 108.233 71.9075 111.74 72.3997 112.279C73.2412 113.202 75.3055 112.125 76.1042 111.85C78.6987 110.958 81.7143 111.153 84.3563 110.446C86.9193 109.76 89.4263 108.872 92.0036 108.173C93.3862 107.798 94.6984 107.211 96.0584 106.764C97.5723 106.267 99.2623 105.995 100.666 105.247C100.492 104.815 94.4177 105.855 93.7272 105.911C91.3292 106.106 89.0716 105.736 86.7081 105.301C81.4949 104.341 76.5829 102.066 71.4371 100.589C71.6782 102.965 78.3568 103.438 77.5611 106.194C77.3391 106.962 74.3515 108.218 73.3634 107.736C71.3559 106.756 73.8115 105.378 74.8122 105.034C73.289 104.16 71.8313 103.212 70.441 102.135C68.9526 100.982 68.3121 99.364 67.5143 97.6948C65.8468 94.205 61.9004 92.1749 58.8351 90.0024C55.5205 87.6532 51.9911 85.6562 48.6785 83.3123C48.0873 82.8939 47.8111 83.086 47.6034 82.3221C47.3812 81.504 48.1977 80.4644 48.594 79.8406C49.6356 78.2 50.8488 76.6474 52.2248 75.2742C50.4503 74.0655 48.5335 73.0677 46.8694 71.6996C45.1828 70.3127 43.7869 68.6198 42.2989 67.0321C39.9218 72.2089 36.5903 77.0103 33.974 82.0871C32.9405 84.0923 32.3942 87.1252 33.9658 89.0683C35.6197 91.1133 38.7038 90.3173 41.0384 90.4256C43.5025 90.5401 45.7502 90.8196 48.1806 91.519C49.28 91.8356 50.2809 91.742 51.3376 92.2503C52.577 92.8461 53.7959 93.6116 54.975 94.318C57.2939 95.707 59.4602 97.446 61.6498 99.031C62.548 99.6811 67.4182 103.535 63.566 102.94C63.566 106.546 62.9348 110.24 62.6034 113.828C63.5169 112.737 64.1684 111.627 64.7211 110.315C65.0498 109.535 65.054 107.543 66.1495 108.015C67.7975 108.725 66.5139 113.943 66.5139 115.354C66.9222 114.564 67.2083 113.714 67.5022 112.877C67.7249 112.243 68.0032 110.446 68.4679 110.02C70.0234 108.597 70.2415 112.478 70.2415 113.288C70.7453 111.858 70.838 110.331 70.8886 108.819C70.9084 108.223 70.7612 107.295 70.9117 106.718C71.162 105.756 71.1323 105.819 72.1385 105.412C72.1979 106.069 72.2573 106.725 72.3165 107.382ZM120.37 137.816C120.494 139.036 120.965 139.919 120.164 141.017C121.713 140.906 123.239 140.769 124.791 140.809C126.037 140.84 127.9 141.126 129.063 140.591C129.537 140.374 129.698 140.748 129.941 140.333C130.173 139.938 129.629 138.626 129.564 138.301C129.251 136.74 129.098 135.139 128.813 133.569C128.618 132.489 128.044 130.366 128.765 129.346C129.827 127.845 130.295 129.96 130.571 130.899C131.483 133.991 131.43 136.929 131.43 140.106C132.802 140.106 134.605 139.507 135.928 139.145C137.754 138.646 139.703 138.132 141.472 137.481C143.14 136.866 144.609 135.969 145.664 134.526C146.453 133.446 148.202 130.781 147.768 129.587C147.235 128.123 144.695 127.117 143.338 126.956C141.578 126.747 139.774 127.101 137.973 127.249C136.045 127.409 134.174 127.838 132.267 128.045C130.414 128.246 127.928 128.864 126.128 128.401C126.081 129.142 126.7 130.138 126.916 130.892C127.198 131.881 127.451 132.879 127.68 133.882C127.926 134.955 129.447 138.814 128.064 139.585C126.44 140.49 125.665 136.613 125.463 135.668C124.98 133.414 124.566 131.163 125.071 128.897C122.998 128.523 120.498 129.079 118.36 129.226C119.157 132.034 119.67 134.974 120.37 137.816ZM31.091 139.036C31.8118 139.357 32.8024 139.185 33.5859 139.247C34.8103 139.343 36.0472 139.564 37.2798 139.525C39.1605 139.465 41.1322 139.227 43.0144 139.012C41.9407 137.074 41.2893 135.239 41.1553 133.017C41.1071 132.22 40.684 127.271 42.155 127.483C42.8648 127.585 42.7141 131.81 42.8519 132.589C43.0521 133.718 43.3104 134.874 43.6248 135.979C43.8529 136.781 44.6292 137.982 44.4303 138.849C45.3792 138.695 46.3284 138.541 47.2776 138.387C46.5396 136.915 46.0006 135.595 45.7242 133.953C45.5907 133.16 45.6758 132.173 45.4169 131.42C45.2536 130.946 44.8813 130.5 44.8316 130.102C44.7742 129.642 45.2767 128.514 45.0908 128.107C44.9082 127.706 43.6367 127.335 43.1911 127.114C41.9632 126.505 41.2435 126.351 39.8673 126.701C37.2127 127.376 33.0303 127.855 31.0505 129.676C29.0893 131.48 28.3755 137.566 31.091 139.036ZM147.024 51.0881C147.759 51.0051 148.487 50.9538 149.225 50.9157C148.146 49.3958 147.166 47.8073 146.271 46.172C145.833 45.3709 145.418 44.557 145.022 43.7344C144.567 42.7903 144.579 42.174 143.591 41.9864C142.221 41.7267 140.39 42.2455 138.982 42.1865C137.893 42.1407 135.45 41.1159 134.573 41.4874C135.373 43.127 134.731 45.6781 134.762 47.4431C134.793 49.1983 134.576 50.895 134.267 52.6258C136.134 52.6258 138.472 51.9806 140.356 51.6924C142.551 51.3568 144.789 51.3394 147.024 51.0881ZM117.382 141.193C118.101 141.101 118.785 141.072 119.511 141.072C117.875 138.418 116.64 135.45 116.626 132.287C116.624 131.874 117.121 129.496 116.957 129.299C116.636 128.914 115.306 129.218 114.942 129.254C113.452 129.403 111.796 129.392 110.393 129.929C109.426 130.3 109.415 130.076 109.03 131.216C108.802 131.89 108.639 132.66 108.634 133.369C108.625 134.802 109.082 136.477 109.672 137.767C110.234 138.995 111.121 140.312 112.343 140.971C113.749 141.732 115.732 141.279 117.382 141.193ZM132.255 42.5895C131.972 41.5321 132.095 41.7708 131.154 41.6395C130.956 41.612 128.802 41.6567 128.678 41.7831C128.535 41.9289 128.59 44.0818 128.571 44.3283C128.507 45.1727 128.413 46.015 128.321 46.8569C127.948 50.2745 127.24 53.5828 126.709 56.9722C128.021 56.1579 129.916 57.2682 131.036 56.3867C131.921 55.6902 131.788 53.4613 131.854 52.4778C132.075 49.1862 132.151 45.8864 132.255 42.5895ZM179.603 38.5985C179.485 38.7881 179.367 38.9777 179.249 39.1673C179.707 39.4611 182.387 36.4726 182.983 35.938C183.777 35.2261 185.033 34.2754 185.391 33.2345C185.807 32.0249 185.398 30.1153 185.297 28.8645C185.225 27.9694 185.378 26.7314 184.649 26.106C183.978 25.5306 182.325 25.546 181.53 25.6691C179.145 26.0386 177.711 28.0016 176.507 29.872C177.729 29.7216 182.039 27.7525 182.539 28.8174C183.266 30.3646 178.74 31.7479 178.293 33.1055C179.219 33.4329 181.263 32.1628 180.688 34.2761C180.59 34.5718 180.419 34.8167 180.175 35.0107C179.752 35.1607 179.652 35.4432 179.874 35.8585C179.685 36.6862 179.724 37.7335 179.603 38.5985ZM207.054 113.518C207.067 114.02 207.113 114.499 207.522 114.854C208.431 111.974 208.715 109.092 209.091 106.097C209.468 103.102 209.869 100.032 209.928 97.0386C209.995 93.6842 209.679 90.0352 209.137 86.7211C208.713 84.1302 208.384 80.942 206.841 78.7369C207.717 84.4515 207.445 89.8694 206.854 95.604C206.54 98.649 206.097 101.67 205.894 104.729C205.84 105.536 205.823 106.354 205.753 107.16C205.712 107.635 205.242 108.535 205.238 108.768C205.214 110.063 206.599 112.329 207.054 113.518ZM160.419 109.067C161.148 110.746 161.976 112.4 162.414 114.185C162.875 116.07 162.676 117.825 162.75 119.735C162.873 122.904 162.619 126.054 162.663 129.228C162.701 131.933 162.598 134.57 162.625 137.246C162.642 138.939 162.549 140.626 162.555 142.318C162.555 142.313 162.622 143.836 162.506 143.914C161.984 144.261 161.413 143.768 161.253 143.293L159.706 145.046C160.517 144.842 161.514 144.416 162.348 144.378C162.668 144.261 162.985 144.257 163.302 144.368C163.617 144.559 163.85 144.824 164.001 145.164C166.186 145.63 167.498 143.683 167.89 141.943C168.741 138.167 168.435 134.439 168.373 130.627C168.239 122.346 169.554 114.114 169.429 105.832C169.405 104.229 169.344 102.645 169.585 101.046C170.032 98.074 170.691 100.794 170.797 102.197C171.115 106.411 171.669 110.76 171.365 115C171.09 118.821 171.116 122.677 170.926 126.509C170.723 130.582 170.398 134.569 170.585 138.645C171.678 138.506 175.193 138.297 175.559 139.834C175.879 141.174 174.594 140.678 173.927 140.621C172.845 140.529 171.788 140.784 170.605 140.571C170.692 142.374 170.94 144.791 169.331 146.008C168.539 146.607 167.228 147.147 166.303 147.5C165.397 147.847 163.861 148.613 162.917 148.571C162.249 148.542 161.991 148.182 161.258 148.239C160.171 148.325 159.229 149.053 158.076 148.451C155.889 147.31 156.964 143.992 158.345 142.662C158.701 142.319 159.101 141.944 159.578 141.777C159.805 141.698 160.756 141.794 160.865 141.674C161.27 141.235 160.765 138.665 160.711 138.178C160.427 135.619 160.118 133.007 160.002 130.437C159.893 128.021 159.771 125.6 159.688 123.183C159.67 122.656 159.903 121.574 159.683 121.114C159.316 120.35 157.709 119.863 157.012 119.507C157.633 125.598 158.546 132.146 156.297 137.948C155.85 139.1 155.349 140.744 154.217 141.385C153.15 141.989 150.636 141.904 149.357 141.976C147.982 142.053 146.636 141.732 145.878 140.439C145.282 139.422 145.64 138.202 146.864 137.759C147.596 137.493 147.739 137.664 148.381 137.98C148.521 138.206 148.618 138.449 148.675 138.71H149.168C149.837 139.008 152.51 139.342 153.246 138.866C154.097 138.314 154.283 136.822 154.646 135.936C155.321 134.289 155.499 132.953 155.744 131.192C156.127 128.437 155.739 125.242 155.747 122.372C155.749 121.563 155.752 120.755 155.753 119.946C155.755 118.725 155.861 118.733 155.165 117.854C154.116 116.529 152.92 115.175 151.797 113.905C152.405 117.616 152.156 121.522 151.914 125.218C151.779 127.295 151.498 129.41 151.369 131.459C151.331 132.075 151.773 133.773 151.058 134.045C150.333 134.321 149.431 133.033 149.138 132.568C147.54 135.76 145.632 138.838 142.335 140.49C140.639 141.339 138.874 141.722 137.024 142.055C135.309 142.363 133.725 142.926 132.035 143.192C128.537 143.741 125.316 143.819 121.796 143.699C118.475 143.586 115.295 144.199 111.985 143.427C110.693 143.125 109.388 142.571 108.504 141.582C108.022 141.041 107.809 140.191 107.323 139.693C107.214 139.049 106.835 138.85 106.187 139.097C105.78 139.115 105.374 139.102 104.97 139.056C101.65 138.882 97.9605 139.077 94.7433 138.127C93.5222 137.767 92.1589 137.174 92.7682 135.644C93.3006 134.307 94.7699 134.713 95.9748 134.83C99.4747 135.169 102.92 135.788 106.47 136.1C106.356 134.243 106.454 132.349 107.181 130.613C104.718 130.303 102.165 129.837 99.8216 129.05C99.098 128.807 98.3776 128.554 97.6597 128.294C96.4764 127.866 96.7224 127.755 96.037 128.502C95.1759 129.441 94.6487 131.401 94.0247 132.535C93.3226 133.812 92.6489 135.074 92.0573 136.407C91.4973 137.668 91.0797 139.357 90.2265 140.444C88.3497 142.835 84.015 143.043 81.4641 142.103C80.2146 141.643 79.7636 141.571 79.0063 140.45C78.1766 139.222 77.9704 139.15 76.4419 138.984C73.6817 138.683 71.0767 137.989 68.491 137.032C65.7592 136.021 62.9541 135.232 60.2303 134.14C57.6804 133.118 55.216 132.089 52.5777 131.291C52.2646 133.283 53.5618 135.529 53.5618 137.582C55.0969 137.428 56.5284 137.293 58.0501 137.049C58.5926 136.962 62.0111 136.194 62.3447 136.647C63.735 138.535 57.4089 139.424 56.4201 139.673C53.2516 140.473 50.0206 141.217 46.832 141.836C43.5775 142.467 40.4048 143.096 37.1009 143.209C31.5104 143.401 23.7993 143.078 24.0662 135.727C24.1709 132.846 25.3566 129.72 27.6255 127.841C29.0371 126.673 30.7975 126.03 32.5234 125.501C33.161 125.306 36.5201 124.849 36.6222 124.597C35.6756 123.918 34.0578 123.741 32.9348 123.218C31.8642 122.719 30.7344 122.533 29.6384 122.03C27.4486 121.026 25.3335 119.797 23.3086 118.555C21.6983 117.567 20.0701 116.476 18.5876 115.301C17.4096 114.367 16.2807 113.47 15.339 112.403C14.8462 111.845 13.9738 111.351 13.5791 110.87C12.1929 109.182 13.6548 105.822 14.2451 103.857C15.1073 100.984 16.258 97.9265 17.9551 95.4377C19.5157 93.1489 21.2556 91.607 24.055 91.0708C26.6387 90.576 29.2367 90.4193 31.8791 90.2803C31.4351 88.5898 30.8101 87.3967 30.9687 85.5426C31.1183 83.7937 32.0006 82.0561 32.693 80.4633C33.9804 77.5027 35.1949 74.6047 36.9555 71.8788C37.9231 70.3808 39.01 68.9587 40.0664 67.5232C40.2367 67.2917 41.2954 66.233 41.2549 65.9348C41.2147 65.6384 40.1515 64.736 39.9887 64.5292C38.8954 63.1402 38.1396 61.6446 39.4235 60.1579C40.0928 59.3828 42.0607 57.8176 43.0078 58.8024C44.032 56.7311 45.8235 55.3189 47.2182 53.5568C48.957 51.3596 50.6173 49.129 52.245 46.8276C53.8657 44.5361 55.1896 42.0744 57.3379 40.2278C59.7319 38.17 61.9856 38.3479 64.926 39.2276C65.0938 38.0925 65.3273 38.2435 66.4243 37.8646C67.2547 37.5776 68.0617 37.2372 68.8782 36.9133C69.746 36.5686 70.6243 36.3731 71.5114 36.1023C72.6932 35.7416 72.8707 35.8594 73.0628 34.3234C73.2952 32.4675 72.5015 30.5053 71.9898 28.7571C71.7372 27.8945 71.5616 26.8208 70.9933 26.2406C70.4791 25.7158 69.5675 25.4769 69.0052 24.8967C64.1598 19.8978 64.0835 9.22441 69.2448 4.57852C70.2478 3.67545 71.0751 2.46058 72.3238 1.85083C73.6947 1.18119 75.5031 0.639701 77.0131 0.324147C80.1255 -0.3259 83.6161 -0.119567 86.0764 2.07016C87.2898 3.15004 88.0298 4.86655 88.4434 6.39984C88.8386 7.86442 88.7539 10.34 87.256 8.07648C86.3114 6.64889 85.4907 5.19289 83.8918 4.48669C82.463 3.8558 80.7182 3.51514 79.1616 3.64903C75.4929 3.96436 72.52 5.04249 69.9805 7.76005C67.1726 10.7648 67.0298 15.5619 67.6351 19.3827C68.1684 18.2526 68.5297 16.4632 70.025 16.2474C71.2712 16.0675 73.2357 17.66 72.5669 19.031C69.5321 18.2568 68.6446 22.8498 71.2688 23.1264C72.0633 23.2101 73.0694 21.7946 73.801 22.1243C75.1691 22.7404 73.3356 24.8636 72.9741 25.5628C72.7821 25.681 72.59 25.7993 72.3979 25.9178C72.5871 26.3577 72.7781 26.797 72.9711 27.2355C73.2049 27.7946 73.4276 28.355 73.6331 28.9253C74.1332 30.3133 74.6518 31.7444 74.9532 33.1903C75.2595 34.6604 75.4186 36.3771 74.6945 37.7582C73.8987 39.2763 73.1491 39.0896 72.5376 37.6455C70.9372 38.6551 69.3279 39.7317 67.4465 40.13C69.4195 43.4428 71.9735 46.2907 75.8137 47.3327C79.0685 48.216 83.1655 48.1836 86.2711 46.7225C89.4938 45.2064 91.2672 41.6629 90.8835 38.1374C90.7591 36.9956 90.0951 33.0297 91.6747 35.8986C92.5409 37.4719 92.6045 40.0241 92.4069 41.7494C91.4623 50.0023 83.1035 53.0898 75.8958 51.1031C72.1983 50.0838 69.5339 47.3554 67.5502 44.1437C67.0875 43.3948 66.6641 42.6219 66.2507 41.8448C66.0855 41.5343 65.94 41.1007 65.7196 40.8283C64.8556 39.761 65.7044 40.3557 64.7871 40.2221C63.3676 40.0155 61.1337 41.1036 60.0795 41.9657C57.2195 44.3045 55.6353 48.0458 53.4402 50.9934C51.1031 54.1314 48.135 56.9242 45.1577 59.428C48.5255 62.8806 51.8932 66.3327 55.2611 69.7851C55.9568 69.0144 57.2793 67.2527 57.4644 66.2222C57.5728 65.6182 57.0859 63.6301 58.5834 64.5149C59.5944 65.1126 59.9779 67.6698 60.2932 68.716C60.7803 70.3319 61.6006 71.8535 62.1308 73.4526C63.1143 76.4197 64.326 79.3605 65.3334 82.3487C65.7431 83.5638 66.9112 85.0718 65.7889 86.1006C64.0831 87.6636 63.5759 84.5862 63.1242 83.4105C62.4952 84.2859 62.5768 85.7051 62.2525 86.726C62.0545 87.3496 61.4514 88.3203 61.4714 88.9346C61.5055 89.9852 62.4584 90.2979 63.3172 90.885C64.9147 91.9772 66.5541 93.0434 68.0175 94.3156C68.6281 94.8463 69.1898 95.3831 69.6353 96.0658C70.0243 96.6618 70.1414 98.0055 70.5713 98.4204C71.1337 98.9626 73.2124 98.5847 74.3101 98.7027C76.1431 98.9 78.0008 99.5525 79.7803 100.021C82.9292 100.851 86.168 102.045 89.4659 102.488C92.7046 102.923 95.7437 102.707 98.9717 102.127C100.735 101.811 102.629 101.432 104.238 100.584C106.091 99.6064 107.734 98.043 109.465 96.8622C110.24 96.3337 111.033 95.8341 111.825 95.3331C112.884 94.6637 112.607 94.8086 112.676 93.745C112.756 92.5138 113.269 90.1629 112.448 89.0672C112.104 88.6098 111.052 88.2753 110.556 87.9426C109.835 87.4584 109.189 86.896 108.417 86.5064C107.574 86.0812 107.549 86.4179 107.158 85.3748C106.802 84.4275 106.567 83.4352 106.241 82.478C104.748 78.0996 104.362 73.653 103.744 69.0813C103.456 66.9579 102.751 64.0684 103.55 61.9997C104.66 59.1228 105.59 63.1464 105.824 64.1776C106.884 62.36 107.494 60.3385 108.597 58.5441C109.24 57.4979 109.554 56.9632 109.917 55.8168C110.063 55.3526 110.122 54.967 110.432 54.5815C111.089 53.7658 111.186 54.2307 111.868 54.2106C114.015 54.1477 116.125 54.2029 118.274 54.3025C119.461 54.3575 120.649 54.3866 121.844 54.3822C122.427 54.38 123.017 54.3516 123.599 54.385C123.913 54.3817 124.225 54.4051 124.536 54.4553C125.177 54.7548 125.421 54.4967 125.27 53.6808C125.828 52.5122 125.791 50.6475 125.988 49.3725C126.187 48.0891 126.372 46.8036 126.538 45.5154C126.627 44.8268 127.373 42.2286 126.977 41.6629C126.584 41.102 124.54 41.2278 123.935 41.1271C119.914 40.4581 116.174 38.7998 112.413 37.4411C110.561 36.7723 108.804 35.8693 107.028 35.0488C106.103 34.6216 105.229 33.7419 104.255 33.4679C103.025 33.1222 101.393 33.6749 100.167 33.883C97.8315 34.2796 95.5787 34.6269 93.2091 34.7559C92.3719 34.8015 90.7794 35.0365 90.0241 34.4606C88.5068 33.3041 90.2344 32.6279 91.226 32.4819C95.6126 31.8362 99.9858 31.4652 104.406 31.1956C104.613 31.1831 105.372 31.0287 105.625 31.1084C106.2 31.2903 105.968 31.5013 106.313 31.6889C106.952 32.0364 107.681 32.2923 108.492 32.5078C110.807 33.1231 113.138 34.1554 115.46 34.9667C119.639 36.4262 124.632 38.7533 128.812 38.3442C129.843 38.2433 130.692 38.1143 131.77 38.2189C133.033 38.3415 133.77 38.9898 134.74 39.1783C136.04 39.4307 137.899 39.2411 139.268 39.2895C140.573 39.3358 141.878 39.3963 143.184 39.3963C142.037 37.0894 141.339 34.9235 140.695 32.446C140.343 31.0948 139.815 29.8676 140.044 28.4446C140.152 27.773 140.42 27.1419 140.713 26.5352C141.154 25.6194 141.279 25.811 141.436 24.7967C141.652 23.4008 141.343 21.9289 141.512 20.5289C141.686 19.092 142.771 17.8113 142.892 16.4377C142.956 15.7068 142.547 15.1103 142.67 14.3219C142.779 13.6169 143.196 12.8776 143.571 12.2839C144.444 10.9006 145.506 10.1162 146.981 9.55274C148.166 9.09978 149.679 8.68425 150.877 9.41775C152.099 10.166 152.011 11.672 152.596 12.7708C153.855 15.1336 156.76 17.2452 159.075 18.4519C161.202 19.5604 163.494 20.2607 165.775 20.9836C167.163 21.4236 168.59 21.7374 169.954 22.2401C170.936 22.6021 172.537 23.4801 173.537 22.9467C174.409 22.4819 175.425 21.0633 176.288 20.4047C177.297 19.6342 178.643 18.8822 179.914 19.5534C181.184 20.2243 181.08 22.6977 182.068 23.1628C182.413 23.3248 183.435 22.8501 183.905 22.9249C184.663 23.0456 185.185 23.5153 185.64 24.0936C187.337 26.2544 187.863 29.6819 187.937 32.3458C187.975 33.6763 187.942 35.3311 187.13 36.4608C186.183 37.7785 184.391 37.8111 183.176 38.7383C182.203 39.48 181.514 40.6924 180.528 41.4828C179.92 41.9699 179.685 41.5957 179.433 42.3548C179.269 42.8485 179.601 43.8116 179.698 44.2893C180.303 47.2361 181.435 49.9541 182.509 52.7612C183.015 54.084 183.444 55.407 183.675 56.8088C183.827 57.7286 183.652 58.5328 183.725 59.4178C183.777 60.0478 184.045 60.592 183.986 61.2381C183.861 62.6062 183.119 63.8147 182.647 65.0181C182.108 66.39 182.848 68.7658 183.39 70.1846C184.689 73.5837 186.516 77.0178 188.139 80.2836C189.733 83.4918 190.919 86.9083 192.776 89.9903C194.58 92.9833 196.703 95.914 198.755 98.7448C199.897 100.319 201.109 101.817 202.143 103.469C202.37 103.83 203.914 106.825 204.314 106.721C203.823 101.495 204.32 96.0589 204.539 90.8359C204.814 84.2978 203.982 78.3753 202.144 72.1343C201.714 70.6752 201.331 69.1822 201.029 67.6912C200.817 66.6472 200.22 65.7893 201.687 66.2458C204.115 67.0013 206.253 71.5904 207.488 73.5878C210.254 78.0618 212.564 84.028 212.874 89.2755C213.178 94.4261 212.915 99.3543 212.272 104.429C211.955 106.932 211.442 109.723 210.658 112.118C210.255 113.349 209.771 114.625 209.234 115.805C209.008 116.303 208.51 116.866 208.424 117.413C208.288 118.281 208.924 119.453 209.083 120.31C209.603 123.116 209.722 126.024 209.545 128.871C209.45 130.398 209.24 131.764 208.742 133.2C208.107 135.03 208.402 136.427 208.666 138.313C208.949 140.332 209.219 144.92 207.122 146.066C206.974 146.051 206.826 146.036 206.677 146.021C206.303 145.588 205.97 145.614 205.68 146.098C205.137 146.275 204.607 146.731 204.036 146.927C202.711 147.383 201.28 147.41 199.898 147.611C197.192 148.003 194.495 148.694 191.836 148.778C188.688 148.877 185.404 148.754 182.326 148.201C181.689 148.087 180.946 147.785 180.309 147.727C179.446 147.649 178.84 148.223 177.948 148.088C176.566 147.879 175.693 146.415 175.603 145.216C175.315 141.395 177.433 139.642 180.895 138.964C178.658 135.758 176.083 133.129 175.488 129.013C174.902 124.963 176.172 120.275 178.48 117.031C180.695 113.916 184.475 111.833 188.374 112.624C190.183 112.991 198.718 115.513 197.068 118.373C196.702 117.065 194.452 117.318 193.365 117.129C191.561 116.815 189.758 116.343 187.928 116.44C184.329 116.632 180.85 118.762 179.108 121.988C177.098 125.706 178.015 129.417 180.434 132.592C182.646 135.495 184.926 138.545 187.9 140.641C187.325 141.556 187.533 141.843 186.391 141.679C185.607 141.567 184.873 140.955 184.081 140.802C182.437 140.487 179.851 141.834 178.835 143.182C178.235 143.978 178.258 144.372 179.364 144.862C180.18 145.224 181.466 145.037 182.342 145.115C184.523 145.31 186.746 145.375 188.935 145.368C192.722 145.354 196.245 144.746 199.993 144.352C201.655 144.177 203.392 144.379 205.018 143.767C207.219 142.938 206.68 140.504 206.395 138.532C206.112 136.579 206.4 135.065 206.706 133.131C206.839 132.29 207.087 131.321 206.912 130.475C206.703 129.47 206.329 129.026 206.377 127.905C206.546 123.918 206.047 119.719 204.991 115.871C202.697 107.512 197.097 100.916 192.427 93.8117C191.108 91.8052 189.721 89.904 188.671 87.731C187.676 85.6723 186.991 83.4949 186.003 81.4305C183.826 76.8804 181.761 72.1933 180.488 67.299C179.046 67.8669 177.493 68.7024 175.947 68.9027C174.195 69.1298 172.323 67.7143 171.219 66.4677C168.7 63.6253 168.125 59.7704 168.313 56.1075C168.369 55.0232 168.436 53.9303 168.631 52.8606C168.757 52.1662 169.573 50.4856 169.387 49.8387C169.188 49.1463 168.028 48.5445 167.672 47.8588C167.218 46.9859 167.166 45.8624 167.191 44.8995C167.213 44.0204 167.698 39.7163 169.09 41.4755C169.888 42.4834 168.722 46.2832 169.532 46.8005C170.26 47.2658 171.263 46.6972 172.018 47.761C172.834 48.9107 172.397 50.3278 172.111 51.5521C171.52 54.084 170.965 56.8181 170.98 59.4185C170.994 61.7864 171.416 64.7798 174.002 65.7375C175.308 66.2213 176.299 65.8886 177.273 64.9875C177.497 64.7303 177.724 64.4773 177.956 64.2282C178.17 63.8616 178.497 63.816 178.937 64.0917C179.264 63.8323 179.747 62.0398 179.911 61.6393C181.913 56.7287 178.756 51.0905 177.599 46.2724C176.891 43.3254 176.274 40.3694 177.707 37.5252C177.939 37.0648 178.578 36.6647 178.194 36.004C178.093 35.8303 177.129 35.7488 176.9 35.5469C176.156 34.8896 176.311 33.6641 176.311 32.7866C174.59 33.3178 174.095 31.9778 174.318 30.3355C173.035 30.5392 172.143 30.9321 171.668 29.4457C171.247 28.1275 171.883 26.7834 172.305 25.5551C166.366 24.918 159.952 24.1017 155.219 20.0002C154.052 18.9888 153.081 17.7158 152.272 16.3969C152.126 16.1585 151.438 14.4796 151.21 14.392C150.532 14.1315 149.963 15.4589 149.361 15.7876C148.825 16.0796 148.064 16.2406 147.469 16.4185C146.909 16.5861 144.935 16.6196 144.585 16.9105C143.71 17.638 143.779 21.8442 143.772 22.8203C143.749 26.1824 144.498 29.5329 145.885 32.5939C147.191 35.4769 149.19 39.4415 151.802 41.3282C152.462 41.8051 153.056 42.0524 153.893 42.013C154.49 41.985 155.083 41.5662 155.705 41.784C157.28 42.3354 156.717 43.4309 155.506 43.9488C152.046 45.4299 149.13 42.174 147.129 39.8993C146.543 42.5981 149.26 45.7917 150.697 47.9938C151.613 49.3972 152.519 50.8019 153.391 52.2338C154.023 53.2739 155.267 55.1945 153.058 54.3912C151.992 59.9893 149.067 64.8851 147.573 70.3253C146.04 75.9097 144.703 82.2862 144.703 88.1018C145.871 87.2884 146.46 83.5812 148.03 86.4185C148.2 86.7255 148.147 87.2335 148.371 87.5017C148.681 87.8728 149.053 87.7697 149.528 88.0342C150.28 88.4532 150.766 89.2887 150.093 90.0132C150.96 89.8115 151.867 89.9143 152.054 90.9398C152.158 91.5154 151.316 94.1819 150.688 94.3997C148.772 95.0634 146.648 91.2358 146.129 90.0182C144.932 91.2204 143.554 92.145 142.451 90.2006C141.629 88.7516 142.106 86.5595 142.222 84.9822C142.455 81.8046 142.76 78.7052 143.218 75.5582C144.077 69.6572 146.257 64.409 148.935 59.0974C149.673 57.6355 150.49 56.139 151.148 54.6431C152.141 52.3862 150.587 52.9187 149.068 53.2464C146.092 53.8887 142.976 54.387 139.969 54.6145C138.399 54.7332 136.389 54.8039 134.881 55.2579C133.82 55.5772 134.002 55.3568 133.576 56.4935C133.386 57.0022 133.171 57.5432 132.835 57.9788C131.121 60.2011 126.683 59.8292 124.232 59.6636C124.381 58.7264 124.527 57.7888 124.681 56.8524C122.795 57.2962 120.553 57.6051 118.61 57.5824C117.564 57.5705 116.451 57.4109 115.408 57.3239C114.638 57.2598 113.18 56.7139 112.455 56.9262C111.616 57.1726 110.346 60.2108 109.866 61.1905C108.965 63.0303 107.354 65.0742 106.785 67.0114C106.281 68.7288 107.31 71.6919 107.633 73.4013C108.1 75.8725 108.526 78.3482 109.309 80.7443C109.876 82.4815 110.531 84.8762 112.273 85.7427C114.01 86.6064 115.258 87.0922 117.137 86.9164C120.447 86.6068 123.968 87.1153 127.235 87.7592C130.6 88.4222 133.681 88.7208 136.875 89.9024C144.122 92.583 148.736 100.84 146.004 108.405C144.433 112.756 141.844 115.989 138.046 118.681C136.111 120.052 133.825 121.165 131.704 122.222C130.73 122.707 129.772 123.296 128.779 123.727C128.054 124.042 126.807 124.768 126.019 124.847C126.894 125.264 127.668 124.874 128.578 124.744C129.866 124.561 131.181 124.522 132.473 124.362C134.485 124.113 136.467 123.925 138.48 123.675C140.197 123.461 142.136 123.386 143.843 123.631C144.667 123.75 145.908 123.984 146.643 124.382C147.22 124.695 147.75 125.415 148.371 125.772C149.054 122.964 148.735 119.503 148.767 116.618C148.793 114.262 148.898 111.959 149.119 109.615C149.367 106.993 147.765 104.011 147.173 101.443C146.619 99.0394 145.144 95.9933 145.687 93.4845C146.372 90.3221 148.164 96.0032 148.411 96.8156C149.182 99.3569 150.078 101.838 150.933 104.349C151.95 107.337 152.975 110.232 154.456 113.031C155.689 115.361 157.106 118.093 159.639 119.23C159.43 115.804 159.198 112.632 157.775 109.473C156.426 106.478 154.368 103.814 153.468 100.605C153.021 99.0097 152.956 97.3786 152.934 95.7313C152.919 94.623 152.969 93.1331 154.157 94.3281C155.099 95.2757 155.282 98.2982 155.694 99.5741C155.893 100.188 156.168 100.752 156.387 101.349C156.486 101.618 157.151 102.928 157.151 103.104C157.837 105.175 159.353 107.161 160.419 109.067Z" fill="black"/>
<path fill-rule="evenodd" clip-rule="evenodd" d="M87.6883 33.5652C87.7536 34.3674 88.2185 36.4466 87.6231 37.0814C86.8339 37.9237 86.4599 36.8403 86.1186 35.9861C85.4053 34.2011 85.0509 30.7446 86.4603 29.2571C87.9318 27.7038 90.8392 27.6619 92.4095 26.115C93.0399 25.4936 92.9794 25.6233 92.9244 24.6517C92.8933 24.1032 92.5389 23.3743 92.3675 22.8813C91.9219 21.6001 91.4333 20.3344 90.9673 19.0607C90.153 19.4322 88.9811 20.5781 88.1789 19.6176C87.4374 18.7295 88.6711 17.2744 89.5303 17.0148C89.0817 16.0333 86.9684 16.2148 86.5657 14.7731C86.2159 13.5201 87.2209 14.018 87.4407 13.5245C87.6995 12.9438 87.1697 12.1588 87.4423 11.6237C88.3886 9.76582 89.4366 13.1819 89.9078 13.7916C90.7846 14.9257 92.312 15.1734 92.4465 16.8888C92.5294 17.9449 92.45 18.436 92.8847 19.4731C93.285 20.428 93.7607 21.3436 94.0964 22.3261C94.6018 23.8066 95.3811 26.5008 94.3934 27.9343C93.5604 29.1435 91.5378 30.0652 90.2225 30.5823C89.5637 30.841 88.6504 30.9987 88.1175 31.5027C87.422 32.1603 87.6385 32.5644 87.6883 33.5652Z" fill="black"/>
<path fill-rule="evenodd" clip-rule="evenodd" d="M156.027 78.3322C155.877 78.0957 155.726 77.8592 155.576 77.6225C154.535 78.7352 153.383 79.1926 152.331 77.7791C151.247 76.324 151.654 74.1419 152.076 72.5527C152.292 71.7349 153.389 68.5104 154.091 70.9668C154.246 71.5089 153.728 72.7161 153.634 73.2468C153.45 74.2879 153.304 75.2866 153.434 76.3469C154.655 75.2538 155.252 72.4825 156.491 75.3601C156.94 76.4037 156.989 78.1222 158.185 76.5371C158.823 75.6906 158.864 74.1281 159.163 73.1308C161.201 73.6185 160.829 76.6349 160.149 78.1045C159.066 80.4447 157.592 79.6911 156.027 78.3322Z" fill="black"/>
<path fill-rule="evenodd" clip-rule="evenodd" d="M163.163 25.8373C163.888 27.0473 162.516 29.2602 162.268 30.5026C163.482 30.3619 166.487 27.4303 167.333 27.9136C169.094 28.9195 165.375 32.4278 164.66 32.942C158.948 37.0506 159.978 25.1659 163.163 25.8373Z" fill="black"/>
<path fill-rule="evenodd" clip-rule="evenodd" d="M156 39.3123C158.134 38.7178 161.012 42.5507 159.628 44.4488C158.635 45.8104 157.408 45.0317 157.097 43.8331C156.938 43.2219 157.079 42.4853 156.871 41.8035C156.616 40.9641 156.274 40.1465 156 39.3123Z" fill="black"/>
<path fill-rule="evenodd" clip-rule="evenodd" d="M90.3699 22.7909C91.9928 24.156 88.6768 27.4839 87.0146 24.878C86.5574 24.1613 86.4742 23.507 87.1521 23.2423C87.4944 23.1089 88.3017 23.546 88.7849 23.4687C89.3144 23.3839 89.8898 23.0111 90.3699 22.7909Z" fill="black"/>
<path fill-rule="evenodd" clip-rule="evenodd" d="M84.7938 17.3325C84.1641 16.5463 82.3945 11.7106 84.5874 12.7877C85.6887 13.3285 86.5987 17.4624 84.7938 17.3325Z" fill="black"/>
<path fill-rule="evenodd" clip-rule="evenodd" d="M157.199 121.338C157.136 120.728 157.074 120.117 157.012 119.507C157.821 119.92 159.446 120.328 159.728 121.254C160.257 122.991 157.799 121.601 157.199 121.338Z" fill="black"/>
<path fill-rule="evenodd" clip-rule="evenodd" d="M180.703 47.7313C180.221 47.0793 178.721 41.6404 180.022 41.7649C180.25 43.7379 180.297 45.7869 180.703 47.7313Z" fill="black"/>
<path fill-rule="evenodd" clip-rule="evenodd" d="M160.419 109.067C159.353 107.162 157.837 105.175 157.151 103.104C158.759 104.407 160.014 107.068 160.419 109.067Z" fill="black"/>
<path fill-rule="evenodd" clip-rule="evenodd" d="M204.119 104.649C204.184 105.34 204.249 106.031 204.314 106.721C203.349 106.971 204.06 104.877 204.119 104.649Z" fill="black"/>
<path fill-rule="evenodd" clip-rule="evenodd" d="M157.153 103.107C156.696 102.609 156.501 101.997 156.387 101.349C156.643 101.935 156.898 102.521 157.153 103.107Z" fill="black"/>
<path fill-rule="evenodd" clip-rule="evenodd" d="M162.68 134.376C162.697 133.762 162.714 133.147 162.731 132.534C162.714 133.149 162.697 133.763 162.68 134.376Z" fill="black"/>
<path fill-rule="evenodd" clip-rule="evenodd" d="M90.4866 34.6548C90.8954 34.7057 91.3044 34.7565 91.7134 34.8074C91.3906 34.9587 90.6302 35.1597 90.4866 34.6548Z" fill="black"/>
<path fill-rule="evenodd" clip-rule="evenodd" d="M172.028 140.827C172.454 140.762 172.88 140.616 173.298 140.852C172.874 140.843 172.451 140.835 172.028 140.827Z" fill="black"/>
<path fill-rule="evenodd" clip-rule="evenodd" d="M159.871 126.943C159.877 127.398 159.883 127.853 159.888 128.307C159.882 127.851 159.877 127.397 159.871 126.943Z" fill="black"/>
<path fill-rule="evenodd" clip-rule="evenodd" d="M168.662 119.86C168.635 120.345 168.609 120.83 168.582 121.315C168.609 120.829 168.635 120.344 168.662 119.86Z" fill="black"/>
<path fill-rule="evenodd" clip-rule="evenodd" d="M162.874 121.759C162.851 121.337 162.828 120.915 162.805 120.493C162.828 120.916 162.851 121.338 162.874 121.759Z" fill="black"/>
<path fill-rule="evenodd" clip-rule="evenodd" d="M175.517 125.486C175.494 125.862 175.471 126.238 175.448 126.613C175.471 126.237 175.494 125.861 175.517 125.486Z" fill="black"/>
<path fill-rule="evenodd" clip-rule="evenodd" d="M99.1295 134.989C98.7156 135.198 98.302 135.219 97.8895 134.986C98.3031 134.987 98.7163 134.988 99.1295 134.989Z" fill="black"/>
<path fill-rule="evenodd" clip-rule="evenodd" d="M141.49 21.3174C141.496 21.6893 141.501 22.0613 141.507 22.4317C141.501 22.0593 141.495 21.6885 141.49 21.3174Z" fill="black"/>
<path fill-rule="evenodd" clip-rule="evenodd" d="M100.391 31.4652C99.9673 31.4973 99.5433 31.5293 99.1198 31.5614C99.5435 31.5293 99.9675 31.4973 100.391 31.4652Z" fill="black"/>
<path fill-rule="evenodd" clip-rule="evenodd" d="M187.941 32.8965C187.938 32.5294 187.936 32.1623 187.935 31.7959C188.129 32.1623 188.133 32.529 187.941 32.8965Z" fill="black"/>
<path fill-rule="evenodd" clip-rule="evenodd" d="M87.6883 33.5652C87.669 33.1752 87.6496 32.7854 87.6304 32.3961C87.65 32.7863 87.6692 33.1756 87.6883 33.5652Z" fill="black"/>
<path fill-rule="evenodd" clip-rule="evenodd" d="M191.836 148.778C192.122 148.78 192.408 148.782 192.692 148.784C192.405 148.782 192.12 148.78 191.836 148.778Z" fill="black"/>
<path fill-rule="evenodd" clip-rule="evenodd" d="M79.1672 0.0657043C78.7908 0.0978545 78.4143 0.130005 78.0379 0.161935C78.4143 0.130005 78.7908 0.0978545 79.1672 0.0657043Z" fill="black"/>
<path fill-rule="evenodd" clip-rule="evenodd" d="M116.298 143.926C116.54 143.926 116.783 143.926 117.023 143.926C116.779 143.926 116.539 143.926 116.298 143.926Z" fill="black"/>
<path fill-rule="evenodd" clip-rule="evenodd" d="M153.893 42.0131C153.525 41.9763 153.157 41.9393 152.789 41.9023C153.157 41.9393 153.525 41.9763 153.893 42.0131Z" fill="black"/>
<path fill-rule="evenodd" clip-rule="evenodd" d="M170.625 143.283C170.647 142.98 170.67 142.676 170.692 142.374C170.67 142.678 170.647 142.98 170.625 143.283Z" fill="black"/>
<path fill-rule="evenodd" clip-rule="evenodd" d="M130.779 38.1251C130.417 38.1218 130.055 38.1187 129.692 38.1156C130.057 37.9047 130.418 37.965 130.779 38.1251Z" fill="black"/>
<path fill-rule="evenodd" clip-rule="evenodd" d="M82.4267 0.167167C82.0614 0.155496 81.6753 0.345974 81.3387 0.0561829C81.7015 0.0931775 82.0641 0.130172 82.4267 0.167167Z" fill="black"/>
<path fill-rule="evenodd" clip-rule="evenodd" d="M72.5615 36.0061C72.2115 36.0383 71.8612 36.0704 71.5114 36.1023C71.8616 36.0702 72.2115 36.0383 72.5615 36.0061Z" fill="black"/>
<path fill-rule="evenodd" clip-rule="evenodd" d="M94.6168 134.674C94.248 134.713 93.8791 134.751 93.5107 134.79C93.8795 134.751 94.2483 134.713 94.6168 134.674Z" fill="black"/>
<path fill-rule="evenodd" clip-rule="evenodd" d="M103.796 31.2429C103.437 31.2506 103.077 31.2583 102.718 31.266C103.075 31.1231 103.431 30.9883 103.796 31.2429Z" fill="black"/>
<path fill-rule="evenodd" clip-rule="evenodd" d="M162.667 129.696C162.665 129.384 162.662 129.072 162.66 128.761C162.662 129.073 162.665 129.384 162.667 129.696Z" fill="black"/>
<path fill-rule="evenodd" clip-rule="evenodd" d="M204.252 103.236C204.213 103.613 204.174 103.99 204.135 104.367C204.174 103.99 204.213 103.613 204.252 103.236Z" fill="black"/>
<path fill-rule="evenodd" clip-rule="evenodd" d="M157.589 127.547C157.562 127.226 157.535 126.905 157.508 126.585C157.535 126.906 157.562 127.226 157.589 127.547Z" fill="black"/>
<path fill-rule="evenodd" clip-rule="evenodd" d="M36.6222 124.597C36.5564 124.918 36.3232 124.981 35.9225 124.786L36.6222 124.597Z" fill="black"/>
<path fill-rule="evenodd" clip-rule="evenodd" d="M171.014 124.74C170.992 124.461 170.971 124.182 170.95 123.903C170.971 124.183 170.992 124.461 171.014 124.74Z" fill="black"/>
<path fill-rule="evenodd" clip-rule="evenodd" d="M95.6642 31.915C95.3616 31.9562 95.0589 31.9971 94.7563 32.0383C95.0591 31.9971 95.3616 31.9562 95.6642 31.915Z" fill="black"/>
<path fill-rule="evenodd" clip-rule="evenodd" d="M159.689 122.362C159.689 122.636 159.688 122.91 159.688 123.183C159.688 122.908 159.689 122.635 159.689 122.362Z" fill="black"/>
<path fill-rule="evenodd" clip-rule="evenodd" d="M141.435 24.0206C141.436 24.2798 141.436 24.5388 141.436 24.7966C141.436 24.5372 141.436 24.2789 141.435 24.0206Z" fill="black"/>
<path fill-rule="evenodd" clip-rule="evenodd" d="M31.0585 84.7241C31.0285 84.9971 30.9986 85.2704 30.9688 85.5424C30.9988 85.2689 31.0285 84.9965 31.0585 84.7241Z" fill="black"/>
<path fill-rule="evenodd" clip-rule="evenodd" d="M212.342 103.497C212.326 103.24 212.31 102.983 212.294 102.727C212.31 102.984 212.326 103.241 212.342 103.497Z" fill="black"/>
<path fill-rule="evenodd" clip-rule="evenodd" d="M56.0453 137.442C55.7327 137.437 55.42 137.432 55.1074 137.427C55.4238 137.21 55.7355 137.257 56.0453 137.442Z" fill="black"/>
<path fill-rule="evenodd" clip-rule="evenodd" d="M92.4542 17.275C92.4491 17.0172 92.4441 16.7593 92.439 16.5023C92.5998 16.7575 92.6514 17.0139 92.4542 17.275Z" fill="black"/>
<path fill-rule="evenodd" clip-rule="evenodd" d="M67.4907 14.0045C67.5125 13.7502 67.5343 13.4959 67.5559 13.2431C67.5341 13.4979 67.5125 13.7511 67.4907 14.0045Z" fill="black"/>
<path fill-rule="evenodd" clip-rule="evenodd" d="M170.829 103.037C170.819 102.757 170.808 102.477 170.797 102.197C170.808 102.477 170.819 102.757 170.829 103.037Z" fill="black"/>
<path fill-rule="evenodd" clip-rule="evenodd" d="M168.817 117.519C168.809 117.784 168.801 118.048 168.793 118.311C168.801 118.046 168.809 117.782 168.817 117.519Z" fill="black"/>
<path fill-rule="evenodd" clip-rule="evenodd" d="M132.83 143.015C133.026 143.015 133.222 143.014 133.416 143.015C133.219 143.015 133.025 143.015 132.83 143.015Z" fill="black"/>
<path fill-rule="evenodd" clip-rule="evenodd" d="M37.4962 143.149C37.6918 143.155 37.8871 143.16 38.0803 143.165C37.8841 143.16 37.69 143.155 37.4962 143.149Z" fill="black"/>
<path fill-rule="evenodd" clip-rule="evenodd" d="M155.753 119.946C153.846 118.472 152.184 116.266 151.797 113.905C152.617 114.832 153.306 115.867 154.126 116.794C154.452 117.162 154.852 117.479 155.165 117.854C155.879 118.709 155.753 118.747 155.753 119.946Z" fill="black"/>
<path fill-rule="evenodd" clip-rule="evenodd" d="M149.054 109.978C148.139 107.868 147.344 105.308 147.504 102.98C148.135 105.094 149.6 107.749 149.054 109.978Z" fill="black"/>
<path fill-rule="evenodd" clip-rule="evenodd" d="M152.125 122.386C152.109 122.998 152.094 123.611 152.079 124.222C152.095 123.609 152.11 122.997 152.125 122.386Z" fill="black"/>
<path fill-rule="evenodd" clip-rule="evenodd" d="M31.0911 139.036C31.7166 139.073 32.3424 139.111 32.9679 139.148C32.3395 139.156 31.7028 139.309 31.0911 139.036Z" fill="black"/>
<path fill-rule="evenodd" clip-rule="evenodd" d="M152.121 120.362C152.124 120.884 152.126 121.407 152.128 121.928C152.126 121.405 152.124 120.884 152.121 120.362Z" fill="black"/>
<path fill-rule="evenodd" clip-rule="evenodd" d="M126.42 59.7953C126.067 59.7771 125.715 59.7586 125.366 59.7403C125.719 59.7586 126.069 59.7771 126.42 59.7953Z" fill="black"/>
<path fill-rule="evenodd" clip-rule="evenodd" d="M132.148 46.8025C132.147 46.3786 132.146 45.9547 132.144 45.5317C132.145 45.9558 132.147 46.3792 132.148 46.8025Z" fill="black"/>
<path fill-rule="evenodd" clip-rule="evenodd" d="M124.585 57.4361C124.569 57.138 124.411 56.9878 124.109 56.9858C124.714 56.6586 124.873 56.8087 124.585 57.4361Z" fill="black"/>
<path fill-rule="evenodd" clip-rule="evenodd" d="M142.528 81.0188C142.552 80.6416 142.576 80.2643 142.599 79.888C142.575 80.2654 142.552 80.6422 142.528 81.0188Z" fill="black"/>
<path fill-rule="evenodd" clip-rule="evenodd" d="M39.9725 139.303C40.3945 139.274 40.8165 139.244 41.2385 139.215C40.8163 139.244 40.3945 139.274 39.9725 139.303Z" fill="black"/>
<path fill-rule="evenodd" clip-rule="evenodd" d="M128.605 88.0908L129.861 88.082C129.442 88.0851 129.024 88.088 128.605 88.0908Z" fill="black"/>
<path fill-rule="evenodd" clip-rule="evenodd" d="M140.591 42.1241C140.299 42.1266 140.007 42.129 139.718 42.1312C140.011 42.1288 140.301 42.1266 140.591 42.1241Z" fill="black"/>
<path fill-rule="evenodd" clip-rule="evenodd" d="M201.464 144.194C201.83 144.192 202.196 144.191 202.562 144.189C202.197 144.42 201.831 144.414 201.464 144.194Z" fill="black"/>
<path fill-rule="evenodd" clip-rule="evenodd" d="M47.774 93.4802C47.5258 93.4873 47.2777 93.4943 47.0319 93.5014C47.281 93.4943 47.5274 93.4873 47.774 93.4802Z" fill="black"/>
<path fill-rule="evenodd" clip-rule="evenodd" d="M179.603 38.5986C179.838 38.8254 179.529 39.3469 179.249 39.1672C179.367 38.9776 179.485 38.7882 179.603 38.5986Z" fill="black"/>
<path fill-rule="evenodd" clip-rule="evenodd" d="M64.8563 116.441C64.8666 116.12 64.8772 115.799 64.8876 115.478C64.877 115.8 64.8666 116.12 64.8563 116.441Z" fill="black"/>
<path fill-rule="evenodd" clip-rule="evenodd" d="M148.767 116.618C148.784 116.283 148.801 115.948 148.817 115.614C148.8 115.949 148.784 116.283 148.767 116.618Z" fill="black"/>
<path fill-rule="evenodd" clip-rule="evenodd" d="M207.325 81.7331C207.339 82.0682 207.353 82.4034 207.367 82.7374C207.353 82.4021 207.339 82.0676 207.325 81.7331Z" fill="black"/>
<path fill-rule="evenodd" clip-rule="evenodd" d="M94.2484 119.689C94.6233 119.721 94.998 119.753 95.3729 119.785C94.998 119.753 94.6231 119.721 94.2484 119.689Z" fill="black"/>
<path fill-rule="evenodd" clip-rule="evenodd" d="M145.659 93.9832C145.678 93.6503 145.696 93.3173 145.715 92.985C145.696 93.3182 145.678 93.6507 145.659 93.9832Z" fill="black"/>
<path fill-rule="evenodd" clip-rule="evenodd" d="M80.5237 100.317C80.8973 100.351 81.2709 100.386 81.6445 100.42C81.2709 100.385 80.8973 100.351 80.5237 100.317Z" fill="black"/>
<path fill-rule="evenodd" clip-rule="evenodd" d="M113.583 129.429C113.343 129.43 113.102 129.43 112.864 129.43C113.106 129.429 113.345 129.429 113.583 129.429Z" fill="black"/>
<path fill-rule="evenodd" clip-rule="evenodd" d="M134.805 48.0546C134.791 48.3658 134.777 48.6767 134.763 48.9863C134.777 48.6749 134.791 48.3647 134.805 48.0546Z" fill="black"/>
<path fill-rule="evenodd" clip-rule="evenodd" d="M140.136 123.524C140.505 123.262 140.865 123.435 141.226 123.549C140.863 123.541 140.499 123.533 140.136 123.524Z" fill="black"/>
<path fill-rule="evenodd" clip-rule="evenodd" d="M96.899 34.4983C96.6556 34.4884 96.4125 34.4783 96.1718 34.4673C96.416 34.4772 96.6574 34.4878 96.899 34.4983Z" fill="black"/>
<path fill-rule="evenodd" clip-rule="evenodd" d="M155.856 129.246C155.834 128.936 155.812 128.627 155.791 128.318C155.812 128.628 155.834 128.937 155.856 129.246Z" fill="black"/>
<path fill-rule="evenodd" clip-rule="evenodd" d="M135.943 94.2792C135.743 94.2805 135.542 94.2818 135.344 94.2836C135.546 94.2825 135.745 94.2807 135.943 94.2792Z" fill="black"/>
<path fill-rule="evenodd" clip-rule="evenodd" d="M144.399 105.531C144.399 105.272 144.399 105.014 144.399 104.757C144.399 105.016 144.399 105.273 144.399 105.531Z" fill="black"/>
<path fill-rule="evenodd" clip-rule="evenodd" d="M131.573 124.479C131.874 124.44 132.174 124.401 132.474 124.362C132.173 124.401 131.873 124.44 131.573 124.479Z" fill="black"/>
<path fill-rule="evenodd" clip-rule="evenodd" d="M118.594 86.8895C118.919 86.8875 119.244 86.8853 119.569 86.8834C119.245 87.0745 118.92 87.0386 118.594 86.8895Z" fill="black"/>
<path fill-rule="evenodd" clip-rule="evenodd" d="M135.44 55.2632C135.252 55.2614 135.064 55.2597 134.878 55.2581C135.067 55.2597 135.253 55.2614 135.44 55.2632Z" fill="black"/>
<path fill-rule="evenodd" clip-rule="evenodd" d="M79.906 103.191C79.7121 103.188 79.5185 103.185 79.3271 103.182C79.5218 103.185 79.7139 103.188 79.906 103.191Z" fill="black"/>
<path fill-rule="evenodd" clip-rule="evenodd" d="M42.4671 90.4717C42.7917 90.475 43.1162 90.4785 43.4407 90.4818C43.1142 90.6652 42.7897 90.6701 42.4671 90.4717Z" fill="black"/>
<path fill-rule="evenodd" clip-rule="evenodd" d="M207.357 91.0089C207.336 91.2566 207.316 91.5046 207.296 91.751C207.317 91.5026 207.337 91.2558 207.357 91.0089Z" fill="black"/>
<path fill-rule="evenodd" clip-rule="evenodd" d="M124.736 130.837C124.764 130.566 124.792 130.296 124.819 130.026C124.791 130.297 124.764 130.567 124.736 130.837Z" fill="black"/>
<path fill-rule="evenodd" clip-rule="evenodd" d="M72.261 98.5947C72.5888 98.5993 72.9168 98.6041 73.2449 98.6088C72.9135 98.8371 72.5875 98.6933 72.261 98.5947Z" fill="black"/>
<path fill-rule="evenodd" clip-rule="evenodd" d="M147.024 51.0881C147.344 51.052 147.662 51.0159 147.981 50.9798C147.662 51.0159 147.344 51.052 147.024 51.0881Z" fill="black"/>
<path fill-rule="evenodd" clip-rule="evenodd" d="M120.37 137.816C120.399 138.1 120.428 138.384 120.457 138.668C120.428 138.383 120.399 138.099 120.37 137.816Z" fill="black"/>
<path fill-rule="evenodd" clip-rule="evenodd" d="M148.772 119.119C148.772 118.853 148.771 118.588 148.771 118.324C148.771 118.59 148.772 118.854 148.772 119.119Z" fill="black"/>
<path fill-rule="evenodd" clip-rule="evenodd" d="M33.1231 139.185C33.4318 139.226 33.7405 139.267 34.049 139.307C33.7403 139.267 33.4316 139.226 33.1231 139.185Z" fill="black"/>
<path fill-rule="evenodd" clip-rule="evenodd" d="M38.9142 139.311C39.219 139.061 39.5283 139.138 39.8388 139.297C39.5305 139.302 39.2223 139.306 38.9142 139.311Z" fill="black"/>
<path fill-rule="evenodd" clip-rule="evenodd" d="M94.5991 102.775C94.901 102.738 95.2028 102.701 95.5043 102.664C95.2024 102.701 94.9007 102.738 94.5991 102.775Z" fill="black"/>
<path fill-rule="evenodd" clip-rule="evenodd" d="M128.14 140.715C128.448 140.674 128.755 140.632 129.063 140.591C128.755 140.632 128.448 140.674 128.14 140.715Z" fill="black"/>
<path fill-rule="evenodd" clip-rule="evenodd" d="M117.382 141.193C117.695 141.153 118.009 141.112 118.323 141.072C118.009 141.112 117.695 141.153 117.382 141.193Z" fill="black"/>
<path fill-rule="evenodd" clip-rule="evenodd" d="M134.653 49.9353C134.639 50.1888 134.625 50.4424 134.611 50.6943C134.625 50.4402 134.639 50.1877 134.653 49.9353Z" fill="black"/>
<path fill-rule="evenodd" clip-rule="evenodd" d="M60.7683 110.375C60.7963 110.106 60.8243 109.837 60.8523 109.568C60.8241 109.838 60.7963 110.107 60.7683 110.375Z" fill="black"/>
<path fill-rule="evenodd" clip-rule="evenodd" d="M132.23 43.379C132.238 43.1149 132.247 42.8509 132.255 42.5882C132.247 42.8527 132.239 43.1158 132.23 43.379Z" fill="black"/>
<path fill-rule="evenodd" clip-rule="evenodd" d="M72.3165 107.382C72.3442 107.651 72.372 107.921 72.3995 108.189C72.3718 107.919 72.344 107.65 72.3165 107.382Z" fill="black"/>
<path fill-rule="evenodd" clip-rule="evenodd" d="M73.356 98.5973C73.6742 98.6325 73.9923 98.6675 74.3102 98.7028C73.9921 98.6675 73.6739 98.6325 73.356 98.5973Z" fill="black"/>
<path fill-rule="evenodd" clip-rule="evenodd" d="M124.003 137.888C124.184 138.42 124.118 139.658 123.603 140.034C122.536 140.812 122.426 139.39 122.214 138.622C121.627 136.492 120.68 134.113 120.439 131.922C120.365 131.25 120.325 129.992 121.213 129.765C122.07 129.547 122.505 130.906 122.8 131.604C123.62 133.541 124.096 135.788 124.003 137.888Z" fill="black"/>
<path fill-rule="evenodd" clip-rule="evenodd" d="M124.003 137.888C124.015 137.613 124.028 137.338 124.04 137.064C124.027 137.339 124.015 137.614 124.003 137.888Z" fill="black"/>
</svg>
