<svg width="281" height="204" viewBox="0 0 281 204" fill="none" xmlns="http://www.w3.org/2000/svg">
<g style="mix-blend-mode:multiply" opacity="0.1">
<path d="M44.5581 97.0556C50.1441 95.1935 50.1505 95.6485 54.8665 92.3307C56.7154 88.0934 60.0064 83.8437 64.2443 81.3715C71.6973 77.0236 79.5351 71.8934 87.8677 69.1654C99.4005 65.3895 108.609 55.8068 116.073 47.4438C120.677 42.285 125.086 35.847 130.891 31.7596C138.868 26.1426 150.22 22.4141 160.241 22.0801C174.719 21.5975 188.535 23.3228 202.584 26.5425C213.177 28.9701 223.776 33.4405 230.539 41.6032C237.427 49.9177 243.37 63.4685 244.14 73.8247C244.525 79.0051 243.113 82.8235 241.062 87.4745C240.087 89.6845 238.933 91.9557 239.165 94.3978C239.972 102.902 250.714 108.281 257.419 112.379C264.554 116.739 273.525 121.861 276.998 129.408C281.766 139.769 281.534 152.064 280.076 162.942C278.503 174.685 276.082 185.845 263.54 192.079C249.378 199.119 230.491 195.094 217.51 187.551C210.359 183.396 204.344 178.315 195.784 176.494C185.182 174.237 174.707 173.245 163.821 173.869C155.764 174.33 147.091 177.771 139.911 180.923C133.485 183.744 126.205 185.415 120.081 188.732C113.434 192.333 106.844 194.701 99.0351 195.689C81.5995 197.893 63.9409 199.785 46.7773 195.098C37.1151 192.46 29.1836 188.81 21.2211 183.089C16.3172 179.565 12.804 175.143 8.62191 171.014C7.07048 169.482 6.35866 167.552 4.75626 166.027C3.34933 164.687 2.2726 163.095 1.39172 161.433C-0.327153 158.189 -0.0443152 154.527 0.138959 150.999C0.767501 138.899 4.12553 125.034 12.6665 115.398C16.8083 110.725 21.9804 107.247 27.1627 103.684C30.0386 101.706 33.8677 101.079 37.1848 100.009C39.6957 99.1988 42.0337 97.8971 44.5581 97.0556Z" fill="#595DD9"/>
</g>
<path fill-rule="evenodd" clip-rule="evenodd" d="M94.9738 112.012C95.3872 114.787 96.4261 117.226 97.303 119.824C97.7174 121.052 98.3639 122.304 98.9984 123.432C99.4092 124.163 99.93 125.899 100.684 124.885C100.809 125.414 100.644 125.674 100.818 126.163C101.063 126.854 102.336 127.714 102.889 128.246C103.422 128.759 104.009 129.152 104.583 129.605C104.697 129.695 104.932 129.621 105.024 129.725C105.195 129.92 105.036 130.189 105.108 130.28C106.007 131.409 107.568 132.212 108.738 133.041C110.41 134.227 112.073 135.413 113.702 136.656C114.99 137.638 116.218 138.674 117.495 139.658C118.107 140.129 118.57 140.596 119.024 141.21C119.589 141.973 119.674 142.007 119.282 142.794C118.579 144.202 117.314 145.11 116.468 146.374C115.505 147.815 114.885 149.426 113.576 150.628C112.991 149.309 112.234 151.236 113.206 151.033C112.755 152.371 111.745 153.51 111.072 154.769C110.276 156.257 109.406 157.608 108.463 159.006C108.367 158.66 108.271 158.313 108.175 157.967C107.259 158.186 107.992 158.857 108.06 159.136C108.117 159.372 108.316 159.396 108.174 159.909C108.068 160.294 107.698 160.622 107.463 160.942C106.935 161.662 106.443 162.402 105.945 163.142C105.454 163.871 105.283 164.471 104.967 165.183C104.685 165.818 104.425 165.698 103.97 166.165C103.5 166.648 103.033 167.49 102.614 168.047C101.368 169.703 100.248 171.599 99.3973 173.483C98.5864 175.279 97.0892 176.541 96.4047 178.447C96.0547 179.419 95.9267 180.442 95.6234 181.424C95.3397 182.342 94.8751 183.195 94.6996 184.148C94.5536 184.938 94.6476 185.854 94.5768 186.547C94.519 187.113 94.2817 187.983 94.3519 188.782C94.5008 190.464 95.1992 191.924 96.0328 193.325C92.2294 194.613 87.9023 194.975 83.9117 194.881C81.8723 194.833 79.5481 194.814 77.5526 195.286C76.3985 195.558 75.5121 195.898 74.3 195.803C73.089 195.708 71.879 195.594 70.6684 195.49C71.0219 194.778 72.1759 193.882 72.8237 193.336C73.1977 193.021 73.8143 192.947 74.1005 192.642C74.4283 192.294 74.5284 191.424 74.645 191.005C75.5428 187.787 76.2056 184.539 76.7678 181.247C77.7611 175.43 78.1462 169.507 78.5131 163.654C78.5395 163.233 78.7454 162.724 78.7349 162.324C78.7182 161.678 78.5894 161.315 78.6385 160.7C78.6697 160.31 79.135 159.79 79.115 159.446C79.097 159.143 78.5789 159.373 78.5796 158.919C78.581 158.267 79.5149 157.326 79.7099 156.74C79.7852 156.513 79.5073 156.209 79.4799 155.955L79.4784 155.91C79.4905 155.916 79.696 154.992 79.7044 154.955C79.7725 154.659 80.0394 154.566 80.0259 154.195C80.0143 153.876 79.5452 153.458 79.7986 153.126C79.9718 152.9 80.6021 153.264 80.7444 153.006C80.9276 152.673 80.1228 151.539 80.212 151.025C80.3574 150.188 80.9553 149.339 81.1588 148.479C81.2494 148.096 81.1491 147.497 81.4468 147.18C81.9325 146.663 82.3551 147.192 83.0559 147.02C82.3411 146.413 82.2025 145.883 82.4137 144.998C82.5787 144.307 82.9076 143.54 83.6636 144.229C83.5508 143.198 83.5548 143.037 84.3253 142.256C84.6991 141.877 85.1019 141.24 85.5488 140.985C85.6839 140.843 85.8193 140.7 85.9547 140.559C86.1379 140.749 86.3557 140.858 86.6081 140.882C88.7689 140.768 89.8482 140.325 91.8329 141.62C92.6699 142.166 93.5043 142.575 94.2239 143.286C95.0263 144.079 95.6736 145.013 96.5333 145.753C97.4944 146.582 98.4428 147.262 99.3002 148.213C100.009 148.999 100.691 149.889 101.64 150.369C101.713 149.232 101.091 148.216 100.547 147.223C100.482 147.104 100.009 146.785 100.019 146.82C99.9616 146.621 100.18 146.449 100.112 146.273C100.935 147.016 101.786 148.12 102.729 148.677C104.268 149.586 103.585 147.812 103.291 146.9C102.454 144.3 100.937 141.808 99.184 139.709C96.1162 136.037 90.9988 131.938 86.1015 134.249C81.2478 136.54 78.6908 140.387 77.2981 145.504C75.6819 151.443 74.9399 157.119 74.7862 163.272C74.6981 166.794 74.3386 170.288 73.968 173.79C73.6061 177.208 73.458 180.911 72.7677 184.267C72.3346 183.637 72.0791 183.162 71.8629 182.454C71.775 182.168 71.8853 181.887 71.7354 181.605C71.6662 181.476 71.3157 181.492 71.2502 181.374C70.7125 180.404 69.9571 179.071 69.71 177.955C69.5796 177.367 69.6986 177.024 69.4468 176.49C69.2103 175.988 69.0913 176.464 69.0012 175.845C68.9886 175.759 69.385 175.618 69.2628 175.217C68.9543 174.204 68.7365 175.164 68.5884 175.158C68.283 175.145 68.9727 173.068 68.9184 172.742C68.8558 172.367 68.6808 172.572 68.5955 172.298C68.5187 172.051 68.4248 171.694 68.3669 171.351C68.1919 170.307 67.7955 169.965 67.7775 168.835C67.7561 167.47 67.2499 166.592 67.0231 165.288C66.9811 165.048 67.2438 164.778 67.1963 164.568C67.0978 164.131 66.7808 163.767 66.6575 163.306C66.3999 162.339 66.9141 161.506 66.8426 160.575C66.8542 160.727 66.5533 159.89 66.5345 159.816C66.426 159.39 66.4725 158.82 66.3867 158.357C66.3059 157.922 66.038 157.342 66.2779 156.936C66.4419 156.658 66.8106 156.733 67.0252 156.423C66.2368 156.169 66.4023 156.446 66.1175 155.577C65.8456 154.748 65.8192 154.052 66.7198 154.601C66.4923 154.041 66.0686 153.354 65.9762 152.754C65.892 152.206 66.0937 151.676 66.0359 151.131C65.8815 149.67 65.4309 148.782 66.2618 147.365C65.1672 146.806 65.641 144.858 65.4713 143.798C65.2876 142.648 64.8394 141.548 65.7033 140.793C64.6079 140.007 65.1648 137.457 65.1851 136.239C65.2047 135.074 65.1136 133.893 65.1273 132.54C65.1355 131.775 64.9199 131.249 64.7372 130.492C64.5015 129.517 64.7412 128.769 64.6607 127.826C64.5965 127.077 64.3133 126.324 64.275 125.526C64.2357 124.712 64.3035 123.798 64.1887 122.999C64.0931 122.337 63.9348 121.863 63.9181 121.148C63.9134 120.936 63.8099 120.555 63.8535 120.358C63.8519 120.365 64.1488 119.676 64.1467 119.981C64.1554 118.848 63.5879 117.741 63.8854 116.361C64.1301 115.228 64.3352 115.414 65.4792 115.484C66.3817 115.54 67.2839 115.599 68.1882 115.602C69.3597 115.607 73.127 114.796 73.9748 115.62C74.677 116.304 74.2689 119.538 74.3167 120.514C74.394 122.104 72.8704 122.59 72.4481 124.214C71.6427 127.31 72.9731 131.396 76.6031 131.66C79.9892 131.907 83.2375 129.126 82.7727 125.706C82.5861 124.334 81.9533 122.841 80.7589 122.038C79.6036 121.261 77.1492 121.846 76.3447 120.91C75.9693 120.473 76.1182 118.775 76.0746 118.205C76.0113 117.376 75.6312 115.717 76.1781 115.325C76.7955 114.881 78.7027 114.872 79.4074 114.87C80.4063 114.868 81.3154 114.869 82.3065 114.701C84.5001 114.33 86.687 114.345 88.842 113.859C90.9814 113.378 92.9582 112.874 94.9738 112.012ZM121.116 112.012C121.562 112.001 122.519 115.687 122.772 116.337C123.461 118.113 123.744 119.906 124.128 121.774C124.522 123.692 124.875 125.642 125.385 127.532C125.769 128.952 125.683 130.327 126.199 131.757C126.062 132.642 126.185 134.171 125.206 134.552C124.321 134.896 123.746 134.056 123.418 133.328C122.53 131.361 122.815 128.737 122.492 126.622C122.11 124.126 122.088 121.667 121.788 119.167C121.525 116.965 120.631 114.183 121.116 112.012ZM82.4909 61.5125C83.4611 62.6067 84.886 62.1475 86.164 62.0262C85.6218 63.2574 84.8435 64.575 84.8144 65.9537C84.7997 66.6689 85.1848 67.3039 85.1806 67.9863C85.1761 68.6628 84.6267 69.2941 84.3662 69.9223C83.1958 72.7406 82.9128 76.559 82.869 79.5855C82.7787 85.8464 84.6545 92.5152 88.6439 97.424C89.4858 98.4597 90.432 99.4168 91.4898 100.234C92.0651 100.678 94.7147 101.733 94.8388 102.357C95.079 103.565 92.36 103.446 91.6176 103.554C90.0565 103.781 88.5132 104.108 86.9497 104.318C80.6841 105.16 74.4989 105.832 68.1823 105.492C67.4835 105.455 66.1767 105.803 65.5161 105.523C64.74 105.195 65.0048 104.541 65.0235 103.778C65.0718 101.816 64.7896 99.8873 64.6249 97.939C64.4915 96.3627 64.8527 96.573 66.0093 95.7006C67.2052 94.7985 68.3745 93.1236 68.765 91.6881C69.8775 92.5844 69.0718 93.0665 69.2302 94.2164C69.4234 95.6193 70.3725 95.3893 70.9985 94.4504C71.9695 92.9941 71.8837 90.6923 70.976 89.2368C70.1632 87.9337 67.2628 85.9324 65.6172 86.5285C63.4278 87.3221 65.8108 89.9844 66.8467 90.5613C66.5912 91.2981 65.1769 91.9457 64.5467 92.3502C63.6718 92.9117 62.5366 93.2375 61.5252 93.5486C58.8268 94.378 56.2044 94.4985 53.4196 94.092C50.7437 93.7014 47.6794 92.8309 45.953 90.6394C45.2064 89.6918 44.52 88.2492 45.2362 87.0624C45.8815 85.9927 47.4766 85.9187 48.261 84.8824C48.5997 84.4353 48.7626 83.8419 49.0738 83.4088C49.5802 82.7049 49.3764 82.8301 50.3284 82.9109C51.8694 83.0414 53.5126 83.1406 55.0301 82.7699C56.1706 82.4909 57.2813 81.9699 58.3972 81.6375C59.5818 81.2846 60.7049 80.5428 61.621 79.7434C63.7338 77.8989 65.8023 75.8945 67.7586 73.8843C69.7035 71.8862 70.9491 69.3144 72.7697 67.1955C74.8332 64.7945 76.8172 61.7254 79.8414 60.4036C81.5788 59.6444 81.5471 60.4473 82.4909 61.5125ZM89.8379 69.4942C90.1321 69.8016 89.9448 71.5642 90.2255 72.1267C91.3033 74.2875 93.1887 73.8103 95.1392 73.3562C95.3072 75.0879 95.4374 77.0383 96.1368 78.6522C96.4493 79.3728 96.9431 79.9917 97.1953 80.7448C97.3549 81.222 97.2906 81.8277 97.471 82.2713C97.6661 82.7509 98.1604 83.1205 98.4493 83.5932C98.7984 84.1643 98.9815 84.6974 99.4408 85.1971C100.446 86.2903 101.811 87.2168 102.581 88.5209C102.896 89.0558 102.952 89.4524 102.942 90.0757C102.939 90.2992 102.782 91.1198 102.852 91.2853C103.108 91.8921 104.03 92.0487 104.132 92.8326C104.19 93.273 103.95 93.2203 103.868 93.5873C103.77 94.0288 103.84 94.3318 103.679 94.8237C103.422 95.6044 102.289 97.0734 102.407 97.7458C100.741 98.6624 97.8103 99.2432 95.9434 98.8248C94.0344 98.3969 92.126 96.2313 90.8942 94.8126C88.0022 91.4823 86.3184 86.2221 86.1605 81.8655C86.0803 79.6548 86.3751 77.4337 86.4793 75.2267C86.5381 73.9832 86.2724 70.4805 87.3269 69.6096C87.5627 69.4149 89.6312 69.278 89.8379 69.4942ZM74.278 73.6643C71.7058 73.8117 69.4979 77.8355 69.9739 80.186C70.3649 82.1151 71.0244 80.6233 71.5252 79.7947C72.1163 78.8165 73.186 77.6334 74.4559 77.8845C75.8673 78.1637 76.2271 79.8813 76.8027 80.9702C77.8521 82.9559 78.1789 80.8236 78.4115 79.6184C78.2264 77.2613 77.3602 73.488 74.278 73.6643Z" fill="#9AB3F5"/>
<path fill-rule="evenodd" clip-rule="evenodd" d="M229.338 193.903C227.996 194.319 226.739 194.932 225.447 195.479C223.98 196.1 222.956 196.209 221.354 196.207C215.152 196.197 209.014 196.516 202.801 196.641C201.104 196.675 199.381 196.692 197.684 196.661C196.999 196.649 196.327 196.571 195.645 196.515C195.204 196.479 193.283 196.742 193.027 196.588C192.307 196.155 192.734 193.367 192.647 192.473C192.495 190.922 192.102 189.426 191.554 187.969C189.595 182.753 186.301 177.665 182.135 173.943C187.768 171.58 193.912 168.463 200.163 169.865C202.543 170.399 205.699 171.098 206.925 173.399C208.234 175.856 209.379 178.557 210.875 180.91C212.547 183.538 214.322 185.791 216.742 187.762C217.697 188.54 222.51 193.32 221.779 189.63C221.544 188.447 220.678 187.347 219.986 186.381C219.634 185.889 217.737 184.277 218.032 183.708C218.364 183.069 221.785 182.619 222.518 182.416C224.032 181.997 225.538 181.549 227.046 181.109C226.501 182.136 223.534 186.022 225.43 187.016C226.126 187.381 227.928 186.088 228.691 185.861C229.991 185.474 231.18 185.729 232.458 186.112C232.425 186.739 231.192 186.747 230.782 187.175C230.183 187.802 229.762 189.491 230.232 190.242C231.107 191.641 234.496 190.214 236.011 190.745C234.308 192.5 231.636 193.19 229.338 193.903ZM144.711 136.161C144.728 136.197 144.696 136.247 144.493 136.424C144.43 136.201 144.32 136.152 144.184 136.213C144.293 136.094 144.383 136.032 144.493 136.424C144.578 136.349 144.65 136.257 144.711 136.161ZM145.229 135.424C145.188 135.559 145.096 135.622 144.954 135.618C144.962 135.595 144.969 135.573 144.974 135.556C145.068 135.263 145.193 135.313 145.151 134.774C145.207 134.864 145.25 134.955 145.219 135.045C145.308 135.182 145.311 135.308 145.229 135.424ZM130.154 160.734C130.297 160.389 130.335 159.988 130.519 159.671C130.339 159.992 130.336 160.389 130.154 160.734ZM188.423 196.368C186.178 196.279 183.99 196.319 181.746 196.416C176.95 196.625 172.133 196.656 167.347 197.04C165.005 197.228 162.754 197.3 160.406 197.221C158.353 197.152 156.292 197.225 154.245 197.053C151.998 196.864 149.894 196.244 147.625 196.21C145.457 196.178 142.874 195.927 140.77 196.244C140.407 196.298 140.211 196.53 139.783 196.585C139.191 196.662 138.357 196.421 137.751 196.38C136.688 196.309 135.512 196.426 134.474 196.179C134.118 196.094 133.868 195.963 133.522 195.824C133.21 195.698 132.511 195.601 132.339 195.556C133.328 195.188 131.134 194.437 130.958 194.396C130.913 194.546 131.012 194.755 131.174 194.958C130.612 194.528 131.213 194.687 130.295 194.251C129.909 194.067 129.179 193.949 128.746 193.901C128.33 193.854 128.105 193.903 127.916 193.892C127.954 193.85 127.992 193.793 128.028 193.718C128.335 193.086 127.401 192.365 126.876 192.789C126.937 192.913 127.035 193.141 127.154 193.365C127.149 193.359 127.144 193.354 127.139 193.348C126.945 193.123 126.579 192.549 126.215 192.163C126.676 191.908 126.111 191.562 125.898 191.206C125.753 191.287 125.591 191.354 125.508 191.466C125.629 191.213 125.93 190.983 125.753 190.491C125.703 190.351 125.569 190.139 125.402 189.99C125.561 190.114 125.726 190.252 125.94 190.222C125.673 189.817 125.574 189.665 125.472 189.259C125.401 188.973 125.801 188.698 125.421 188.439C125.432 188.17 125.593 186.933 124.92 187.365C124.92 187.365 124.92 187.365 124.92 187.365C124.92 187.365 124.92 187.364 124.921 187.364C125.351 186.049 126.083 184.692 126.627 183.406C127.893 180.412 129.196 177.396 130.521 174.429C132.713 169.52 135.002 164.624 137.524 159.847C140.025 155.111 142.755 150.531 145.115 145.73C147.391 141.098 150.047 136.666 152.339 132.042C153.419 129.863 154.866 128.063 155.234 125.532C155.353 124.712 155.391 123.003 154.149 123.31C153.342 123.51 152.212 125.529 151.692 126.186C151.225 125.546 148.592 121.784 147.886 124.025C147.28 125.947 151.072 126.784 149.559 128.719C149.409 128.911 148.788 129.105 148.584 129.283C148.187 129.628 147.823 130.237 147.517 130.653C146.818 131.603 146.239 132.612 145.593 133.595C145.471 133.779 145.027 134.198 144.993 134.414C144.974 134.529 145.071 134.647 145.146 134.766C144.62 135.231 143.957 135.642 143.834 136.395C143.87 136.411 143.904 136.413 143.936 136.407C143.448 136.918 142.829 138.156 142.74 138.285C142.082 139.242 141.436 140.244 140.785 141.253C140.433 141.799 139.818 142.441 139.616 143.055C139.546 143.267 139.751 143.647 139.56 143.846C139.058 144.368 138.567 144.256 138.192 145.306C138.044 145.719 138.031 146.297 137.794 146.652C137.413 147.221 136.868 147.489 136.512 148.101C135.838 149.262 135.029 150.537 134.604 151.708C134.602 151.713 134.602 151.717 134.6 151.722C134.586 151.63 134.565 151.531 134.542 151.422C134.301 151.855 134.06 152.287 133.819 152.72C134.236 152.639 134.459 152.525 134.56 152.34C134.549 152.402 134.529 152.466 134.491 152.534C134.278 152.632 134.054 152.694 133.819 152.72C133.658 152.986 133.507 153.258 133.366 153.535C133.297 153.676 133.065 154.531 132.967 155.179C132.931 154.928 132.895 154.702 132.891 154.672C132.585 155.259 132.28 155.847 131.974 156.434C132.529 156.009 132.497 155.936 133.025 155.926C132.36 155.939 131.353 156.873 131.261 157.77C131.246 157.915 131.335 158.075 131.414 158.225C131.396 158.223 131.378 158.22 131.357 158.218C130.66 158.16 130.864 158.3 130.6 158.88C130.701 158.839 131.287 158.611 131.507 158.432C131.531 158.509 131.535 158.579 131.498 158.638C131.326 158.912 129.915 158.735 130.821 159.344C130.068 158.838 129.692 160.498 129.948 161.068C129.745 161.36 129.504 161.63 129.277 161.901C128.719 162.565 128.41 163.07 128.045 163.88C127.422 165.258 126.68 166.626 125.999 167.979C125.741 168.493 125.44 168.931 125.123 169.408C124.561 170.255 124.66 170.044 125.103 170.967C124.937 170.913 124.691 171.043 124.453 171.233C124.582 171.014 124.747 170.851 125.103 170.967C124.541 169.796 124.058 171.222 123.799 171.893C123.811 171.893 123.82 171.89 123.831 171.89C123.796 171.942 123.769 171.988 123.753 172.025C123.489 172.569 123.177 172.903 123.402 173.474C123.467 173.156 123.725 172.91 123.834 172.637C123.68 173.303 122.953 174.1 122.734 174.541C122.552 174.907 122.526 175.292 122.302 175.69C122.092 176.064 121.902 176.316 121.741 176.744C120.959 178.814 120.579 181.119 120.086 183.292C119.503 185.861 119.263 188.59 119.139 191.219C119.102 191.983 119.082 192.658 119.358 193.384C119.398 193.489 119.827 194.049 119.816 194.253C119.756 195.323 117.746 195.101 116.973 195.07C115.744 195.02 114.907 195.219 113.726 195.39C112.637 195.547 111.568 195.461 110.462 195.728C108.625 196.171 105.89 196.874 104.113 195.899C103.255 195.428 102.173 194.063 101.55 193.296C100.783 192.353 100.525 191.393 100.388 190.192C100.153 188.136 100.137 185.865 100.852 183.901C104.175 174.774 109.876 166.477 114.792 158.171C119.405 150.377 124.576 142.989 129.199 135.216C131.643 131.107 134.583 127.041 137.489 123.243C140.46 119.362 142.58 115.139 144.674 110.745C146.845 111.895 149.143 113.078 151.571 113.598C152.951 113.894 154.322 113.804 155.714 113.899C156.739 113.97 157.598 114.212 158.642 114.238C163.223 114.355 168.517 113.807 172.896 112.455C173.946 112.13 174.886 111.794 175.871 111.326C177.128 110.73 177.468 110.477 177.539 111.863C177.677 114.548 178.116 117.157 178.322 119.826C178.524 122.428 179.048 124.993 179.512 127.563C179.747 128.865 180 130.165 180.192 131.474C180.339 132.467 180.78 133.848 180.605 134.84C180.411 135.936 179.372 137.048 178.778 137.983C178.174 138.931 177.568 139.878 176.966 140.827C175.837 142.608 174.714 144.298 173.381 145.932C170.911 148.961 168.807 152.129 166.464 155.257C163.977 158.578 161.909 162.166 159.468 165.521C158.178 167.294 156.859 168.966 156.014 170.962C155.313 172.618 153.902 174.141 153.04 175.78C151.907 177.932 150.466 179.902 149.34 182.064C148.555 183.575 147.038 185.111 146.879 186.866C146.612 189.811 149.415 186.868 150.063 186.047C150.933 184.946 151.887 183.019 153.194 182.422C154.127 181.995 155.491 182.042 156.504 181.708C157.566 181.358 158.608 180.995 159.68 180.675C161.769 180.052 163.784 179.172 165.814 178.38C167.916 177.56 170.017 176.733 172.079 175.822C173.034 175.4 173.838 175.184 174.858 175C175.297 174.921 176.867 174.18 177.213 174.243C177.793 174.349 178.594 176.054 179.034 176.492C179.713 177.169 180.476 177.721 181.11 178.449C182.359 179.882 183.682 181.409 184.765 182.966C187.184 186.444 189.447 190.245 190.307 194.435C190.694 196.316 190.243 196.441 188.423 196.368ZM125.499 191.82C125.484 191.789 125.475 191.759 125.469 191.729C125.477 191.759 125.484 191.787 125.499 191.82C125.786 191.651 125.862 191.741 125.891 191.88C125.747 191.787 125.612 191.753 125.499 191.82ZM124.832 189.878C124.82 189.826 124.815 189.777 124.813 189.731C124.817 189.78 124.821 189.829 124.832 189.878C124.989 189.773 125.119 189.803 125.245 189.878C125.111 189.806 124.967 189.788 124.832 189.878ZM125.12 188.607C125.208 188.601 125.308 188.553 125.421 188.439C125.328 188.532 125.241 188.63 125.162 188.732C125.163 188.72 125.165 188.708 125.166 188.695C125.168 188.67 125.148 188.64 125.12 188.607ZM96.5925 177.959C95.9404 179.495 95.6689 181.176 95.1148 182.75C94.6912 183.953 94.5219 185.143 94.411 186.401C94.7974 186.686 94.7887 186.937 94.3849 187.154C94.3561 187.427 94.3464 187.702 94.3556 187.977C94.2507 188.779 94.4054 189.476 94.6176 190.244C94.954 191.462 95.3802 192.338 96.0058 193.391C92.2093 194.678 87.8841 195.04 83.9011 194.947C81.7482 194.896 79.3333 194.892 77.2356 195.422C74.9768 195.994 72.996 195.755 70.6755 195.555C71.0145 194.873 72.3101 193.734 72.9663 193.26C73.3002 193.019 73.8496 192.978 74.1029 192.708C74.4643 192.323 74.5068 191.576 74.647 191.071C75.5422 187.852 76.2046 184.607 76.7669 181.315C77.7575 175.512 78.2178 169.571 78.5098 163.725C78.5346 163.23 78.7903 162.675 78.7779 162.206C78.7616 161.591 78.5855 161.39 78.6351 160.771C78.6672 160.368 79.1512 159.82 79.1161 159.462C79.094 159.237 78.5431 159.431 78.5763 158.991C78.6277 158.313 79.5055 157.421 79.7048 156.813C79.7933 156.542 79.463 156.272 79.4733 155.977C79.4704 156.061 79.6913 155.063 79.6995 155.027C79.7662 154.74 80.0351 154.62 80.0206 154.268C80.0071 153.948 79.5413 153.53 79.7936 153.199C80.0488 152.864 80.5773 153.371 80.7381 153.078C80.921 152.746 80.117 151.612 80.2064 151.098C80.3627 150.198 80.9756 149.23 81.2155 148.316C81.3054 147.973 81.1606 147.55 81.4395 147.253C81.9251 146.737 82.3463 147.266 83.0465 147.093C82.3519 146.504 82.199 145.935 82.4051 145.071C82.5722 144.37 82.8946 143.611 83.6533 144.304C83.5534 143.39 83.4464 143.298 84.103 142.534C84.6697 141.876 85.4044 141.087 86.0829 140.582C87.097 139.827 88.7158 139.439 89.9186 139.351C91.2314 139.254 92.8451 139.957 93.8387 140.948C95.047 142.154 96.6099 143.033 97.9809 144.185C99.445 145.416 100.702 146.878 102.108 148.183C102.397 148.45 102.929 149.199 103.375 149.071C104.102 148.86 103.515 147.776 103.355 147.293C102.221 143.86 100.183 140.401 97.3794 138.058C95.9335 136.85 94.495 135.322 92.8143 134.442C91.4565 133.731 90.396 133.843 88.9525 133.792C87.7186 133.749 87.465 133.676 86.3647 134.195C85.5847 134.562 84.8124 134.921 84.0764 135.371C82.8994 136.09 81.6855 136.963 80.8156 138.049C78.4998 140.942 77.5959 144.619 76.686 148.144C75.6845 152.02 74.9952 155.808 74.8737 159.831C74.7503 163.923 74.5605 167.956 74.1567 172.032C73.9466 174.152 73.7049 176.268 73.4307 178.38C73.1782 180.328 73.165 182.422 72.7722 184.334C72.2775 183.614 72.1238 183.058 71.8507 182.282C71.6664 181.759 71.4795 181.777 71.2128 181.392C70.6476 180.577 69.9411 179.03 69.7187 178.024C69.5824 177.408 69.7084 177.1 69.4558 176.558C69.3778 176.391 68.9537 176.522 68.8857 176.257C68.8369 176.067 69.1026 175.92 69.0908 175.855C69.0631 175.705 69.4756 175.539 69.1192 175.067C68.6128 174.398 68.872 175.238 68.5986 175.227C68.3708 175.217 69.0544 172.906 68.974 172.571C68.9455 172.452 68.558 172.437 68.5269 172.326C68.4328 171.993 68.4541 171.511 68.3624 171.149C68.1381 170.266 67.8052 169.913 67.7888 168.905C67.7672 167.573 67.2732 166.629 67.0354 165.358C66.9896 165.114 67.2587 164.849 67.2084 164.639C67.1063 164.208 66.7876 163.832 66.6703 163.376C66.4444 162.5 66.746 161.263 66.6843 160.55C66.63 159.926 66.455 158.914 66.3398 158.139C66.1524 156.877 66.4892 157.289 67.0375 156.495C66.2773 156.25 66.3741 156.466 66.131 155.65C65.8508 154.707 65.8766 154.151 66.7325 154.673C66.5051 154.113 66.0828 153.427 65.99 152.827C65.9038 152.269 66.1078 151.757 66.0496 151.204C65.8914 149.705 65.4235 148.892 66.2752 147.438C65.1805 146.878 65.6573 144.949 65.4857 143.872C65.3009 142.71 64.852 141.625 65.7174 140.868C64.8275 140.229 65.1799 138.394 65.1836 137.414C65.1852 136.969 65.336 136.187 65.2978 135.792C65.2711 135.515 65.0821 135.328 65.0273 135.005C64.8251 133.807 65.2717 132.621 65.003 131.429C64.7002 130.087 64.6648 128.941 64.561 127.625C64.4606 126.35 64.2631 125.024 64.1782 123.717C64.1155 122.747 63.7367 121.697 63.9112 120.692C63.9249 120.613 64.1561 119.898 64.1627 120.059C64.1519 119.801 63.9637 119.481 63.955 119.327C63.893 118.163 63.8709 117.215 63.9207 116.034C63.9183 116.034 63.9157 116.033 63.9133 116.034C64.0575 115.946 64.1353 115.764 64.1413 115.48C65.2305 115.375 66.422 115.641 67.5228 115.67C68.7091 115.702 69.8916 115.643 71.0765 115.588C71.8388 115.553 73.4816 115.192 74.0621 115.828C74.4825 116.289 74.2181 118.66 74.2461 119.276C74.2793 120.005 74.6483 121.148 74.2218 121.786C73.9571 122.182 73.359 122.34 73.0506 122.774C72.8629 123.038 72.7103 123.481 72.6107 123.768C72.3094 124.633 72.1894 125.566 72.2355 126.479C72.453 130.754 75.8817 132.717 79.7314 130.994C83.085 129.494 83.9968 124.955 81.1153 122.412C80.437 121.814 79.714 121.662 78.8483 121.514C78.2982 121.42 76.7967 121.478 76.4371 121.085C76.0802 120.696 76.1672 119.482 76.1277 118.976C76.0641 118.165 75.7378 116.96 75.9147 116.177C75.6247 115.525 75.8182 115.249 76.4956 115.349C76.7102 115.306 76.9248 115.263 77.1391 115.22C77.6795 115.122 78.2104 115.004 78.7592 114.967C79.7374 114.899 80.6912 115.015 81.6699 114.885C82.63 114.756 83.571 114.517 84.5329 114.392C85.5549 114.26 86.5587 114.407 87.5702 114.234C89.6695 113.875 91.9252 113.392 93.8893 112.567C94.4154 112.346 95.3069 111.711 95.8906 111.816C96.5896 111.941 96.4027 112.386 96.6041 113.05C97.7208 116.735 100.041 120.375 102.497 123.304C104.815 126.069 107.871 128.299 110.635 130.618C112.31 132.025 113.919 133.503 115.475 135.039C116.604 136.155 117.816 137.899 119.274 138.542C119.606 138.555 120.888 138.408 121.122 138.648C121.393 138.924 121.376 139.079 121.269 139.251C121.578 138.436 120.104 138.573 119.274 138.542C119.368 138.7 120.301 140.569 120.531 139.529C120.665 139.609 120.799 139.689 120.933 139.769C120.27 141.231 119.412 142.698 118.48 144.007C117.801 144.961 116.923 145.652 116.314 146.641C115.544 147.889 114.903 149.185 113.928 150.297C111.984 152.516 110.902 155.499 109.207 157.96C108.393 159.144 107.967 160.243 107.12 161.421C106.457 162.342 105.383 163.508 104.996 164.569C104.842 164.992 105.008 165.36 104.725 165.753C104.547 166.001 104.018 166.27 103.768 166.528C102.778 167.55 102.006 169.008 101.229 170.211C100.401 171.491 99.8249 172.82 99.1239 174.154C98.4051 175.522 97.2152 176.492 96.5925 177.959ZM70.8184 183.801C70.3033 183.809 70.1104 183.812 70.0529 183.586C70.036 183.518 70.0308 183.43 70.0331 183.315C70.0308 183.43 70.036 183.518 70.0529 183.586C70.1104 183.812 70.3033 183.809 70.8184 183.801V183.801ZM70.8827 181.885C70.936 182.029 70.6152 182.273 69.7624 182.183C70.607 182.272 70.9302 182.03 70.8827 181.885ZM68.786 186.697C68.8625 186.764 68.9365 186.835 69.0088 186.907C68.9368 186.835 68.8625 186.764 68.786 186.697ZM63.4681 196.758C62.7737 196.516 60.9673 196.087 59.7911 195.58C60.3156 195.727 60.8618 195.848 61.0719 195.921C61.8704 196.2 62.6691 196.479 63.4681 196.758C64.5995 192.683 68.8474 191.13 72.4823 189.626C70.7312 189.552 70.1056 188.033 69.0473 186.948C70.1035 188.031 70.7391 189.552 72.4823 189.626C68.848 191.13 64.5995 192.684 63.4681 196.758ZM59.4948 192.656C59.455 192.722 59.4154 192.79 59.3756 192.865C59.2673 193.067 58.8592 193.973 58.6879 194.567C58.6534 193.956 59.0163 193.241 59.4948 192.656ZM63.4939 115.282C63.5588 115.256 63.611 115.252 63.6584 115.256C63.4683 115.264 63.4167 115.49 63.4085 115.803C63.2435 115.627 63.2042 115.398 63.4939 115.282ZM76.687 124.699C77.9249 125.313 79.1261 125.67 80.3071 126.413C78.8583 127.539 74.2329 129.356 74.371 125.878C74.3873 125.473 74.6243 124.384 74.9944 124.143C75.5575 123.777 76.1962 124.455 76.687 124.699ZM62.5162 108.505C67.9673 110.405 74.3177 109.936 79.8582 109.009C85.8106 108.013 91.7538 107.426 97.5202 105.562C97.526 106.364 97.8742 107.204 97.2378 107.866C96.7391 108.384 95.6578 108.483 94.9988 108.701C93.2748 109.272 91.7942 110.104 89.9922 110.445C87.9738 110.828 85.9574 110.82 83.9216 111.046C83.1843 111.128 82.4911 111.26 81.7986 111.393C80.8396 111.408 80.0883 111.538 79.1309 111.803C75.7062 111.819 72.3046 111.921 68.8941 111.513C67.162 111.306 65.4488 111.052 63.7122 110.875C62.0857 110.71 62.449 110.009 62.5162 108.505ZM60.4308 93.8849C57.2207 94.7709 53.9098 94.5058 50.7513 93.4915C48.4674 92.7583 45.4376 91.6841 44.9573 88.9068C44.6402 87.0746 45.7391 86.7425 47.0316 85.9819C47.65 85.618 47.9508 85.3432 48.3667 84.7267C48.6135 84.3604 48.8354 83.4416 49.1125 83.1912C49.7876 82.5806 51.9183 83.1165 52.9745 83.0695C54.5488 82.9992 55.6158 82.4704 57.0641 82.0039C59.6221 81.1794 61.2409 80.1799 63.2266 78.2938C65.1583 76.4593 67.4264 74.5932 68.9882 72.4312C70.7372 70.0103 72.4111 67.6545 74.3164 65.3456C75.7283 63.6346 78.2897 60.2099 80.823 60.2256C82.0946 60.2335 81.9064 61.4319 82.9162 62.0407C83.8383 62.5967 85.0446 62.2098 86.0579 62.1136C85.3899 63.6307 84.4633 65.1909 84.7913 66.9077C84.975 67.8691 85.0728 68.201 84.6969 69.1109C84.3534 69.9419 83.982 70.6785 83.7693 71.5684C82.9408 75.0368 82.5488 78.9405 82.8962 82.487C83.4978 88.6264 85.6032 94.9652 90.2088 99.2994C91.2588 100.287 92.4136 101.077 93.6995 101.727C94.9822 102.376 95.0884 103.051 93.4994 103.341C90.4044 103.905 87.2625 104.29 84.1454 104.709C81.0323 105.127 77.864 105.564 74.7248 105.628C73.1719 105.66 71.6282 105.854 70.0756 105.743C69.3024 105.688 68.534 105.55 67.7588 105.529C67.0818 105.51 66.0712 105.848 65.4412 105.582C64.455 105.165 64.9453 102.281 64.8731 101.279C64.7898 100.13 64.0641 97.975 64.4951 96.8887C64.798 96.126 65.9096 95.8062 66.4856 95.2127C67.4306 94.2386 68.3245 93.0839 68.6853 91.7559C69.8821 92.721 68.8525 93.34 69.2157 94.5169C69.6122 95.801 70.3431 95.3973 70.9154 94.5163C71.8707 93.0455 71.8067 90.7726 70.893 89.3062C70.3642 88.4581 69.5051 87.8207 68.6239 87.3673C67.9106 87.0005 66.3321 86.2809 65.5424 86.5997C63.399 87.4651 65.6802 90.0226 66.7697 90.6298C66.508 91.3853 64.6514 92.4754 63.9436 92.798C62.8921 93.2775 61.5596 93.5736 60.4308 93.8849ZM89.849 70.4615C89.8772 70.8731 89.921 71.2662 90.057 71.6599C90.3343 72.4628 90.8889 73.1584 91.6531 73.5557C93.1356 74.327 96.1423 73.2165 97.4456 72.3066C97.4456 75.0644 97.9403 77.2582 98.7322 79.8745C99.4982 82.406 101.066 84.4659 102.4 86.7133C103.092 87.8788 103.727 89.0819 104.703 90.0389C105.696 91.0114 105.861 91.3843 105.771 92.8183C105.622 95.1804 104.496 96.7914 102.368 97.7694C100.682 98.7032 97.2004 99.4619 95.3636 98.6816C93.4327 97.8612 91.5519 95.7371 90.3014 94.1022C87.4605 90.3881 86.0197 84.7938 86.1923 80.1762C86.2822 77.771 86.4095 75.3098 86.6399 72.9133C86.8076 71.1674 86.7464 68.6572 89.2883 69.4441C90.1095 69.6981 89.7829 69.5085 89.849 70.4615ZM99.6024 102.713C99.8475 102.214 102.005 101.713 102.38 102.005C102.95 102.449 102.974 105.038 103.174 105.774C103.491 106.944 103.909 108.099 104.412 109.202C105.467 111.515 106.982 113.904 108.779 115.705C110.641 117.572 112.781 118.865 115.042 120.202C115.689 120.585 116.314 121.046 116.978 121.393C117.256 121.538 117.773 121.606 117.992 121.825C118.535 122.368 118.284 123.48 118.277 124.186C118.251 127.014 118.261 129.75 118.636 132.539C116.42 130.826 114.418 128.651 112.446 126.654C110.378 124.559 107.715 123.176 105.753 120.957C103.969 118.939 102.564 116.587 101.254 114.252C100.679 113.23 99.5855 111.926 99.5462 110.73C99.5035 109.441 100.092 108.077 100.099 106.741C100.103 105.797 99.2383 103.455 99.6024 102.713ZM126.207 131.581C126.073 132.435 126.18 134.265 124.991 134.449C124.173 134.576 123.669 133.8 123.369 133.15C122.463 131.185 122.763 128.564 122.425 126.453C122.025 123.961 122.016 121.504 121.707 119.009C121.434 116.808 120.526 114.032 121.021 111.864C121.47 111.853 122.683 116.096 122.944 116.769C123.483 118.154 124.104 119.32 124.57 120.756C125.187 122.658 125.722 124.475 126.007 126.465C126.207 127.865 126.957 130.349 126.207 131.581ZM132.784 122.199C131.674 123.92 130.476 125.713 128.913 127.148C128.913 126.346 128.312 123.736 128.719 123.115C129.204 122.376 131.957 122.342 132.784 122.199ZM89.7473 54.4265C90.6899 53.9989 91.7417 53.8642 92.6923 53.4224C93.6012 53.0001 94.2763 52.7453 95.2851 52.6624C98.791 52.375 102.361 53.2717 105.605 54.2524C107.39 54.792 108.799 55.9746 110.307 56.9992C111.867 58.0587 112.722 58.9815 113.402 60.7745C114.863 64.6316 115.762 68.2786 116.344 72.3458C116.934 76.4724 115.976 80.6435 116.035 84.7788C116.094 88.8584 116.385 93.1057 117.683 96.9902C118.685 99.9936 120.463 104.828 124.209 105.128C127.765 105.412 130.773 101.749 132.243 98.9988C136.129 91.7277 137.59 83.4163 137.801 75.2561C138.349 72.5254 138.663 69.5811 139.614 66.9623C140.672 68.6149 141.534 70.3884 142.507 72.0917C143.574 73.9615 143.505 75.4868 143.413 77.6111C143.341 79.2629 142.758 80.8413 142.546 82.4862C142.301 84.3851 141.851 86.2365 141.743 88.1544C141.616 90.416 141.743 92.701 141.552 94.9568C141.392 96.854 140.973 98.7592 140.668 100.639C140.373 102.465 140.337 104.263 140.38 106.084C140.422 107.846 141.032 109.558 142.526 110.501C140.305 113.239 137.536 117.272 133.816 117.921C132.568 118.139 131.403 118.308 130.14 118.4C129.113 118.475 127.913 119.051 127.027 118.412C125.502 117.31 125.202 114.856 124.625 113.251C124.227 112.14 120.275 103.047 118.195 105.623C117.825 106.082 117.912 107.767 117.855 108.413C117.774 109.345 117.811 110.293 117.782 111.228C117.744 112.419 117.638 113.626 117.721 114.816C117.771 115.534 118.202 116.308 117.389 116.481C116.636 116.641 115.049 115.147 114.5 114.76C113.765 114.24 112.973 113.85 112.228 113.35C110.696 112.322 109.482 111.027 108.392 109.559C107.295 108.082 106.318 106.425 105.576 104.738C105.199 103.883 104.891 103.006 104.577 102.127C104.583 102.146 104.109 101.038 104.135 100.961C104.219 100.713 105.222 100.301 105.469 100.106C108.298 97.8751 108.865 92.3268 108.113 89.0817C107.658 87.1183 106.152 85.3931 105.082 83.7214C104.049 82.1067 102.956 80.5249 102.099 78.8063C101.154 76.9132 100.424 74.9253 99.576 72.9893C99.1669 72.0549 98.6761 71.5742 99.2871 70.7185C99.6614 70.1938 100.436 69.979 100.77 69.4049C101.106 68.8271 101.14 67.7124 100.536 67.2995C99.8755 66.8474 98.9152 67.4788 98.3097 67.725C97.5017 68.0532 96.6946 68.2123 95.87 68.4647C94.9339 68.7517 94.0912 69.386 93.0974 69.386C93.6317 67.5472 95.9406 67.7216 96.6898 66.0117C97.2015 64.843 97.1348 62.6685 95.5392 62.4757C94.6332 62.3663 93.9185 63.0569 93.245 63.5202C92.3583 64.1298 91.689 64.2437 90.6504 64.4346C90.2679 64.5051 89.6468 64.8633 89.2841 64.7415C88.6955 64.5443 89.0353 64.666 89.3434 64.1827C89.8016 63.464 90.8853 62.7621 91.5403 62.2374C93.0131 61.058 95.0541 60.2078 96.33 58.8363C97.1733 57.9296 97.5877 54.8809 95.9855 54.3944C95.3428 54.199 94.2973 54.8359 93.6679 55.0305C92.604 55.3595 91.52 55.6214 90.4703 55.9967C88.6056 56.6631 86.8149 57.4547 84.9231 58.0527C86.0009 56.5195 88.0481 55.1975 89.7473 54.4265ZM152.805 53.977C152.805 55.0305 153.208 57.0334 152.754 57.9911C152.344 58.8537 149.858 59.3344 148.98 59.6639C146.137 60.7311 143.317 61.9192 140.411 62.8028C143.406 58.3703 147.857 55.7971 152.805 53.977ZM152.386 39.6645C151.649 40.7217 150.369 42.1552 148.87 41.6555C147.255 41.1169 145.99 38.6457 146.815 37.0776C147.52 35.738 149.532 34.8975 150.774 35.9534C151.045 36.1835 151.222 36.7725 151.481 36.9527C151.648 37.0679 151.912 36.7591 152.115 36.8827C152.716 37.2472 152.947 38.1371 153.814 38.0627C154.215 38.0285 155.501 36.9813 155.764 36.7136C156.468 35.997 156.223 35.2628 156.334 34.3211C156.487 33.0238 157.383 32.8247 158.414 32.1554C159.395 31.518 160.184 30.5673 161.155 29.9533C162.314 29.2201 161.65 30.1497 162.709 30.2417C162.9 30.2583 163.326 29.6243 163.658 29.6348C164.088 29.6485 164.274 29.9343 164.519 30.246C165.053 30.9231 164.66 31.1356 165.59 31.2934C166.261 31.4073 166.677 30.9202 167.251 30.9297C167.72 30.3987 168.415 29.29 169.254 29.6174C169.822 29.8391 170.025 31.0281 170.147 31.5246C170.608 33.4067 170.574 35.6186 170.591 37.5488C169.511 36.792 169.371 36.2834 169.034 35.0632C168.815 34.2703 168.286 33.1053 167.709 34.2963C167.545 34.6343 167.685 35.1526 167.577 35.5239C167.451 35.9547 167.15 36.1669 167.103 36.6368C166.99 37.7766 167.924 38.1674 168.73 38.7222C167.978 39.5325 165.813 38.9211 166.391 40.6509C167.001 42.4789 169.346 41.4667 170.515 41.008C171.512 44.7841 167.083 46.6037 164.383 47.6364C162.798 48.2426 162.178 48.5805 161.96 50.4295C161.774 52.0142 161.987 53.637 162.569 55.1173C162.802 55.7106 163.025 56.5216 163.343 57.0707C163.613 57.5359 164.15 57.5683 164.331 57.8278C164.998 58.7851 164.517 60.8623 164.439 62.0113C164.226 65.1528 163.247 68.0137 162.826 71.0795C162.61 72.6474 161.963 74.1153 161.686 75.6651C161.432 77.087 161.331 78.4292 160.132 79.4459C157.722 81.489 155.859 78.4718 155.024 76.4887C153.834 73.6638 153.716 69.9514 153.912 66.9392C154.125 63.6649 155.625 60.5191 155.704 57.269C155.788 53.7932 155.263 50.4934 154.393 47.1328C154.013 45.6641 153.459 44.3492 152.989 42.9291C152.605 41.7681 153.241 40.7196 152.386 39.6645ZM158.65 5.27914C158.65 5.28177 158.65 5.28413 158.651 5.28676C158.636 5.26967 158.62 5.25336 158.604 5.23338C158.621 5.25415 158.636 5.26835 158.65 5.27914ZM158.722 4.95357C158.686 4.70821 158.607 4.39948 158.554 4.26062C158.684 4.34083 158.832 4.40815 158.837 4.49231C158.851 4.73372 158.782 4.84733 158.722 4.95357ZM162.299 5.57341C162.274 5.58761 162.25 5.60312 162.225 5.6168C162.165 5.6168 162.115 5.60418 162.071 5.58445C162.088 5.58813 162.107 5.59103 162.128 5.5926C162.186 5.59681 162.243 5.58813 162.299 5.57341ZM164.17 4.95778C163.834 4.95515 163.482 4.92385 163.09 5.09347C163.153 5.05613 163.214 5.02273 163.277 5.00038C163.453 4.93832 163.823 4.94515 164.17 4.95778ZM145.203 96.8106C145.275 95.2382 145.274 94.7662 146.51 93.7524C147.541 92.9072 148.538 92.0202 149.58 91.1876C151.886 89.3436 154.35 87.3912 156.972 86.0143C158.441 85.243 162.45 83.6885 161.437 86.7335C160.481 89.6071 158.636 92.1595 157.048 94.7125C155.429 97.315 153.809 99.9195 152.128 102.482C151.396 103.596 150.624 104.689 149.924 105.824C149.235 106.94 149.164 107.693 147.751 107.231C146.725 106.895 145.565 106.485 144.597 106.048C143.746 105.664 143.797 105.43 143.774 104.431C144.3 101.849 145.081 99.4821 145.203 96.8106ZM151.783 65.3482C151.426 66.7867 148.861 66.9579 147.478 67.2369C147.24 67.2848 146.035 67.6742 145.811 67.5406C145.367 67.2769 145.585 66.5145 145.396 66.1453C144.36 64.1246 144.345 66.7081 144.05 67.3163C143.243 68.9831 142.005 65.6461 141.552 64.8291C141.203 64.2003 140.829 63.8805 141.19 63.3527C141.491 62.9133 143.165 62.6117 143.679 62.422C145.554 61.7302 147.423 61.0256 149.293 60.3203C150.098 60.0166 152.576 58.4264 152.549 59.9548C152.281 61.7133 152.211 63.6278 151.783 65.3482ZM150.382 82.5248C149.593 82.7697 147.451 83.7516 146.653 83.2885C145.98 82.8977 146.445 81.5274 146.521 80.8142C146.664 79.4698 146.643 78.0071 146.566 76.6586C146.454 74.6668 146.288 74.5095 148.255 73.9739C149.015 73.7666 151.335 72.645 151.9 73.2775C152.164 73.5728 152.052 74.5119 152.11 74.8698C152.236 75.6443 152.452 76.4014 152.735 77.1328C153.225 78.3969 153.939 79.5319 154.687 80.6559C153.346 81.48 151.881 82.0591 150.382 82.5248ZM145.928 68.4408C146.269 67.9517 147.964 67.882 148.524 67.7636C149.515 67.5543 150.506 67.3474 151.496 67.1383C151.549 68.3438 152.231 71.4921 151.364 72.3618C150.876 72.8512 149.243 72.9772 148.553 73.1471C147.8 73.3322 147.046 73.5139 146.292 73.6956C146.206 72.5338 146.135 71.3712 146.011 70.2125C145.966 69.7865 145.652 68.8387 145.928 68.4408ZM146.124 84.3559C146.645 83.7566 148.055 83.774 148.839 83.591C150.088 83.299 151.272 82.9006 152.454 82.407C153.115 82.1309 154.418 81.1855 155.149 81.4251C155.354 81.4921 155.783 82.3352 155.938 82.4935C156.205 82.7644 156.549 82.948 156.858 83.1618C157.709 83.7511 158.226 83.9344 159.23 84.134C153.98 86.2851 149.761 90.1123 145.419 93.643C145.111 93.3848 145.282 91.0769 145.316 90.5472C145.378 89.5645 145.421 88.5694 145.494 87.5832C145.555 86.773 145.57 84.9926 146.124 84.3559ZM162.068 105.284C161.909 106.179 161.885 107.409 161.501 108.236C161.149 108.994 161.192 108.941 160.255 108.963C159.072 108.992 157.715 109.19 156.569 108.83C157.592 106.573 158.443 104.119 159.843 102.06C160.283 101.413 161.132 99.757 162.052 99.8556C162.975 99.9547 162.772 100.88 162.699 101.549C162.562 102.798 162.287 104.047 162.068 105.284ZM166.677 70.0686C167.387 65.1986 167.327 60.4374 167.327 55.5328C168.461 55.6827 169.71 55.5883 170.804 55.9089C170.451 57.0334 169.433 58.0477 170.44 59.1154C171.463 60.1999 173.849 60.6754 175.231 61.0746C176.851 61.5424 178.502 62.1141 180.167 62.3921C180.915 62.5167 181.73 62.638 182.484 62.493C183.679 62.2637 183.785 61.9468 184.57 63.1768C184.574 63.1834 184.581 63.1934 184.585 63.2005C184.358 63.0703 183.639 63.1487 183.83 63.1542C183.859 63.2533 183.901 63.3519 183.925 63.4437C183.713 63.2696 183.244 63.1229 183.179 63.1113C182.398 62.974 181.407 63.3243 180.654 63.4979C178.967 63.8874 177.292 64.3118 175.657 64.8885C174.282 65.374 172.919 65.9175 171.607 66.5553C170.594 67.0476 168.254 67.9146 167.935 69.1206C167.322 71.4332 173.436 73.1904 174.927 73.9733C176.335 74.7126 175.891 75.8089 175.907 77.2776C175.924 78.8729 176.069 80.4531 175.958 82.0449C175.872 83.2783 175.778 83.0871 174.546 83.065C173.624 83.0484 172.702 83.0113 171.781 83.066C170.481 83.1434 169.146 83.3232 167.926 83.7955C166.101 84.5019 162.596 87.8649 166.089 88.8897C167.527 89.3118 169.381 89.1574 170.856 89.0556C172.134 88.9673 174.137 88.3858 175.371 88.825C176.014 88.643 176.246 88.8765 176.067 89.5256C176.097 89.9708 176.126 90.4157 176.156 90.8604C176.215 91.7559 176.275 92.651 176.335 93.5465C176.457 95.3787 176.578 97.2111 176.7 99.0432C175.628 97.5256 174.154 94.5313 171.87 94.8735C169.91 95.167 168.751 98.2041 168.12 99.7714C167.606 101.045 167.275 102.38 166.928 103.705C166.595 104.98 166.473 106.782 165.863 107.937C165.263 109.074 164.429 108.692 163.199 108.809C161.663 108.956 162.282 108.096 162.526 106.791C162.898 104.803 164.215 101.374 162.946 99.5213C161.324 97.1564 159.034 101.538 158.412 102.722C157.829 103.828 157.333 104.975 156.887 106.142C156.599 106.895 156.367 108.523 155.624 108.935C154.714 109.44 153.272 108.632 152.436 108.368C151.455 108.058 150.382 107.928 149.374 107.725C152.244 103.237 155.228 98.8163 158.011 94.2755C159.403 92.0052 161.159 89.6215 161.923 87.0533C162.068 86.5668 162.246 86.1021 162.187 85.5846C162.136 85.143 161.471 84.4488 161.513 84.1424C161.576 83.6882 162.488 83.309 162.915 82.8317C164.398 81.1731 164.77 79.1992 165.231 77.0907C165.732 74.7959 166.339 72.3868 166.677 70.0686ZM172.279 56.15C174.464 55.6796 176.947 56.9342 178.775 57.947C179.981 58.6152 183.199 60.0121 183.322 61.6486C183.289 61.2047 180.33 61.4816 179.745 61.4961C177.245 60.9552 174.578 60.2259 172.246 59.148C171.396 58.7554 170.398 58.3709 170.708 57.3631C170.911 56.701 171.659 56.2834 172.279 56.15ZM169.744 88.3453C168.362 88.2659 163.346 88.3203 165.871 85.8181C167.451 84.251 170.361 83.911 172.463 83.9026C173.216 83.8997 173.958 83.9586 174.707 84.0354C174.912 84.0598 175.117 84.084 175.322 84.1085C175.949 83.9838 176.145 84.2431 175.909 84.8858C176.021 85.2619 176.201 87.4922 175.871 87.806C175.432 88.222 174.036 88.0384 173.521 88.0787C172.257 88.1773 171.012 88.3529 169.744 88.3453ZM177.079 107.302C173.445 107.843 169.816 108.533 166.131 108.591C166.681 105.907 167.322 103.229 168.323 100.672C168.964 99.0377 170.126 95.5099 172.366 95.6834C174.154 95.822 176.241 98.8834 176.739 100.447C177.389 102.486 177.079 105.182 177.079 107.302ZM186.414 66.5019C186.341 66.8737 184.71 67.5427 184.361 67.7452C181.845 69.2061 179.604 71.3717 178.098 73.8329C177.93 72.883 177.957 71.0816 177.16 70.4068C175.758 69.219 176.046 71.88 175.878 72.6929C175.721 73.4553 175.916 73.3319 175.258 73.3998C174.675 73.4597 173.185 72.3676 172.647 72.0925C171.158 71.3317 169.732 70.5039 168.301 69.6403C169.486 67.6847 172.98 66.7872 174.969 66.0051C177.828 64.8809 180.646 64.3057 183.672 63.8403C184.178 64.1033 184.243 63.5116 184.621 63.379C184.643 63.3485 184.65 63.3227 184.651 63.2988C185.095 63.9586 186.522 65.9478 186.414 66.5019ZM190.115 92.8533C191.523 99.3178 191.874 106.043 193.652 112.429C195.343 118.5 196.845 124.544 198.798 130.532C199.924 133.982 200.968 137.466 202.472 140.778C203.521 143.088 204.354 148.015 206.909 149.097C208.582 149.804 209.324 149.178 209.145 147.483C208.99 146.008 208.225 145.082 207.593 143.808C207.373 143.364 206.656 142.112 206.734 141.641C206.831 141.056 206.98 141.119 207.591 140.83C208.888 140.215 210.181 139.799 211.562 139.443C211.005 140.307 209.892 141.541 209.802 142.597C209.728 143.468 210.355 145.066 211.221 145.4C212.04 145.716 213.003 145.05 213.704 144.644C214.515 144.173 215.289 144.042 216.182 143.708C215.043 145.347 213.179 146.652 213.977 148.907C214.829 151.311 217.472 149.345 219.161 149.073C218.679 150.936 216.537 153.06 214.997 154.097C213.963 154.793 212.841 155.421 211.731 155.984C211.301 156.202 210.737 156.336 210.342 156.595C210.192 156.694 209.94 157.113 209.804 157.179C207.887 158.104 205.272 158.34 203.187 158.785C200.889 159.274 198.911 159.394 196.545 159.281C194.588 159.187 192.42 157.985 190.785 156.977C189.541 156.21 189.36 155.273 188.973 153.919C188.331 151.675 187.757 149.417 187.144 147.165C186.616 145.224 186.371 143.36 186.013 141.39C185.255 137.217 184.906 132.977 184.093 128.81C183.286 124.672 183.016 120.48 182.792 116.249C182.685 114.212 182.353 112.133 182.252 110.136C182.169 108.511 182.197 106.875 182.206 105.204C182.213 104.029 181.796 102.855 181.824 101.676C181.849 100.634 181.945 99.6952 181.835 98.6422C181.6 96.3987 181.416 94.1818 181.24 91.935C180.895 87.5553 179.882 83.2336 179.478 78.8726C179.304 76.9865 181.375 75.178 182.779 74.0796C184.275 72.9091 185.475 71.2652 187.121 70.3437C187.731 77.9075 188.498 85.4323 190.115 92.8533ZM165.324 173.721C163.701 174.444 162.079 175.168 160.455 175.89C159.261 176.42 157.695 177.511 156.383 177.413C157.316 176.15 157.903 174.707 158.898 173.481C159.891 172.256 160.71 170.956 161.608 169.662C162.788 171.101 163.995 172.418 165.324 173.721ZM165.669 167.373C168.125 166.08 171.614 163.621 174.492 164.084C176.565 164.418 178.913 165.935 180.164 167.605C180.751 168.388 181.339 169.119 182.011 169.886C182.627 170.59 182.943 170.499 182.404 171.232C181.99 171.797 181.014 172.179 180.378 172.397C180.378 171.162 180.763 169.924 179.278 170.046C178.692 170.094 178.009 170.234 177.425 170.33C176.922 170.412 176.63 170.63 176.201 170.731C175.744 170.838 175.197 170.712 174.723 170.749C173.906 170.813 173.252 171.14 172.479 171.311C170.878 171.666 169.527 172.155 167.968 172.679C167.255 171.59 166.656 170.28 165.687 169.39C164.604 168.395 164.143 168.178 165.669 167.373ZM144.605 4.27745C144.841 4.25273 145.11 4.10626 145.292 3.80094C144.973 4.33531 144.786 4.3595 144.605 4.27745ZM137.245 5.12845C137.53 5.18026 137.812 5.24363 138.048 5.35435C138.281 5.46322 138.406 5.58735 138.531 5.69622C138.473 5.67097 138.41 5.64389 138.339 5.61443C138.032 5.48636 137.64 5.2552 137.245 5.12845ZM132.336 45.6512C132.317 45.6251 132.299 45.6012 132.28 45.5775C132.299 45.6012 132.317 45.6251 132.336 45.6512H132.336ZM131.382 45.7898C131.292 45.7569 131.216 45.7027 131.156 45.6238C131.216 45.7027 131.292 45.7569 131.382 45.7898C131.441 45.8113 131.507 45.8237 131.578 45.8271C131.507 45.8237 131.441 45.8113 131.382 45.7898ZM131 45.0093C131 45.1226 131.009 45.2223 131.026 45.3098C131.009 45.2223 131 45.1226 131 45.0093ZM132.156 45.4316C132.133 45.4071 132.11 45.3845 132.087 45.3635C132.11 45.3845 132.133 45.4074 132.156 45.4316ZM131.959 45.2604C131.923 45.2357 131.886 45.2133 131.848 45.1947C131.886 45.2133 131.923 45.2357 131.959 45.2604ZM172.777 6.19298C172.83 6.20824 172.876 6.21481 172.918 6.21718C172.86 6.22296 172.814 6.21428 172.777 6.19298ZM174.04 7.03846C173.886 6.89618 173.795 6.75681 173.749 6.61717C173.772 6.63189 173.798 6.6453 173.828 6.65688C173.874 6.61164 173.919 6.56641 173.965 6.52092C173.901 6.63873 173.88 6.75234 173.928 6.85437C174.164 7.34666 174.452 6.59823 174.807 6.9685C174.541 6.93589 174.216 7.03846 174.04 7.03846C173.63 7.6007 173.22 8.16321 172.81 8.72546C173.365 9.00237 173.539 8.6605 173.849 9.16515C173.864 9.18961 173.877 9.24957 173.889 9.32873C173.76 8.96082 173.424 9.03156 172.81 8.72546C173.22 8.16321 173.63 7.6007 174.04 7.03846ZM175.102 8.27629C175.14 8.24789 175.163 8.2087 175.178 8.1569C175.188 8.12219 175.194 8.08195 175.198 8.0354C175.194 8.08195 175.188 8.12219 175.178 8.1569C175.163 8.2087 175.14 8.24789 175.102 8.27629C175.077 8.29523 175.045 8.30943 175.004 8.31916C175.045 8.30943 175.077 8.29523 175.102 8.27629ZM175.219 7.67854C175.213 7.75191 175.21 7.81792 175.208 7.87709C175.21 7.81792 175.213 7.75191 175.219 7.67854ZM174.612 9.1762C174.63 9.20881 174.649 9.23826 174.67 9.26561C174.65 9.23747 174.63 9.20881 174.612 9.1762ZM173.995 11.3889C173.409 11.0752 173.918 10.6802 173.942 10.1981C173.944 10.1553 173.945 10.119 173.947 10.0795C173.951 10.196 173.951 10.2915 173.948 10.3383C173.909 11.0194 173.425 11.209 174.306 11.4155C174.366 11.4297 174.444 11.437 174.532 11.4404C174.307 11.4567 174.111 11.451 173.995 11.3889ZM183.087 16.4507C183.05 16.1722 184.354 15.5644 184.522 15.4898C184.315 15.5815 183.052 16.1867 183.087 16.4507ZM184.569 13.9845C184.561 13.9808 184.551 13.9797 184.542 13.9758C184.544 13.9553 184.542 13.9361 184.542 13.9161C184.548 13.9414 184.556 13.9648 184.569 13.9845ZM185.263 16.2337C185.27 16.2035 185.284 16.1228 185.3 16.0265C185.323 16.1454 185.348 16.2569 185.372 16.3542C185.343 16.3163 185.309 16.2766 185.263 16.2337ZM184.251 16.2166C184.25 15.7446 184.398 15.8453 184.49 15.8595C184.406 15.986 184.25 16.0097 184.251 16.2166ZM182.875 17.2533C183.012 17.2265 183.127 17.3051 183.234 17.3958C183.002 17.3346 182.812 17.2654 182.875 17.2533ZM181.756 19.9496C181.735 19.957 181.715 19.9617 181.695 19.9675C181.715 19.9617 181.735 19.957 181.756 19.9496ZM181.869 19.9091C181.854 19.9151 181.841 19.9194 181.826 19.9246C181.841 19.9194 181.854 19.9151 181.869 19.9091ZM181.658 19.9783C181.629 19.9854 181.603 19.9904 181.577 19.9938C181.603 19.9904 181.629 19.9854 181.658 19.9783ZM182.518 36.2955C182.575 36.1982 182.7 36.1661 182.841 36.1506C182.663 36.2182 182.527 36.3631 182.495 36.5729C182.46 36.4954 182.451 36.4073 182.518 36.2955ZM183.543 33.2773C183.533 33.2744 183.523 33.2705 183.514 33.2697C183.227 33.2473 183.102 33.433 183.071 33.7167C183.09 33.4693 183.173 33.2673 183.388 33.2016C183.376 33.1792 183.367 33.1584 183.356 33.1366C183.411 33.1863 183.474 33.2331 183.543 33.2773ZM183.203 34.8055C183.197 34.7718 183.19 34.735 183.182 34.6969C183.214 34.8318 183.251 34.9661 183.288 35.0953C183.251 34.9914 183.219 34.8922 183.203 34.8055ZM183.453 30.1066C183.429 30.1174 183.403 30.1268 183.375 30.135C183.403 30.1268 183.429 30.1176 183.453 30.1066ZM183.523 30.065C183.507 30.0771 183.488 30.0876 183.468 30.0976C183.488 30.0876 183.506 30.0769 183.523 30.065ZM183.362 30.1395C183.329 30.1484 183.292 30.1558 183.252 30.1608C183.292 30.1558 183.328 30.1487 183.362 30.1395ZM183.657 26.7092C183.66 26.8359 183.661 26.9624 183.665 27.0821C183.644 26.9645 183.642 26.8486 183.657 26.7092ZM240.553 195.891C239.77 195.187 237.143 195.14 236.1 194.942C238.357 192.786 240.053 187.333 235.742 186.633C234.788 186.478 234.518 186.845 234.299 185.765C234.166 185.104 234.438 184.494 234.11 183.835C233.33 182.27 230.366 182.445 228.885 182.22C229.239 180.977 230.107 178.757 228.799 177.748C227.768 176.953 225.622 178.015 224.526 178.356C221.565 179.276 218.558 180.327 216.06 182.182C214.941 180.672 213.771 179.183 212.832 177.55C211.936 175.993 211.381 174.271 210.54 172.686C209.695 171.096 208.799 169.222 207.621 167.855C206.623 166.698 205.254 166.584 203.937 166.031C200.596 164.631 197.701 164.711 194.21 165.229C190.721 165.747 187.696 167.786 184.741 169.565C183.581 165.657 180.898 161.41 176.739 160.205C174.873 159.664 172.909 160.186 171.202 161.037C169.088 162.091 167.425 163.883 165.357 164.88C167.715 160.847 170.692 157.054 173.283 153.245C174.704 151.156 176.5 149.291 177.888 147.163C179.303 144.993 180.346 142.58 181.372 140.212C182.24 142.422 182.386 144.748 183.183 146.966C183.914 149.002 184.415 151.091 185.246 153.094C186.114 155.184 186.881 157.247 188.054 159.193C188.723 160.303 190.373 163.759 191.589 161.542C194.294 163.368 196.906 164.47 200.29 164.391C201.839 164.354 203.565 164.305 205.048 163.958C206.554 163.607 207.993 163.133 209.49 162.795C210.674 162.528 211.756 161.806 212.833 161.271C214.072 160.656 215.299 159.549 216.256 158.579C217.44 157.378 218.664 156.221 219.855 155.027C221.033 153.846 220.948 152.64 221.578 151.172C222.236 149.64 222.518 148.286 221.648 146.74C221.011 145.608 219.883 145.764 219.619 144.617C219.369 143.529 219.612 142.503 218.928 141.505C218.409 140.748 216.541 140.241 216.535 139.468C216.53 138.829 217.194 138.263 217.168 137.497C217.144 136.812 216.809 135.711 216.441 135.132C215.749 134.043 214.695 134.006 213.506 134.339C210.634 135.143 207.819 137.211 205.844 139.383C203.136 131.973 201.004 124.4 199.023 116.821C198.149 113.473 197.463 110.081 196.907 106.668C196.356 103.288 195.522 99.8832 195.15 96.4858C194.926 94.4482 194.299 92.5416 194.005 90.5288C193.763 88.8623 193.601 87.183 193.362 85.5157C192.833 81.8214 192.099 78.1836 191.528 74.4982C191.212 72.4615 190.5 70.6795 189.952 68.7183C189.481 67.0362 189.201 65.598 188.415 64.0091C186.916 60.9786 185.374 57.2664 182.461 55.3406C179.871 53.6278 177.358 52.1964 174.201 51.8456C172.349 51.6397 170.857 52.0747 169.046 52.2743C167.442 52.4513 166.069 53.3367 164.505 53.6557C164.505 52.1707 164.36 52.1304 165.716 51.6021C166.498 51.2978 167.26 50.9636 168.056 50.699C168.895 50.4203 169.53 50.1481 170.245 49.6358C171.089 49.0307 170.557 49.2229 171.568 49.432C173.163 49.7618 172.693 49.3792 173.741 48.5855C174.352 48.1234 174.975 48.4053 175.689 48.4977C176.355 48.5836 177.452 48.8779 177.96 48.2786C178.347 47.8228 177.925 47.0408 178.21 46.5453C178.66 45.7632 179.95 45.799 180.638 45.2735C181.391 44.6989 181.459 44.0512 181.296 43.1676C181.183 42.5559 180.218 41.1971 180.272 40.6709C180.309 40.3204 180.493 40.2178 180.732 40.1891C182.618 40.2843 182.527 40.0003 182.067 38.3307C182.04 38.5779 182.023 38.7883 182.005 38.9694C182 38.7102 182.002 38.4679 182.067 38.3307C182.116 38.2271 182.292 38.1603 182.452 38.0769C182.41 38.1187 182.366 38.1613 182.314 38.2092C182.395 38.5639 182.418 39.4915 182.759 39.7437C183.003 39.9243 183.859 39.9059 184.032 39.604C184.393 38.9734 183.151 38.6157 183.102 38.1476C184.529 38.0285 184.042 37.3337 183.296 36.6247C183.267 36.4301 183.38 36.3381 183.636 36.3486C183.509 36.2155 183.351 36.1401 183.194 36.1156C183.305 36.0972 183.402 36.0646 183.452 35.9857C183.497 35.9163 183.5 35.8206 183.483 35.713C183.511 35.7958 183.535 35.8668 183.553 35.9215C184.784 36.4178 184.151 33.7843 183.641 33.3354C183.68 32.6049 183.719 31.8743 183.758 31.1438C183.407 31.3752 183.14 31.736 183.048 32.1126C183.061 31.7649 183.264 31.4696 183.758 31.1438C182.967 30.7958 182.889 30.7535 183.739 30.6793C184.443 31.3207 184.344 30.7882 184.781 30.3964C184.754 30.4198 185.44 29.6745 185.395 29.7884C185.721 28.9826 185.361 27.2822 184.047 27.836C184.761 28.474 184.045 28.5916 183.796 29.1401C183.787 29.1585 183.781 29.178 183.774 29.1972C183.787 29.1315 183.805 29.0681 183.832 29.0097C184.272 28.0648 184.376 28.7904 183.892 27.7153C183.891 27.7145 183.891 27.7137 183.89 27.7127C184.019 27.7774 184.219 27.7637 184.537 27.6299C184.933 27.1462 185.053 27.344 185.266 26.721C185.452 26.1759 185.366 25.804 184.994 25.6012C185.036 25.6123 185.079 25.6247 185.122 25.6354C185.286 25.2163 185.058 24.8168 184.678 24.624C184.524 24.8749 184.371 25.126 184.218 25.3772C184.287 25.3995 184.357 25.4195 184.427 25.4406C184.426 25.4406 184.425 25.4406 184.424 25.4403C183.937 25.384 183.74 25.4713 183.667 25.6959C183.643 25.5952 183.636 25.4961 183.692 25.4061C183.751 25.3101 184.172 25.4524 184.218 25.3772C184.972 24.1417 184.175 23.1132 182.961 22.4839C182.5 22.2449 181.591 22.2367 181.428 21.6774C181.313 21.2821 181.886 20.3257 181.996 19.8568C182.843 19.4686 181.279 19.2414 181.269 19.2398C181.222 19.7929 181.252 20.0377 181.572 19.9948C181.25 20.0385 181.222 19.791 181.269 19.2398C181.729 19.3103 183.085 19.1838 183.75 18.732C184.851 18.7633 185.418 18.954 186.085 18.0001C185.433 17.7295 184.664 17.8752 184.079 17.4597C184.106 17.5846 184.128 17.698 184.142 17.8027C184.091 17.648 183.981 17.515 183.833 17.3887C183.929 17.4708 183.879 17.4971 183.766 17.4934C183.787 17.4642 183.81 17.4305 183.833 17.3887C183.873 16.9259 184.213 17.1144 184.558 17.1434C184.549 16.9945 184.49 16.8693 184.426 16.7452C184.489 16.8643 184.548 16.9864 184.558 17.1434C184.776 17.0045 184.995 16.8657 185.214 16.7265C185.332 16.6921 185.404 16.644 185.432 16.5835C185.432 16.5845 185.432 16.5859 185.432 16.5869C186.477 16.8983 186.159 14.6877 185.678 14.699C185.549 14.7021 185.456 14.7495 185.387 14.8244C185.402 14.6206 185.437 14.405 185.521 14.1031H185.52H185.521C185.57 13.9732 185.618 13.8433 185.667 13.7134C185.404 13.7302 184.552 13.2218 184.537 13.8283C184.521 13.7189 184.477 13.6168 184.403 13.524C184.479 12.8532 184.084 12.9102 183.471 12.7227C183.244 12.653 182.993 12.2178 182.737 12.4006C182.352 12.6751 182.584 12.9336 182.831 13.1293C182.794 13.3573 182.685 13.5395 182.503 13.6757C182.475 13.6497 182.449 13.6297 182.422 13.6095C182.593 13.5098 182.736 13.3512 182.831 13.1293C182.043 12.5068 181.711 12.9142 181.105 13.4149C181.346 13.6155 181.626 13.7236 181.894 13.7347C181.88 13.7641 181.867 13.7938 181.855 13.8291C181.551 13.7912 181.301 13.6531 181.105 13.4149C181.749 12.8829 181.691 12.5568 180.908 12.2412C180.644 12.1347 180.476 12.3719 180.149 12.2465C179.987 12.1841 179.869 11.9012 179.711 11.8076C178.527 11.1072 177.105 11.5059 175.843 11.34C176.001 11.3197 176.143 11.3 176.25 11.2858C176.125 10.8514 175.787 10.6633 175.43 10.5311C175.431 10.2836 175.431 10.0359 175.431 9.78841C175.381 9.7771 175.332 9.77184 175.285 9.77053C175.368 9.70531 175.417 9.61669 175.405 9.46574C175.101 9.57566 174.843 9.49467 174.676 9.27455C175.007 9.69716 175.652 9.47599 175.849 8.934C176.056 8.36597 175.613 7.98439 175.228 7.56283C175.238 7.15785 175.065 7.01216 174.843 6.97324C175.244 6.18536 175.334 6.57614 174.903 5.59076C174.868 4.92675 174.304 5.1679 173.924 5.59445C173.964 5.49662 174.005 5.39616 174.044 5.2915C173.745 5.27125 173.446 5.251 173.147 5.23022C173.223 5.47269 173.39 5.9045 173.17 6.11041C173.317 5.89976 173.212 5.43955 173.147 5.23022C172.78 5.02615 172.414 4.82208 172.048 4.61748C172.078 4.68297 172.163 4.92938 172.267 5.20839C171.985 4.8163 171.755 4.5733 171.371 4.16963C171.184 3.97266 170.45 3.02726 170.247 2.96835C169.003 2.60807 168.062 5.03877 166.544 4.70611C165.649 4.50993 166.067 4.27851 165.222 4.4426C164.759 3.8417 161.737 4.78658 161.621 5.35829C161.678 5.34304 161.721 5.33673 161.756 5.33568C161.416 5.4577 161.119 5.64546 160.79 5.77248C159.962 6.09121 160.455 6.17431 159.516 5.63784C159.195 5.4548 159.077 5.51213 158.952 5.4953C159.357 5.31385 159.551 4.05787 159.557 3.61002C159.572 2.53996 159.43 2.72773 159.848 1.96036C159.462 1.95431 159.189 1.92144 158.987 2.01322C159.045 1.83124 159.086 1.65268 159.085 1.4799C159.294 0.913972 159.11 0.247324 158.463 0.0898004C157.485 -0.14872 157.293 1.25479 158.002 1.48463C157.323 1.26478 157.595 0.376972 156.672 0.256791C157.011 0.239435 157.221 0.303338 157.537 0.690967C157.641 0.480585 157.745 0.270466 157.85 0.060084C157.115 -0.0167054 156.775 -0.0790311 156.182 0.265995C155.601 0.369609 155.191 0.79011 154.753 1.20062C153.558 2.31853 152.486 3.40963 151.386 4.62248C150.821 3.46301 150.198 2.61885 149.281 3.91639C148.453 5.08742 147.784 6.70605 147.353 8.06775C146.494 7.67355 146.856 7.54495 146.496 6.90644C146.87 7.52838 146.489 7.67144 147.353 8.06775C147.439 7.79609 147.525 7.52417 147.611 7.25252C146.858 6.39548 146.89 5.54395 146.075 4.63011C145.985 4.92306 146.245 5.34041 146.29 5.60444C146.341 5.89713 146.016 6.10041 146.09 6.4152C146.394 6.30396 146.465 6.37102 146.475 6.49278C146.464 6.37128 146.392 6.30475 146.09 6.4152C145.969 5.90108 146.269 5.62784 146.102 5.05376C146.034 4.82182 145.935 4.6522 145.817 4.4881C146.335 3.62159 144.658 3.02121 144.268 3.53691C144.219 3.60187 144.186 3.66235 144.16 3.72073C143.505 3.42646 143.303 4.05261 142.997 4.52281C142.925 4.66982 142.852 4.81708 142.779 4.96435C142.394 5.28071 142.036 5.94263 141.746 6.37575C141.125 7.3017 140.865 8.65682 140.105 9.42839C140.13 8.93137 140.402 7.82949 139.508 8.27392C139.803 8.12718 139.846 7.94888 139.781 7.74218C139.836 7.77348 139.897 7.80188 139.966 7.82502C140.092 7.83738 140.218 7.84948 140.344 7.86157C140.328 7.15785 139.866 6.69527 139.321 6.32105C139.321 6.50487 139.315 6.69395 139.327 6.87515C139.324 6.86857 139.321 6.86226 139.318 6.85569C139.078 6.28266 139.18 6.11383 138.972 5.93816C139.054 5.95762 139.147 5.97156 139.262 5.97708C138.594 4.84969 137.707 4.66955 136.481 4.98723C136.564 5.00695 136.652 5.02378 136.741 5.04035C136.602 5.04062 136.468 5.06533 136.342 5.12661C135.866 5.35829 135.161 6.69001 134.83 7.1518C133.667 8.777 133.125 10.7683 132.516 12.6467C132.345 13.1753 132.086 14.4142 131.424 14.5914C130.656 14.7976 129.841 13.5464 129.165 13.1282C127 11.7899 125.923 14.1928 125.589 16.0991C125.092 16.9425 125.207 17.5925 125.924 17.992C125.723 17.7019 125.631 17.3929 125.593 17.0742C125.688 17.6159 126.14 17.8037 126.222 18.0356C126.267 18.1629 126.329 18.935 126.328 19.0902C126.697 19.3661 126.725 19.5699 126.411 19.7016C126.219 19.8328 126.039 19.9796 125.871 20.1416C125.352 20.688 125.357 21.4457 124.882 21.9772C124.346 22.5783 123.853 22.3127 123.6 23.301C123.166 24.994 124.235 27.5504 126.159 27.7124C125.93 28.3791 125.635 29.0552 125.464 29.7389C125.238 30.6486 125.254 30.7406 125.683 31.6108C122.483 31.1356 122.733 34.5199 124.557 36.1821C124.989 36.5761 125.462 36.8214 126.02 36.9961C126.423 37.1226 127.641 37.0521 127.932 37.4344C128.543 38.2407 127.178 39.289 127.058 40.1886C127.045 40.2807 127.04 40.4387 127.044 40.6223C126.54 41.2384 126.565 41.2894 127.285 41.8656C127.679 42.3732 128.898 42.2517 129.269 42.7371C129.839 43.4842 128.567 44.6868 129.205 45.5597C129.711 46.2534 130.24 45.8211 131.051 46.1151C131.444 46.2942 131.836 46.4738 132.228 46.6542C132.412 46.5266 132.613 46.4464 132.831 46.4141C133.289 46.6444 132.852 47.0502 133.43 47.1859C133.73 47.2806 134.423 47.6398 134.726 47.4536C134.296 47.7177 134.007 48.3709 133.761 49.0888C133.526 49.4728 133.309 49.8954 133.395 50.2125C133.251 50.6522 133.102 51.0533 132.926 51.3325C133.924 51.4845 133.807 52.4242 134.498 52.9401C135.431 53.7388 135.587 52.9975 135.366 52.608C135.46 52.6553 135.556 52.7169 135.655 52.7871C135.673 52.8002 135.473 53.2746 135.67 53.3853C135.945 53.5408 135.945 53.3848 136.232 53.3817C136.502 53.3785 136.893 52.9738 137.223 52.9399C137.399 52.922 137.917 53.1618 138.025 53.0905C138.324 52.8925 138.301 52.6753 138.184 52.4126L138.318 52.6795C138.64 53.5192 138.802 53.3301 139.29 53.0895C139.158 53.1545 139.672 52.771 139.778 52.8018C139.538 52.1362 138.585 52.2062 137.998 52.0397C138.37 52.1451 138.973 52.1491 139.316 52.2964C139.888 52.5428 139.707 52.7934 140.386 52.8702C140.671 52.9025 141.836 52.5864 142.041 52.3792C142.061 52.3595 142.074 52.3355 142.085 52.309C142.19 52.1404 142.296 51.9716 142.401 51.8027C142.832 51.8527 142.366 52.5138 143.041 52.2509C143.546 52.0539 143.3 51.7801 143.14 51.4814C143.087 51.3836 143.028 51.3139 142.966 51.2636C143.663 51.4304 144.492 52.3682 145.444 52.1054C145.981 51.9574 146.011 51.5913 146.404 51.2489C146.93 50.7916 147.093 50.8621 147.73 50.6409C148.116 50.5068 148.526 50.2109 148.914 50.142C149.547 50.0298 149.372 50.0994 149.896 50.3656C150.209 50.5247 150.387 50.8232 150.783 50.881C151.144 50.9336 151.711 50.5186 152.003 50.6328C152.798 50.9433 152.596 52.0586 152.641 52.7939C148.615 51.5137 143.91 53.56 140.947 56.3699C140.143 57.1317 139.618 58.0351 138.904 58.8634C138.129 59.7623 137.399 60.1707 137.29 61.4514C137.196 62.5556 137.694 63.2186 137.301 64.2795C136.923 65.2964 136.512 66.2063 136.236 67.2663C134.917 72.3289 134.876 77.5861 133.899 82.7186C132.995 87.4678 131.704 91.6985 129.576 96.0519C128.59 98.07 127.763 99.3054 125.6 100.157C123.849 100.845 122.568 99.9426 121.713 98.3726C119.411 94.1474 119.084 89.8022 119.112 85.0894C119.125 82.8254 119.383 80.5612 119.602 78.3104C119.828 75.9775 119.658 73.7979 119.496 71.4685C119.17 66.798 118.104 62.7923 116.499 58.3998C115.738 56.3165 115.096 54.2855 113.264 52.9301C112.237 52.1712 111.206 51.2218 110.003 50.5654C109.04 50.0403 108.467 49.5659 107.369 49.3308C106.647 49.1761 105.989 48.9373 105.292 48.713C103.647 48.1844 101.744 48.0209 100.018 48.0267C95.9886 48.0403 91.5664 49.3957 87.9392 51.1337C86.1333 51.9992 84.1721 53.2878 82.9824 54.9296C82.4916 55.6072 82.1573 56.3586 81.8239 57.1209C81.4248 58.0322 81.5503 58.1989 80.7051 58.1671C80.1758 58.1471 79.5838 57.6577 78.9775 57.6316C78.3137 57.6032 77.8279 57.8341 77.21 58.0053C76.4258 58.2226 75.6885 58.4172 74.9913 58.8674C73.2992 59.959 71.8681 61.6989 70.5751 63.2168C68.2079 65.9951 66.0664 69.1088 63.8519 71.9387C61.6711 74.7249 59.0219 77.1977 55.6346 78.4608C54.3424 78.9428 52.9115 79.0401 51.5922 79.4299C51.0133 79.6008 50.3121 80.0547 49.7056 80.0468C48.7524 80.0347 48.8257 79.5682 48.4956 78.8124C48.1034 77.9146 47.5359 77.2156 46.8268 76.545C43.6807 73.5689 39.768 77.9785 40.0108 81.3754C40.1528 83.3601 41.6417 84.6692 41.5892 86.617C41.5399 88.4395 41.6485 90.2879 42.2991 92.0175C43.0293 93.9573 44.825 95.969 46.4084 97.2887C47.8754 98.5112 49.7127 98.7708 51.5606 98.9749C52.4075 99.0682 53.2864 99.3199 54.1054 99.3052C54.8071 99.2923 55.4453 99.0085 56.1618 99.0375C57.377 99.0864 58.0284 99.0785 59.1671 98.6475C60.0117 98.3279 60.7738 98.1504 61.6935 98.1712C61.6935 100.108 61.8163 102.002 61.9829 103.932C62.0048 104.187 62.1812 104.848 62.0639 105.076C61.9191 105.356 61.7473 105.171 61.567 105.373C61.1368 105.854 60.8249 106.09 60.5028 106.715C59.6192 108.43 59.3487 110.347 59.693 112.259C59.9632 113.758 60.8452 114.375 60.6367 115.967C60.3916 117.838 59.9355 119.747 59.8475 121.63C59.8053 122.529 59.7948 123.207 59.6044 124.078C59.4945 124.584 59.1247 125.495 59.1545 126.006C59.1732 126.322 59.5082 126.462 59.5088 126.751C59.5095 127.003 59.2177 126.97 59.1977 127.186C59.1365 127.838 59.101 128.429 59.1149 129.085C59.1334 129.972 59.0467 130.853 59.0799 131.74C59.1052 132.416 58.9478 134.015 59.7067 133.752C59.5043 134.229 59.4505 134.689 59.4305 135.147C59.4202 135.103 59.4157 135.057 59.4197 135.011C59.466 134.482 59.4816 134.283 59.7067 133.752L59.2736 133.902C59.0087 134.585 59.334 135.254 59.4067 135.934C59.4044 136.002 59.402 136.07 59.3978 136.138C59.3366 137.126 59.4112 138.092 59.485 139.077C59.6535 141.326 59.7328 143.832 60.3415 145.853C61.0087 148.068 60.7954 150.852 61.0527 153.292C61.3471 156.084 61.8245 158.831 62.1801 161.612C62.4978 164.096 62.6509 166.791 63.1958 169.21C63.6426 171.191 64.0206 173.12 64.2602 175.202C64.5918 178.09 65.6465 180.289 66.8072 182.913C67.298 184.023 67.3317 184.005 66.4307 184.817C66.0532 185.156 65.7332 185.554 65.3486 185.886C64.5786 186.551 63.7375 186.938 62.7263 187.058C60.2371 187.352 57.7223 188.237 56.3239 190.381C54.9724 192.453 55.8481 194.882 56.8595 196.994C55.5246 197.107 51.9146 197.026 52.7592 199.455C53.3365 201.117 56.4148 200.56 57.7745 200.578C59.7613 200.605 61.762 200.508 63.7314 200.48C64.6279 200.468 64.7194 200.375 65.5925 200.717C66.4152 201.039 67.0431 201.074 67.9333 201.015C68.8812 200.953 69.8286 201.093 70.7472 200.956C71.9053 200.785 72.6257 200.64 73.789 200.846C74.6299 200.995 75.3039 200.922 76.1429 200.811C77.0729 200.688 77.9536 200.762 78.9132 200.736C81.1543 200.676 83.3783 200.718 85.6211 200.743C87.8011 200.768 89.9827 200.47 92.1477 200.568C95.9233 200.738 99.7661 200.583 103.559 200.671C105.309 200.712 106.66 201.729 108.414 201.624C110.196 201.518 112.003 201.502 113.771 201.253C116.816 200.824 119.751 200.218 122.844 200.06C124.8 199.96 126.518 200.801 128.358 201.33C129.025 201.521 129.624 201.431 130.248 201.573C130.836 201.707 131.439 202.091 132.06 202.25C133.53 202.626 134.936 202.77 136.228 202.804C136.395 203.114 136.588 203.152 136.807 202.918C136.896 202.868 136.985 202.817 137.073 202.767C137.485 202.712 137.779 202.526 138.212 202.499C138.878 202.457 139.561 202.547 140.179 202.488C141.474 202.363 142.69 202.281 144.122 202.428C144.971 202.516 145.715 202.392 146.551 202.408C146.541 202.408 147.698 202.633 147.724 202.623C147.827 202.583 147.988 202.298 148.055 202.285C148.031 202.012 148.113 201.889 148.302 201.915C148.454 201.882 148.554 201.962 148.602 202.153C148.557 202.158 148.962 202.363 148.991 202.367C149.015 202.371 150.06 202.247 150.133 202.22C150.433 202.108 150.56 201.782 150.8 201.733C151.083 201.675 151.252 201.987 151.497 201.974C152.038 201.945 151.974 201.704 152.39 201.629C153.85 201.366 155.638 201.708 157.146 201.71C158.649 201.713 160.143 201.575 161.591 201.512C163.37 201.434 165.113 201.771 166.905 201.531C168.61 201.303 170.316 201.204 172.034 201.132C175.624 200.981 179.308 201.141 182.865 200.719C186.568 200.28 190.334 200.718 194.043 200.652C197.954 200.583 201.885 200.547 205.795 200.387C209.686 200.228 213.561 199.765 217.437 199.672C218.423 199.648 219.391 199.413 220.374 199.342C221.273 199.277 222.157 199.42 223.064 199.34C224.715 199.196 226.217 199.307 227.876 199.282C229.732 199.253 231.535 198.97 233.381 198.857C235.247 198.742 237.095 199.005 238.945 198.637C239.957 198.436 241.844 197.051 240.553 195.891Z" fill="#404044"/>
<path fill-rule="evenodd" clip-rule="evenodd" d="M167.283 30.9445C167.28 30.9445 167.278 30.9448 167.276 30.9445C167.267 30.9549 167.257 30.9661 167.249 30.9759L167.283 30.9445Z" fill="#404044"/>
<path fill-rule="evenodd" clip-rule="evenodd" d="M182.74 22.4062C182.975 21.5919 182.381 21.0087 181.983 20.3762C181.749 21.8111 181.03 21.749 182.74 22.4062Z" fill="#404044"/>
<path fill-rule="evenodd" clip-rule="evenodd" d="M139.684 52.9757C139.689 52.9914 139.697 53.0052 139.702 53.0217C139.708 52.9944 139.701 52.9804 139.684 52.9757Z" fill="#404044"/>
<path fill-rule="evenodd" clip-rule="evenodd" d="M133.205 51.901C133.258 52.0209 133.375 52.8501 133.459 52.8542C134.211 52.8899 133.295 51.487 132.814 51.405C132.119 51.8533 133.221 51.9381 133.205 51.901Z" fill="#404044"/>
<path fill-rule="evenodd" clip-rule="evenodd" d="M133.164 47.0551C133.115 46.4215 132.901 46.3412 132.294 46.6492C132.475 47.0477 132.691 46.9904 133.164 47.0551Z" fill="#404044"/>
<path fill-rule="evenodd" clip-rule="evenodd" d="M124.747 31.5411C125.038 31.5894 125.328 31.6377 125.618 31.6858C125.448 31.2994 125.277 30.9125 125.107 30.5258C124.987 30.8644 124.867 31.2027 124.747 31.5411Z" fill="#404044"/>
<path fill-rule="evenodd" clip-rule="evenodd" d="M130.703 158.844C130.703 158.843 130.703 158.843 130.704 158.842C130.685 158.849 130.682 158.851 130.703 158.844Z" fill="#404044"/>
<path fill-rule="evenodd" clip-rule="evenodd" d="M71.4937 79.8668C72.1084 78.8397 73.274 77.5712 74.6008 77.998C75.8404 78.3971 76.1835 80.0207 76.7177 81.0419C77.7568 83.0275 78.0804 80.8956 78.3106 79.6905C78.123 77.277 77.1832 73.3483 74.0039 73.7646C71.5857 74.0817 69.4976 77.963 69.9581 80.2578C70.3449 82.1868 70.9979 80.6951 71.4937 79.8668Z" fill="#404044"/>
<path fill-rule="evenodd" clip-rule="evenodd" d="M163.135 34.3789C161.948 33.9554 161.949 35.2374 161.904 36.2009C161.862 37.0863 161.999 39.1631 163.117 39.4793C164.231 39.7948 164.336 37.9606 164.509 37.219C164.249 36.3388 164.106 34.725 163.135 34.3789Z" fill="#404044"/>
<path fill-rule="evenodd" clip-rule="evenodd" d="M164.509 32.4554C163.637 31.6857 163.056 31.4499 161.943 31.9471C161.37 32.2029 160.551 32.7593 160.461 33.4611C160.181 35.6451 163.741 32.9035 164.509 32.4554Z" fill="#404044"/>
<path fill-rule="evenodd" clip-rule="evenodd" d="M164.691 45.5392C166.722 46.0635 166.851 43.2898 164.593 43.2853C163.082 43.2824 163.556 45.2466 164.691 45.5392Z" fill="#404044"/>
<path fill-rule="evenodd" clip-rule="evenodd" d="M149.165 36.9167C148.407 37.0274 148.139 37.5028 148.302 38.2613C148.489 39.1365 148.964 39.1437 149.814 39.2254C151.863 39.2319 150.526 36.7181 149.165 36.9167Z" fill="#404044"/>
<path fill-rule="evenodd" clip-rule="evenodd" d="M167.149 32.2198C167.336 32.7393 168.355 32.974 168.887 32.7758C169.52 32.5402 169.651 31.9675 169.08 31.4414C168.591 30.991 167.916 31.1097 167.304 31.1516C167.324 31.3482 167.032 31.8967 167.149 32.2198Z" fill="#404044"/>
<path fill-rule="evenodd" clip-rule="evenodd" d="M103.433 91.4233C104.402 91.422 103.488 89.7851 102.69 89.6834C102.707 90.1898 102.673 91.4247 103.433 91.4233Z" fill="#404044"/>
<path opacity="0.1" d="M38.0277 29.1422C42.1197 23.7301 44.3836 19.7741 45.2595 13.0586C46.6632 10.2512 52.5987 13.4421 54.7477 14.2157C57.5329 15.2184 61.71 15.7946 64.0044 17.7448C66.6787 20.018 67.5998 24.7006 67.6492 28.1587C67.7154 32.7871 68.4149 38.5481 66.0872 42.738C63.3934 47.5867 53.2218 49.2617 48.268 48.8706C41.434 48.3311 31.91 45.1817 34.325 36.374C35.0379 33.7742 36.4015 31.2929 38.0277 29.1422Z" fill="#595DD9"/>
</svg>
